AnnotationMono_Thin.ufo
<glyph name="exclam" format="2">
  <advance width="500.0"/>
  <unicode hex="0021"/>
  <outline>
    <contour>
      <point x="250" y="608" type="curve" smooth="yes"/>
      <point x="287" y="608"/>
      <point x="263" y="530"/>
      <point x="262" y="505" type="curve" smooth="yes"/>
      <point x="259" y="446"/>
      <point x="259" y="418"/>
      <point x="259" y="382" type="curve" smooth="yes"/>
      <point x="258" y="314"/>
      <point x="257" y="223"/>
      <point x="256" y="187" type="curve" smooth="yes"/>
      <point x="256" y="163"/>
      <point x="257" y="154"/>
      <point x="250" y="154" type="curve" smooth="yes"/>
      <point x="242" y="154"/>
      <point x="242" y="159"/>
      <point x="242" y="188" type="curve" smooth="yes"/>
      <point x="242" y="216"/>
      <point x="239" y="339"/>
      <point x="239" y="382" type="curve" smooth="yes"/>
      <point x="239" y="402"/>
      <point x="241" y="444"/>
      <point x="236" y="505" type="curve" smooth="yes"/>
      <point x="234" y="529"/>
      <point x="212" y="608"/>
    </contour>
    <component base="period"/>
  </outline>
</glyph>
<glyph name="numbersign" format="2">
  <advance width="500.0"/>
  <unicode hex="0023"/>
  <outline>
    <contour>
      <point x="244" y="605" type="curve" smooth="yes"/>
      <point x="260" y="605"/>
      <point x="246" y="578"/>
      <point x="239" y="556" type="curve" smooth="yes"/>
      <point x="233" y="537"/>
      <point x="192" y="385"/>
      <point x="163" y="276" type="curve" smooth="yes"/>
      <point x="149" y="222"/>
      <point x="118" y="110"/>
      <point x="108" y="76" type="curve" smooth="yes"/>
      <point x="91" y="22"/>
      <point x="92" y="-7"/>
      <point x="79" y="-7" type="curve" smooth="yes"/>
      <point x="52" y="-7"/>
      <point x="68" y="29"/>
      <point x="83" y="70" type="curve" smooth="yes"/>
      <point x="97" y="111"/>
      <point x="126" y="229"/>
      <point x="157" y="346" type="curve" smooth="yes"/>
      <point x="205" y="525"/>
      <point x="207" y="532"/>
      <point x="217" y="563" type="curve" smooth="yes"/>
      <point x="227" y="597"/>
      <point x="228" y="605"/>
    </contour>
    <contour>
      <point x="413" y="605" type="curve" smooth="yes"/>
      <point x="437" y="605"/>
      <point x="430" y="588"/>
      <point x="426" y="563" type="curve" smooth="yes"/>
      <point x="421" y="532"/>
      <point x="416" y="525"/>
      <point x="368" y="346" type="curve" smooth="yes"/>
      <point x="337" y="229"/>
      <point x="307" y="110"/>
      <point x="296" y="70" type="curve" smooth="yes"/>
      <point x="284" y="25"/>
      <point x="287" y="-7"/>
      <point x="261" y="-7" type="curve" smooth="yes"/>
      <point x="239" y="-7"/>
      <point x="258" y="28"/>
      <point x="273" y="74" type="curve" smooth="yes"/>
      <point x="299" y="157"/>
      <point x="312" y="222"/>
      <point x="326" y="276" type="curve" smooth="yes"/>
      <point x="354" y="386"/>
      <point x="397" y="538"/>
      <point x="400" y="555" type="curve" smooth="yes"/>
      <point x="405" y="577"/>
      <point x="405" y="605"/>
    </contour>
    <contour>
      <point x="52" y="403" type="curve" smooth="yes"/>
      <point x="52" y="419"/>
      <point x="65" y="414"/>
      <point x="94" y="414" type="curve" smooth="yes"/>
      <point x="146" y="414"/>
      <point x="224" y="412"/>
      <point x="236" y="412" type="curve" smooth="yes"/>
      <point x="269" y="412"/>
      <point x="409" y="415"/>
      <point x="441" y="413" type="curve" smooth="yes"/>
      <point x="464" y="412"/>
      <point x="477" y="420"/>
      <point x="478" y="401" type="curve" smooth="yes"/>
      <point x="479" y="388"/>
      <point x="461" y="392"/>
      <point x="426" y="391" type="curve" smooth="yes"/>
      <point x="379" y="390"/>
      <point x="346" y="390"/>
      <point x="268" y="390" type="curve" smooth="yes"/>
      <point x="237" y="390"/>
      <point x="108" y="392"/>
      <point x="90" y="391" type="curve" smooth="yes"/>
      <point x="61" y="390"/>
      <point x="52" y="392"/>
    </contour>
    <contour>
      <point x="32" y="204" type="curve" smooth="yes"/>
      <point x="32" y="220"/>
      <point x="45" y="214"/>
      <point x="74" y="214" type="curve" smooth="yes"/>
      <point x="126" y="214"/>
      <point x="244" y="212"/>
      <point x="256" y="212" type="curve" smooth="yes"/>
      <point x="289" y="212"/>
      <point x="379" y="215"/>
      <point x="411" y="213" type="curve" smooth="yes"/>
      <point x="434" y="212"/>
      <point x="448" y="220"/>
      <point x="448" y="200" type="curve" smooth="yes"/>
      <point x="448" y="189"/>
      <point x="431" y="192"/>
      <point x="396" y="191" type="curve" smooth="yes"/>
      <point x="349" y="190"/>
      <point x="285" y="191"/>
      <point x="248" y="190" type="curve" smooth="yes"/>
      <point x="217" y="190"/>
      <point x="88" y="192"/>
      <point x="70" y="192" type="curve" smooth="yes"/>
      <point x="41" y="192"/>
      <point x="32" y="190"/>
    </contour>
  </outline>
</glyph>
<glyph name="dollar" format="2">
  <advance width="500.0"/>
  <unicode hex="0024"/>
  <outline>
    <contour>
      <point x="262.0" y="615.0" type="curve" smooth="yes"/>
      <point x="338.0" y="615.0"/>
      <point x="378" y="607"/>
      <point x="412.0" y="584.0" type="curve" smooth="yes"/>
      <point x="428" y="573"/>
      <point x="430" y="565"/>
      <point x="421" y="559" type="curve" smooth="yes"/>
      <point x="415" y="555"/>
      <point x="403" y="566"/>
      <point x="386" y="575" type="curve" smooth="yes"/>
      <point x="368" y="586"/>
      <point x="342" y="595"/>
      <point x="261" y="595" type="curve" smooth="yes"/>
      <point x="179" y="595"/>
      <point x="112" y="527"/>
      <point x="112" y="438" type="curve" smooth="yes"/>
      <point x="112" y="319"/>
      <point x="184" y="303"/>
      <point x="265" y="303" type="curve" smooth="yes"/>
      <point x="322" y="303"/>
      <point x="361" y="320"/>
      <point x="404" y="289" type="curve" smooth="yes"/>
      <point x="430" y="270"/>
      <point x="460" y="238"/>
      <point x="460" y="186" type="curve" smooth="yes"/>
      <point x="460" y="126"/>
      <point x="445.0" y="84.0"/>
      <point x="415.0" y="51.0" type="curve" smooth="yes"/>
      <point x="381.0" y="13.0"/>
      <point x="322.0" y="-9.0"/>
      <point x="245.0" y="-9.0" type="curve" smooth="yes"/>
      <point x="178.0" y="-9.0"/>
      <point x="113.0" y="27.0"/>
      <point x="79.0" y="64.0" type="curve" smooth="yes"/>
      <point x="60.0" y="85.0"/>
      <point x="53" y="102"/>
      <point x="70" y="108" type="curve" smooth="yes"/>
      <point x="80" y="112"/>
      <point x="103" y="70"/>
      <point x="118" y="58" type="curve" smooth="yes"/>
      <point x="162" y="18"/>
      <point x="225" y="9"/>
      <point x="253" y="9" type="curve" smooth="yes"/>
      <point x="311" y="9"/>
      <point x="381" y="40"/>
      <point x="401" y="64" type="curve" smooth="yes"/>
      <point x="430" y="98"/>
      <point x="442" y="144"/>
      <point x="442" y="174" type="curve" smooth="yes"/>
      <point x="442" y="222"/>
      <point x="426" y="245"/>
      <point x="402" y="268" type="curve" smooth="yes"/>
      <point x="366" y="302"/>
      <point x="321.0" y="287.0"/>
      <point x="274.0" y="287.0" type="curve" smooth="yes"/>
      <point x="148.0" y="286.0"/>
      <point x="94.0" y="327.0"/>
      <point x="94.0" y="439.0" type="curve" smooth="yes"/>
      <point x="94.0" y="552.0"/>
      <point x="185.0" y="615.0"/>
    </contour>
    <contour>
      <point x="277" y="682" type="curve" smooth="yes"/>
      <point x="279" y="682"/>
      <point x="283" y="674"/>
      <point x="283" y="641" type="curve" smooth="yes"/>
      <point x="283" y="523"/>
      <point x="284" y="511"/>
      <point x="283" y="301" type="curve" smooth="yes"/>
      <point x="282" y="96"/>
      <point x="283" y="115"/>
      <point x="283" y="-45" type="curve" smooth="yes"/>
      <point x="283" y="-83"/>
      <point x="288" y="-108"/>
      <point x="274" y="-108" type="curve" smooth="yes"/>
      <point x="259" y="-108"/>
      <point x="262" y="-76"/>
      <point x="263" y="-44" type="curve" smooth="yes"/>
      <point x="263" y="-38"/>
      <point x="262" y="70"/>
      <point x="263" y="281" type="curve" smooth="yes"/>
      <point x="265" y="534"/>
      <point x="263" y="561"/>
      <point x="263" y="636" type="curve" smooth="yes"/>
      <point x="263" y="657"/>
      <point x="262" y="683"/>
    </contour>
  </outline>
</glyph>
<glyph name="percent" format="2">
  <advance width="500.0"/>
  <unicode hex="0025"/>
  <outline>
    <contour>
      <point x="407" y="607" type="curve" smooth="yes"/>
      <point x="418" y="599"/>
      <point x="410" y="586"/>
      <point x="398" y="565" type="curve" smooth="yes"/>
      <point x="366" y="501"/>
      <point x="379" y="525"/>
      <point x="256" y="289" type="curve" smooth="yes"/>
      <point x="171" y="125"/>
      <point x="200" y="177"/>
      <point x="122" y="39" type="curve" smooth="yes"/>
      <point x="102" y="4"/>
      <point x="98" y="-12"/>
      <point x="83" y="-1" type="curve" smooth="yes"/>
      <point x="69" y="10"/>
      <point x="89" y="21"/>
      <point x="105" y="52" type="curve" smooth="yes"/>
      <point x="118" y="75"/>
      <point x="149" y="127"/>
      <point x="242" y="305" type="curve" smooth="yes"/>
      <point x="369" y="549"/>
      <point x="345" y="501"/>
      <point x="382" y="576" type="curve" smooth="yes"/>
      <point x="394" y="601"/>
      <point x="396" y="615"/>
    </contour>
    <contour>
      <point x="239" y="488" type="curve" smooth="yes"/>
      <point x="239" y="452"/>
      <point x="239" y="423"/>
      <point x="218" y="398" type="curve" smooth="yes"/>
      <point x="202" y="381"/>
      <point x="187" y="375"/>
      <point x="158" y="377" type="curve" smooth="yes"/>
      <point x="130" y="379"/>
      <point x="121" y="385"/>
      <point x="110" y="400" type="curve" smooth="yes"/>
      <point x="95" y="419"/>
      <point x="94" y="450"/>
      <point x="94" y="487" type="curve" smooth="yes"/>
      <point x="94" y="523"/>
      <point x="95" y="539"/>
      <point x="111" y="561" type="curve" smooth="yes"/>
      <point x="126" y="583"/>
      <point x="145" y="594"/>
      <point x="173" y="592" type="curve" smooth="yes"/>
      <point x="201" y="590"/>
      <point x="210" y="585"/>
      <point x="223" y="566" type="curve" smooth="yes"/>
      <point x="234" y="550"/>
      <point x="240" y="533"/>
    </contour>
    <contour>
      <point x="221" y="488" type="curve" smooth="yes"/>
      <point x="221" y="508"/>
      <point x="223" y="530"/>
      <point x="210" y="555" type="curve" smooth="yes"/>
      <point x="204" y="564"/>
      <point x="188" y="575"/>
      <point x="168" y="575" type="curve" smooth="yes"/>
      <point x="153" y="576"/>
      <point x="138" y="568"/>
      <point x="125" y="552" type="curve" smooth="yes"/>
      <point x="117" y="540"/>
      <point x="113" y="518"/>
      <point x="112" y="492" type="curve" smooth="yes"/>
      <point x="112" y="451"/>
      <point x="116" y="426"/>
      <point x="124" y="413" type="curve" smooth="yes"/>
      <point x="133" y="401"/>
      <point x="144" y="396"/>
      <point x="164" y="395" type="curve" smooth="yes"/>
      <point x="189" y="394"/>
      <point x="198" y="403"/>
      <point x="207" y="416" type="curve" smooth="yes"/>
      <point x="221" y="434"/>
      <point x="221" y="456"/>
    </contour>
    <contour>
      <point x="409" y="118" type="curve" smooth="yes"/>
      <point x="409" y="82"/>
      <point x="409" y="53"/>
      <point x="388" y="28" type="curve" smooth="yes"/>
      <point x="372" y="11"/>
      <point x="357" y="5"/>
      <point x="328" y="7" type="curve" smooth="yes"/>
      <point x="300" y="9"/>
      <point x="291" y="15"/>
      <point x="280" y="30" type="curve" smooth="yes"/>
      <point x="265" y="49"/>
      <point x="264" y="80"/>
      <point x="264" y="117" type="curve" smooth="yes"/>
      <point x="264" y="153"/>
      <point x="265" y="169"/>
      <point x="281" y="191" type="curve" smooth="yes"/>
      <point x="296" y="213"/>
      <point x="315" y="224"/>
      <point x="343" y="222" type="curve" smooth="yes"/>
      <point x="371" y="220"/>
      <point x="380" y="215"/>
      <point x="393" y="196" type="curve" smooth="yes"/>
      <point x="404" y="180"/>
      <point x="410" y="163"/>
    </contour>
    <contour>
      <point x="391" y="118" type="curve" smooth="yes"/>
      <point x="391" y="138"/>
      <point x="393" y="160"/>
      <point x="380" y="185" type="curve" smooth="yes"/>
      <point x="374" y="194"/>
      <point x="358" y="205"/>
      <point x="338" y="205" type="curve" smooth="yes"/>
      <point x="323" y="206"/>
      <point x="308" y="198"/>
      <point x="295" y="182" type="curve" smooth="yes"/>
      <point x="287" y="170"/>
      <point x="283" y="148"/>
      <point x="282" y="122" type="curve" smooth="yes"/>
      <point x="282" y="81"/>
      <point x="286" y="56"/>
      <point x="294" y="43" type="curve" smooth="yes"/>
      <point x="303" y="31"/>
      <point x="314" y="26"/>
      <point x="334" y="25" type="curve" smooth="yes"/>
      <point x="359" y="24"/>
      <point x="368" y="33"/>
      <point x="377" y="46" type="curve" smooth="yes"/>
      <point x="391" y="64"/>
      <point x="391" y="86"/>
    </contour>
  </outline>
</glyph>
<glyph name="ampersand" format="2">
  <advance width="500.0"/>
  <unicode hex="0026"/>
  <outline>
    <contour>
      <point x="104.0" y="541.0" type="curve" smooth="yes"/>
      <point x="93" y="579"/>
      <point x="124.0" y="612.0"/>
      <point x="178.0" y="612.0" type="curve" smooth="yes"/>
      <point x="281.0" y="612.0"/>
      <point x="341.0" y="566.0"/>
      <point x="341.0" y="496.0" type="curve" smooth="yes"/>
      <point x="341.0" y="426.0"/>
      <point x="254" y="365"/>
      <point x="198" y="320" type="curve" smooth="yes"/>
      <point x="124" y="263"/>
      <point x="93" y="232"/>
      <point x="74" y="141" type="curve" smooth="yes"/>
      <point x="51" y="29"/>
      <point x="98" y="16"/>
      <point x="142" y="6" type="curve" smooth="yes"/>
      <point x="202" y="-7"/>
      <point x="356" y="82"/>
      <point x="391" y="176" type="curve" smooth="yes"/>
      <point x="411" y="229"/>
      <point x="389" y="256"/>
      <point x="394" y="271" type="curve" smooth="yes"/>
      <point x="401" y="291"/>
      <point x="407" y="294"/>
      <point x="417" y="287" type="curve" smooth="yes"/>
      <point x="427" y="280"/>
      <point x="430.0" y="273.0"/>
      <point x="427.0" y="235.0" type="curve" smooth="yes"/>
      <point x="424.0" y="177.0"/>
      <point x="389.0" y="119.0"/>
      <point x="326.0" y="64.0" type="curve" smooth="yes"/>
      <point x="275.0" y="20.0"/>
      <point x="202.0" y="-15.0"/>
      <point x="153.0" y="-14.0" type="curve" smooth="yes"/>
      <point x="119.0" y="-12.0"/>
      <point x="50" y="0"/>
      <point x="50.0" y="91.0" type="curve" smooth="yes"/>
      <point x="50" y="144"/>
      <point x="61" y="185"/>
      <point x="96" y="246" type="curve" smooth="yes"/>
      <point x="140" y="322"/>
      <point x="322" y="411"/>
      <point x="321" y="501" type="curve" smooth="yes"/>
      <point x="320" y="571"/>
      <point x="247" y="593"/>
      <point x="171" y="593" type="curve" smooth="yes"/>
      <point x="85" y="593"/>
      <point x="135" y="502"/>
      <point x="158" y="442" type="curve" smooth="yes"/>
      <point x="179" y="385"/>
      <point x="242" y="279"/>
      <point x="296" y="210" type="curve" smooth="yes"/>
      <point x="323" y="174"/>
      <point x="407" y="70"/>
      <point x="441" y="38" type="curve" smooth="yes"/>
      <point x="463" y="17"/>
      <point x="486" y="18"/>
      <point x="483" y="5" type="curve" smooth="yes"/>
      <point x="480" y="-7"/>
      <point x="472" y="-7"/>
      <point x="448.0" y="6.0" type="curve" smooth="yes"/>
      <point x="417" y="23"/>
      <point x="293.0" y="185.0"/>
      <point x="280.0" y="201.0" type="curve" smooth="yes"/>
      <point x="233.0" y="261.0"/>
      <point x="170.0" y="375.0"/>
      <point x="157.0" y="403.0" type="curve" smooth="yes"/>
      <point x="134.0" y="453.0"/>
      <point x="116" y="500"/>
    </contour>
  </outline>
</glyph>
<glyph name="quotesingle" format="2">
  <advance width="500.0"/>
  <unicode hex="0027"/>
  <outline>
    <contour>
      <point x="246" y="403" type="curve" smooth="yes"/>
      <point x="238" y="405"/>
      <point x="234" y="414"/>
      <point x="235" y="444" type="curve" smooth="yes"/>
      <point x="237" y="478"/>
      <point x="234" y="508"/>
      <point x="234" y="573" type="curve" smooth="yes"/>
      <point x="234" y="587"/>
      <point x="239" y="605"/>
      <point x="251" y="605" type="curve" smooth="yes"/>
      <point x="257" y="605"/>
      <point x="266" y="598"/>
      <point x="266" y="573" type="curve" smooth="yes"/>
      <point x="266" y="516"/>
      <point x="265" y="473"/>
      <point x="261" y="441" type="curve" smooth="yes"/>
      <point x="258" y="417"/>
      <point x="252" y="401"/>
    </contour>
  </outline>
</glyph>
<glyph name="parenleft" format="2">
  <advance width="500.0"/>
  <unicode hex="0028"/>
  <outline>
    <contour>
      <point x="126.0" y="291.0" type="curve" smooth="yes"/>
      <point x="126.0" y="587.0"/>
      <point x="359" y="675"/>
      <point x="403" y="674" type="curve" smooth="yes"/>
      <point x="420" y="674"/>
      <point x="440" y="677"/>
      <point x="440" y="660" type="curve" smooth="yes"/>
      <point x="440" y="650"/>
      <point x="427" y="652"/>
      <point x="406" y="651" type="curve" smooth="yes"/>
      <point x="359" y="649"/>
      <point x="151" y="567"/>
      <point x="151" y="294" type="curve" smooth="yes"/>
      <point x="151" y="20"/>
      <point x="324" y="-78"/>
      <point x="404" y="-78" type="curve" smooth="yes"/>
      <point x="426" y="-78"/>
      <point x="438" y="-81"/>
      <point x="432.0" y="-95.0" type="curve" smooth="yes"/>
      <point x="429" y="-102"/>
      <point x="409" y="-103"/>
      <point x="378" y="-99" type="curve" smooth="yes"/>
      <point x="324" y="-91"/>
      <point x="128.0" y="-6.0"/>
    </contour>
  </outline>
</glyph>
<glyph name="asterisk" format="2">
  <advance width="500.0"/>
  <unicode hex="002A"/>
  <outline>
    <contour>
      <point x="250" y="478" type="curve" smooth="yes"/>
      <point x="263" y="478"/>
      <point x="261" y="455"/>
      <point x="261" y="426" type="curve" smooth="yes"/>
      <point x="261" y="414"/>
      <point x="260" y="358"/>
      <point x="256" y="309" type="curve"/>
      <point x="309" y="346"/>
      <point x="356" y="376"/>
      <point x="366" y="383" type="curve" smooth="yes"/>
      <point x="393" y="403"/>
      <point x="406" y="407"/>
      <point x="414" y="393" type="curve" smooth="yes"/>
      <point x="422" y="379"/>
      <point x="405" y="373"/>
      <point x="381" y="357" type="curve" smooth="yes"/>
      <point x="361" y="344"/>
      <point x="318" y="328"/>
      <point x="263" y="300" type="curve"/>
      <point x="318" y="273"/>
      <point x="351" y="261"/>
      <point x="372" y="248" type="curve" smooth="yes"/>
      <point x="402" y="231"/>
      <point x="422" y="223"/>
      <point x="413" y="206" type="curve" smooth="yes"/>
      <point x="404" y="190"/>
      <point x="387" y="203"/>
      <point x="366" y="217" type="curve" smooth="yes"/>
      <point x="352" y="227"/>
      <point x="314" y="253"/>
      <point x="256" y="292" type="curve"/>
      <point x="262" y="248"/>
      <point x="261" y="185"/>
      <point x="261" y="164" type="curve" smooth="yes"/>
      <point x="261" y="140"/>
      <point x="262" y="122"/>
      <point x="250" y="122" type="curve" smooth="yes"/>
      <point x="238" y="122"/>
      <point x="239" y="142"/>
      <point x="239" y="167" type="curve" smooth="yes"/>
      <point x="239" y="187"/>
      <point x="239" y="246"/>
      <point x="244" y="292" type="curve"/>
      <point x="196" y="257"/>
      <point x="149" y="227"/>
      <point x="134" y="217" type="curve" smooth="yes"/>
      <point x="114" y="204"/>
      <point x="96" y="190"/>
      <point x="87" y="206" type="curve" smooth="yes"/>
      <point x="78" y="223"/>
      <point x="98" y="234"/>
      <point x="128" y="248" type="curve" smooth="yes"/>
      <point x="150" y="258"/>
      <point x="184" y="272"/>
      <point x="237" y="300" type="curve"/>
      <point x="186" y="327"/>
      <point x="141" y="344"/>
      <point x="119" y="357" type="curve" smooth="yes"/>
      <point x="94" y="371"/>
      <point x="78" y="379"/>
      <point x="86" y="393" type="curve" smooth="yes"/>
      <point x="94" y="407"/>
      <point x="107" y="402"/>
      <point x="135" y="383" type="curve" smooth="yes"/>
      <point x="145" y="376"/>
      <point x="197" y="344"/>
      <point x="244" y="309" type="curve"/>
      <point x="238" y="359"/>
      <point x="239" y="418"/>
      <point x="239" y="430" type="curve" smooth="yes"/>
      <point x="239" y="458"/>
      <point x="235" y="478"/>
    </contour>
  </outline>
</glyph>
<glyph name="plus" format="2">
  <advance width="500.0"/>
  <unicode hex="002B"/>
  <outline>
    <contour>
      <point x="52" y="301" type="curve" smooth="yes"/>
      <point x="52" y="311"/>
      <point x="65" y="312"/>
      <point x="94" y="312" type="curve" smooth="yes"/>
      <point x="146" y="312"/>
      <point x="249" y="311"/>
      <point x="261" y="311" type="curve" smooth="yes"/>
      <point x="294" y="311"/>
      <point x="379" y="313"/>
      <point x="411" y="311" type="curve" smooth="yes"/>
      <point x="434" y="311"/>
      <point x="448" y="312"/>
      <point x="448" y="300" type="curve" smooth="yes"/>
      <point x="448" y="287"/>
      <point x="431" y="289"/>
      <point x="396" y="289" type="curve" smooth="yes"/>
      <point x="349" y="288"/>
      <point x="290" y="289"/>
      <point x="253" y="288" type="curve" smooth="yes"/>
      <point x="222" y="288"/>
      <point x="108" y="287"/>
      <point x="90" y="289" type="curve" smooth="yes"/>
      <point x="62" y="292"/>
      <point x="52" y="291"/>
    </contour>
    <contour>
      <point x="251" y="498" type="curve" smooth="yes"/>
      <point x="260" y="498"/>
      <point x="260" y="485"/>
      <point x="261" y="456" type="curve" smooth="yes"/>
      <point x="263" y="411"/>
      <point x="260" y="316"/>
      <point x="261" y="304" type="curve" smooth="yes"/>
      <point x="262" y="290"/>
      <point x="262" y="171"/>
      <point x="260" y="139" type="curve" smooth="yes"/>
      <point x="260" y="116"/>
      <point x="262" y="102"/>
      <point x="250" y="102" type="curve" smooth="yes"/>
      <point x="238" y="102"/>
      <point x="240" y="119"/>
      <point x="239" y="154" type="curve" smooth="yes"/>
      <point x="238" y="201"/>
      <point x="239" y="275"/>
      <point x="238" y="312" type="curve" smooth="yes"/>
      <point x="238" y="343"/>
      <point x="238" y="442"/>
      <point x="240" y="460" type="curve" smooth="yes"/>
      <point x="242" y="488"/>
      <point x="242" y="498"/>
    </contour>
  </outline>
</glyph>
<glyph name="comma" format="2">
  <advance width="500.0"/>
  <unicode hex="002C"/>
  <anchor x="250.0" y="35.0" name="center"/>
  <outline>
    <contour>
      <point x="281" y="37" type="curve" smooth="yes"/>
      <point x="287" y="13"/>
      <point x="278" y="-26"/>
      <point x="260" y="-61" type="curve" smooth="yes"/>
      <point x="238" y="-103"/>
      <point x="196" y="-131"/>
      <point x="152" y="-131" type="curve" smooth="yes"/>
      <point x="129" y="-131"/>
      <point x="109" y="-119"/>
      <point x="115" y="-109" type="curve" smooth="yes"/>
      <point x="125" y="-92"/>
      <point x="148" y="-108"/>
      <point x="170" y="-101" type="curve" smooth="yes"/>
      <point x="191" y="-94"/>
      <point x="242" y="-68"/>
      <point x="243" y="6" type="curve"/>
      <point x="230" y="6"/>
      <point x="219" y="18"/>
      <point x="219" y="34" type="curve" smooth="yes"/>
      <point x="219" y="54"/>
      <point x="233" y="65"/>
      <point x="247" y="65" type="curve" smooth="yes"/>
      <point x="263" y="65"/>
      <point x="275" y="61"/>
    </contour>
  </outline>
</glyph>
<glyph name="hyphen" format="2">
  <advance width="500.0"/>
  <unicode hex="002D"/>
  <outline>
    <contour>
      <point x="52" y="300" type="curve" smooth="yes"/>
      <point x="52" y="310"/>
      <point x="65" y="314"/>
      <point x="94" y="314" type="curve" smooth="yes"/>
      <point x="149" y="314"/>
      <point x="234" y="312"/>
      <point x="246" y="312" type="curve" smooth="yes"/>
      <point x="287" y="312"/>
      <point x="376" y="313"/>
      <point x="411" y="313" type="curve" smooth="yes"/>
      <point x="434" y="313"/>
      <point x="448" y="313"/>
      <point x="448" y="300" type="curve" smooth="yes"/>
      <point x="448" y="286"/>
      <point x="431" y="290"/>
      <point x="396" y="289" type="curve" smooth="yes"/>
      <point x="349" y="287"/>
      <point x="275" y="288"/>
      <point x="238" y="288" type="curve" smooth="yes"/>
      <point x="205" y="288"/>
      <point x="115" y="289"/>
      <point x="90" y="289" type="curve" smooth="yes"/>
      <point x="62" y="289"/>
      <point x="52" y="290"/>
    </contour>
  </outline>
</glyph>
<glyph name="period" format="2">
  <advance width="500.0"/>
  <unicode hex="002E"/>
  <anchor x="250.0" y="35.0" name="center"/>
  <outline>
    <contour>
      <point x="280" y="35" type="curve" smooth="yes"/>
      <point x="280" y="12"/>
      <point x="268" y="5"/>
      <point x="250" y="5" type="curve" smooth="yes"/>
      <point x="229" y="5"/>
      <point x="220" y="18"/>
      <point x="220" y="35" type="curve" smooth="yes"/>
      <point x="220" y="50"/>
      <point x="229" y="65"/>
      <point x="250" y="65" type="curve" smooth="yes"/>
      <point x="269" y="65"/>
      <point x="280" y="51"/>
    </contour>
  </outline>
</glyph>
<glyph name="slash" format="2">
  <advance width="500.0"/>
  <unicode hex="002F"/>
  <outline>
    <contour>
      <point x="433" y="652" type="curve" smooth="yes"/>
      <point x="447" y="642"/>
      <point x="438" y="637"/>
      <point x="418" y="600" type="curve" smooth="yes"/>
      <point x="361" y="496"/>
      <point x="359" y="484"/>
      <point x="259" y="299" type="curve" smooth="yes"/>
      <point x="161" y="119"/>
      <point x="169" y="127"/>
      <point x="98" y="-7" type="curve" smooth="yes"/>
      <point x="80" y="-41"/>
      <point x="78" y="-55"/>
      <point x="66" y="-48" type="curve" smooth="yes"/>
      <point x="46" y="-37"/>
      <point x="72" y="-3"/>
      <point x="88" y="25" type="curve" smooth="yes"/>
      <point x="91" y="30"/>
      <point x="140" y="126"/>
      <point x="241" y="312" type="curve" smooth="yes"/>
      <point x="362" y="534"/>
      <point x="370" y="561"/>
      <point x="407" y="626" type="curve" smooth="yes"/>
      <point x="412" y="634"/>
      <point x="424" y="659"/>
    </contour>
  </outline>
</glyph>
<glyph name="zero" format="2">
  <advance width="500.0"/>
  <unicode hex="0030"/>
  <anchor x="250.0" y="0.0" name="bottom"/>
  <anchor x="250.0" y="600.0" name="top"/>
  <outline>
    <contour>
      <point x="250" y="612" type="curve" smooth="yes"/>
      <point x="340" y="612"/>
      <point x="369.0" y="583.0"/>
      <point x="401.0" y="511.0" type="curve" smooth="yes"/>
      <point x="423.0" y="464.0"/>
      <point x="439.0" y="400.0"/>
      <point x="439.0" y="301.0" type="curve" smooth="yes"/>
      <point x="439.0" y="207.0"/>
      <point x="432.0" y="138.0"/>
      <point x="409.0" y="90.0" type="curve" smooth="yes"/>
      <point x="373.0" y="14.0"/>
      <point x="314" y="-13"/>
      <point x="251" y="-13" type="curve" smooth="yes"/>
      <point x="174" y="-13"/>
      <point x="146" y="6"/>
      <point x="110" y="58" type="curve" smooth="yes"/>
      <point x="75" y="110"/>
      <point x="61.0" y="190.0"/>
      <point x="61.0" y="301.0" type="curve" smooth="yes"/>
      <point x="61.0" y="418.0"/>
      <point x="81.0" y="495.0"/>
      <point x="122.0" y="544.0" type="curve" smooth="yes"/>
      <point x="159.0" y="589.0"/>
      <point x="197" y="612"/>
    </contour>
    <contour>
      <point x="250" y="594" type="curve" smooth="yes"/>
      <point x="198" y="594"/>
      <point x="175" y="573"/>
      <point x="141" y="535" type="curve" smooth="yes"/>
      <point x="103" y="493"/>
      <point x="82" y="416"/>
      <point x="82" y="300" type="curve" smooth="yes"/>
      <point x="82" y="192"/>
      <point x="91" y="123"/>
      <point x="132" y="60" type="curve" smooth="yes"/>
      <point x="157" y="21"/>
      <point x="185" y="8"/>
      <point x="251" y="8" type="curve" smooth="yes"/>
      <point x="305" y="8"/>
      <point x="363" y="41"/>
      <point x="386" y="97" type="curve" smooth="yes"/>
      <point x="409" y="153"/>
      <point x="418" y="204"/>
      <point x="418" y="300" type="curve" smooth="yes"/>
      <point x="418" y="412"/>
      <point x="394" y="488"/>
      <point x="366.0" y="534.0" type="curve" smooth="yes"/>
      <point x="337" y="581"/>
      <point x="314" y="594"/>
    </contour>
    <contour>
      <point x="120" y="65" type="line"/>
      <point x="376" y="534" type="line"/>
      <point x="385" y="508" type="line"/>
      <point x="134" y="44" type="line"/>
    </contour>
  </outline>
</glyph>
<glyph name="one" format="2">
  <advance width="500.0"/>
  <unicode hex="0031"/>
  <anchor x="254" y="0" name="bottom"/>
  <anchor x="253" y="600" name="top"/>
  <outline>
    <contour>
      <point x="245" y="579" type="curve"/>
      <point x="228" y="564"/>
      <point x="189" y="529"/>
      <point x="168" y="512" type="curve" smooth="yes"/>
      <point x="143" y="491"/>
      <point x="119" y="470"/>
      <point x="107" y="461" type="curve" smooth="yes"/>
      <point x="81" y="442"/>
      <point x="78" y="440"/>
      <point x="74" y="444" type="curve" smooth="yes"/>
      <point x="66" y="454"/>
      <point x="78" y="457"/>
      <point x="88" y="468" type="curve" smooth="yes"/>
      <point x="128" y="501"/>
      <point x="131" y="504"/>
      <point x="140" y="512" type="curve" smooth="yes"/>
      <point x="165" y="534"/>
      <point x="215" y="578"/>
      <point x="236" y="598" type="curve" smooth="yes"/>
      <point x="248" y="610"/>
      <point x="264" y="604"/>
      <point x="264" y="592" type="curve" smooth="yes"/>
      <point x="264" y="577"/>
      <point x="264" y="563"/>
      <point x="264" y="538" type="curve" smooth="yes"/>
      <point x="264" y="469"/>
      <point x="264" y="496"/>
      <point x="264" y="325" type="curve" smooth="yes"/>
      <point x="264" y="245"/>
      <point x="263" y="130"/>
      <point x="263" y="14" type="curve"/>
      <point x="243" y="15" type="line"/>
      <point x="244" y="57"/>
      <point x="244" y="265"/>
      <point x="245" y="304" type="curve" smooth="yes"/>
      <point x="245" y="212.33333333333331"/>
      <point x="245" y="487.3333333333333"/>
    </contour>
    <contour>
      <point x="61" y="6" type="curve" smooth="yes"/>
      <point x="61" y="17"/>
      <point x="69" y="16"/>
      <point x="87" y="18" type="curve" smooth="yes"/>
      <point x="119" y="21"/>
      <point x="218" y="21"/>
      <point x="258" y="21" type="curve" smooth="yes"/>
      <point x="295" y="21"/>
      <point x="362" y="20"/>
      <point x="420" y="19" type="curve" smooth="yes"/>
      <point x="442" y="18"/>
      <point x="449" y="17"/>
      <point x="449" y="10" type="curve" smooth="yes"/>
      <point x="449" y="-2"/>
      <point x="447" y="0"/>
      <point x="430" y="0" type="curve" smooth="yes"/>
      <point x="365" y="0"/>
      <point x="294" y="0"/>
      <point x="240" y="0" type="curve" smooth="yes"/>
      <point x="217" y="0"/>
      <point x="143" y="0"/>
      <point x="81" y="0" type="curve" smooth="yes"/>
      <point x="59" y="0"/>
      <point x="61" y="1"/>
    </contour>
  </outline>
</glyph>
<glyph name="two" format="2">
  <advance width="500.0"/>
  <unicode hex="0032"/>
  <anchor x="250.0" y="0.0" name="bottom"/>
  <anchor x="250.0" y="600.0" name="top"/>
  <outline>
    <contour>
      <point x="41" y="6" type="curve" smooth="yes"/>
      <point x="41" y="60"/>
      <point x="244" y="210"/>
      <point x="296" y="251" type="curve" smooth="yes"/>
      <point x="392" y="328"/>
      <point x="402" y="379"/>
      <point x="402" y="461" type="curve" smooth="yes"/>
      <point x="402" y="513"/>
      <point x="348" y="592"/>
      <point x="237" y="592" type="curve" smooth="yes"/>
      <point x="175" y="592"/>
      <point x="130" y="557"/>
      <point x="107" y="528" type="curve" smooth="yes"/>
      <point x="86" y="504"/>
      <point x="91" y="497"/>
      <point x="79" y="497" type="curve" smooth="yes"/>
      <point x="67" y="498"/>
      <point x="72" y="514"/>
      <point x="75" y="517" type="curve" smooth="yes"/>
      <point x="100" y="553"/>
      <point x="145" y="602"/>
      <point x="222" y="611" type="curve" smooth="yes"/>
      <point x="313" y="623"/>
      <point x="421" y="555"/>
      <point x="421" y="458" type="curve" smooth="yes"/>
      <point x="421" y="384"/>
      <point x="407" y="312"/>
      <point x="335" y="257" type="curve" smooth="yes"/>
      <point x="205" y="157"/>
      <point x="82" y="57"/>
      <point x="63" y="18" type="curve"/>
      <point x="127.78609814866618" y="22.225180314043445"/>
      <point x="193.1104992740432" y="21"/>
      <point x="258" y="21" type="curve" smooth="yes"/>
      <point x="295" y="21"/>
      <point x="362" y="20"/>
      <point x="420" y="19" type="curve" smooth="yes"/>
      <point x="442" y="18"/>
      <point x="449" y="17"/>
      <point x="449" y="10" type="curve" smooth="yes"/>
      <point x="449" y="-2"/>
      <point x="447" y="0"/>
      <point x="430" y="0" type="curve" smooth="yes"/>
      <point x="365" y="0"/>
      <point x="294" y="0"/>
      <point x="240" y="0" type="curve" smooth="yes"/>
      <point x="217" y="0"/>
      <point x="123" y="0"/>
      <point x="61" y="0" type="curve" smooth="yes"/>
      <point x="54.89367939078898" y="0"/>
      <point x="41" y="-3"/>
    </contour>
  </outline>
</glyph>
<glyph name="three" format="2">
  <advance width="500.0"/>
  <unicode hex="0033"/>
  <anchor x="250.0" y="0.0" name="bottom"/>
  <anchor x="250.0" y="600.0" name="top"/>
  <outline>
    <contour>
      <point x="353" y="314" type="curve"/>
      <point x="366" y="326" type="line"/>
      <point x="414" y="286"/>
      <point x="436" y="232"/>
      <point x="425" y="149" type="curve" smooth="yes"/>
      <point x="406" y="7"/>
      <point x="313" y="-18"/>
      <point x="212" y="-8" type="curve" smooth="yes"/>
      <point x="140" y="-1"/>
      <point x="106" y="13"/>
      <point x="55" y="63" type="curve" smooth="yes"/>
      <point x="32" y="86"/>
      <point x="30" y="96"/>
      <point x="41" y="104" type="curve" smooth="yes"/>
      <point x="51" y="111"/>
      <point x="70" y="66"/>
      <point x="116" y="40" type="curve" smooth="yes"/>
      <point x="165" y="12"/>
      <point x="202" y="12"/>
      <point x="232" y="10" type="curve" smooth="yes"/>
      <point x="351" y="3"/>
      <point x="401" y="75"/>
      <point x="409" y="176" type="curve" smooth="yes"/>
      <point x="410" y="239"/>
      <point x="385" y="289"/>
    </contour>
    <contour>
      <point x="257" y="272" type="curve" smooth="yes"/>
      <point x="236" y="266"/>
      <point x="225" y="260"/>
      <point x="222" y="270" type="curve" smooth="yes"/>
      <point x="218" y="282"/>
      <point x="236" y="285"/>
      <point x="250" y="287" type="curve" smooth="yes"/>
      <point x="401" y="324"/>
      <point x="404" y="403"/>
      <point x="402" y="452" type="curve" smooth="yes"/>
      <point x="400" y="497"/>
      <point x="387" y="589"/>
      <point x="246" y="594" type="curve" smooth="yes"/>
      <point x="206" y="595"/>
      <point x="136" y="569"/>
      <point x="103" y="540" type="curve" smooth="yes"/>
      <point x="78" y="518"/>
      <point x="73" y="512"/>
      <point x="65" y="519" type="curve" smooth="yes"/>
      <point x="59" y="525"/>
      <point x="60" y="526"/>
      <point x="71" y="537" type="curve" smooth="yes"/>
      <point x="102" y="568"/>
      <point x="165" y="611"/>
      <point x="243" y="611" type="curve" smooth="yes"/>
      <point x="332" y="611"/>
      <point x="414" y="572"/>
      <point x="420" y="462" type="curve" smooth="yes"/>
      <point x="429" y="357"/>
      <point x="385" y="304"/>
    </contour>
  </outline>
</glyph>
<glyph name="four" format="2">
  <advance width="500.0"/>
  <unicode hex="0034"/>
  <anchor x="271.0" y="0.0" name="bottom"/>
  <anchor x="271.0" y="600.0" name="top"/>
  <outline>
    <contour>
      <point x="365" y="610" type="line"/>
      <point x="371" y="610"/>
      <point x="386" y="612"/>
      <point x="386" y="569" type="curve" smooth="yes"/>
      <point x="386" y="469"/>
      <point x="386" y="496"/>
      <point x="386" y="325" type="curve" smooth="yes"/>
      <point x="386" y="245"/>
      <point x="384" y="114"/>
      <point x="384" y="34" type="curve" smooth="yes"/>
      <point x="384" y="-4"/>
      <point x="382" y="-8"/>
      <point x="373" y="-8" type="curve" smooth="yes"/>
      <point x="364" y="-8"/>
      <point x="364" y="3"/>
      <point x="365" y="35" type="curve" smooth="yes"/>
      <point x="365" y="41"/>
      <point x="365" y="235"/>
      <point x="365" y="274" type="curve" smooth="yes"/>
      <point x="365" y="314"/>
      <point x="373" y="575"/>
      <point x="367" y="596" type="curve"/>
    </contour>
    <contour>
      <point x="36" y="263" type="curve" smooth="yes"/>
      <point x="36" y="273"/>
      <point x="51" y="258"/>
      <point x="73" y="258" type="curve" smooth="yes"/>
      <point x="101" y="258"/>
      <point x="178" y="260"/>
      <point x="218" y="260" type="curve" smooth="yes"/>
      <point x="255" y="260"/>
      <point x="367" y="262"/>
      <point x="415" y="262" type="curve" smooth="yes"/>
      <point x="457" y="262"/>
      <point x="464" y="263"/>
      <point x="464" y="250" type="curve" smooth="yes"/>
      <point x="464" y="241"/>
      <point x="452" y="244"/>
      <point x="425" y="243" type="curve" smooth="yes"/>
      <point x="371" y="241"/>
      <point x="269" y="242"/>
      <point x="215" y="241" type="curve" smooth="yes"/>
      <point x="192" y="241"/>
      <point x="130" y="241"/>
      <point x="76" y="240" type="curve" smooth="yes"/>
      <point x="44" y="240"/>
      <point x="36" y="244"/>
    </contour>
    <contour>
      <point x="54" y="260" type="curve"/>
      <point x="36" y="263" type="line"/>
      <point x="36" y="319"/>
      <point x="86" y="356"/>
      <point x="181" y="454" type="curve" smooth="yes"/>
      <point x="253" y="528"/>
      <point x="317" y="610"/>
      <point x="365" y="610" type="curve"/>
      <point x="367" y="596" type="line"/>
      <point x="327" y="591"/>
      <point x="241" y="489"/>
      <point x="191" y="437" type="curve" smooth="yes"/>
      <point x="137" y="381"/>
      <point x="57" y="315"/>
    </contour>
  </outline>
</glyph>
<glyph name="five" format="2">
  <advance width="500.0"/>
  <unicode hex="0035"/>
  <anchor x="250.0" y="0.0" name="bottom"/>
  <anchor x="250.0" y="600.0" name="top"/>
  <outline>
    <contour>
      <point x="83" y="586" type="curve" smooth="yes"/>
      <point x="83" y="596"/>
      <point x="81" y="600"/>
      <point x="99" y="600" type="curve" smooth="yes"/>
      <point x="130" y="600"/>
      <point x="219" y="600"/>
      <point x="242" y="600" type="curve" smooth="yes"/>
      <point x="296" y="600"/>
      <point x="344" y="600"/>
      <point x="407" y="600" type="curve" smooth="yes"/>
      <point x="425" y="600"/>
      <point x="427" y="600"/>
      <point x="427" y="592" type="curve" smooth="yes"/>
      <point x="427" y="580"/>
      <point x="420" y="583"/>
      <point x="397" y="582" type="curve" smooth="yes"/>
      <point x="340" y="581"/>
      <point x="282" y="582"/>
      <point x="245" y="582" type="curve" smooth="yes"/>
      <point x="205" y="582"/>
      <point x="106" y="581"/>
      <point x="94" y="582" type="curve" smooth="yes"/>
      <point x="90" y="582"/>
      <point x="83" y="577"/>
    </contour>
    <contour>
      <point x="438" y="192" type="curve" smooth="yes"/>
      <point x="438" y="313"/>
      <point x="357" y="366"/>
      <point x="247" y="366" type="curve" smooth="yes"/>
      <point x="203" y="366"/>
      <point x="121" y="347"/>
      <point x="96" y="344" type="curve"/>
      <point x="97" y="366" type="line"/>
      <point x="122" y="365"/>
      <point x="207" y="385"/>
      <point x="246" y="385" type="curve" smooth="yes"/>
      <point x="377.4011409698609" y="385"/>
      <point x="457" y="320.3963119342345"/>
      <point x="457" y="184" type="curve" smooth="yes"/>
      <point x="457" y="38"/>
      <point x="332" y="-8"/>
      <point x="222" y="-8" type="curve" smooth="yes"/>
      <point x="150" y="-8"/>
      <point x="87" y="31"/>
      <point x="53" y="75" type="curve" smooth="yes"/>
      <point x="26" y="111"/>
      <point x="34" y="113"/>
      <point x="40" y="116" type="curve" smooth="yes"/>
      <point x="51" y="122"/>
      <point x="57" y="98"/>
      <point x="75" y="80" type="curve" smooth="yes"/>
      <point x="137" y="20"/>
      <point x="188" y="12"/>
      <point x="235" y="12" type="curve" smooth="yes"/>
      <point x="341" y="12"/>
      <point x="438" y="66"/>
    </contour>
    <contour>
      <point x="83" y="586" type="curve"/>
      <point x="103" y="587" type="line"/>
      <point x="104" y="579"/>
      <point x="102" y="556"/>
      <point x="102" y="525" type="curve" smooth="yes"/>
      <point x="102" y="483"/>
      <point x="101" y="413"/>
      <point x="103" y="366" type="curve" smooth="yes"/>
      <point x="104" y="353"/>
      <point x="105" y="345"/>
      <point x="96" y="344" type="curve" smooth="yes"/>
      <point x="86" y="343"/>
      <point x="83" y="357"/>
      <point x="83" y="381" type="curve" smooth="yes"/>
      <point x="83" y="421"/>
      <point x="84" y="456"/>
      <point x="83" y="490" type="curve" smooth="yes"/>
      <point x="83" y="518"/>
      <point x="84" y="559"/>
    </contour>
  </outline>
</glyph>
<glyph name="six" format="2">
  <advance width="500.0"/>
  <unicode hex="0036"/>
  <anchor x="250.0" y="0.0" name="bottom"/>
  <anchor x="270.0" y="600.0" name="top"/>
  <outline>
    <contour>
      <point x="72" y="237" type="curve" smooth="yes"/>
      <point x="56" y="427"/>
      <point x="135" y="554"/>
      <point x="266" y="581" type="curve" smooth="yes"/>
      <point x="312" y="590"/>
      <point x="368" y="597"/>
      <point x="410" y="549" type="curve" smooth="yes"/>
      <point x="429" y="526"/>
      <point x="434" y="511"/>
      <point x="444" y="514" type="curve" smooth="yes"/>
      <point x="453" y="517"/>
      <point x="454" y="527"/>
      <point x="425" y="560" type="curve" smooth="yes"/>
      <point x="375" y="614"/>
      <point x="323" y="612"/>
      <point x="252" y="598" type="curve" smooth="yes"/>
      <point x="140" y="572"/>
      <point x="38" y="466"/>
      <point x="52" y="245" type="curve" smooth="yes"/>
      <point x="58" y="155"/>
      <point x="90" y="89"/>
      <point x="124" y="43" type="curve" smooth="yes"/>
      <point x="161" y="-7"/>
      <point x="218.0" y="-13.0"/>
      <point x="251.0" y="-13.0" type="curve" smooth="yes"/>
      <point x="338.0" y="-13.0"/>
      <point x="437" y="103"/>
      <point x="437.0" y="204.0" type="curve" smooth="yes"/>
      <point x="437" y="286"/>
      <point x="381.0" y="377.0"/>
      <point x="241.0" y="377.0" type="curve" smooth="yes"/>
      <point x="218.0" y="377.0"/>
      <point x="115" y="367"/>
      <point x="62" y="273" type="curve"/>
      <point x="61" y="245" type="line"/>
      <point x="127" y="353"/>
      <point x="211" y="358"/>
      <point x="253" y="357" type="curve" smooth="yes"/>
      <point x="378" y="355"/>
      <point x="421" y="262"/>
      <point x="420" y="206" type="curve" smooth="yes"/>
      <point x="418" y="127"/>
      <point x="336" y="6"/>
      <point x="250" y="6" type="curve" smooth="yes"/>
      <point x="116" y="6"/>
      <point x="79" y="161"/>
    </contour>
  </outline>
</glyph>
<glyph name="seven" format="2">
  <advance width="500.0"/>
  <unicode hex="0037"/>
  <anchor x="243.0" y="0.0" name="bottom"/>
  <anchor x="243.0" y="600.0" name="top"/>
  <outline>
    <contour>
      <point x="431" y="587" type="curve"/>
      <point x="450" y="581" type="line"/>
      <point x="440" y="509"/>
      <point x="354" y="383"/>
      <point x="291" y="288" type="curve" smooth="yes"/>
      <point x="235" y="204"/>
      <point x="214" y="110"/>
      <point x="206" y="27" type="curve" smooth="yes"/>
      <point x="202" y="2"/>
      <point x="208" y="-10"/>
      <point x="194" y="-10" type="curve" smooth="yes"/>
      <point x="177" y="-10"/>
      <point x="181" y="8"/>
      <point x="183" y="24" type="curve" smooth="yes"/>
      <point x="198" y="169"/>
      <point x="240" y="251"/>
      <point x="312" y="356" type="curve" smooth="yes"/>
      <point x="364" y="432"/>
      <point x="410" y="513"/>
    </contour>
    <contour>
      <point x="450" y="581" type="curve" smooth="yes"/>
      <point x="448" y="569"/>
      <point x="450" y="571"/>
      <point x="425" y="576" type="curve" smooth="yes"/>
      <point x="391" y="583"/>
      <point x="328" y="578"/>
      <point x="288" y="577" type="curve" smooth="yes"/>
      <point x="251" y="575"/>
      <point x="120" y="578"/>
      <point x="71" y="580" type="curve" smooth="yes"/>
      <point x="54" y="581"/>
      <point x="52" y="573"/>
      <point x="52" y="582" type="curve" smooth="yes"/>
      <point x="52" y="592"/>
      <point x="64" y="601"/>
      <point x="91" y="599" type="curve" smooth="yes"/>
      <point x="143" y="596"/>
      <point x="217" y="595"/>
      <point x="271" y="596" type="curve" smooth="yes"/>
      <point x="321" y="598"/>
      <point x="360" y="601"/>
      <point x="412" y="598" type="curve" smooth="yes"/>
      <point x="447" y="596"/>
      <point x="451" y="591"/>
    </contour>
    <contour>
      <point x="53" y="409" type="curve" smooth="yes"/>
      <point x="48" y="409"/>
      <point x="46" y="420"/>
      <point x="50" y="450" type="curve" smooth="yes"/>
      <point x="53" y="484"/>
      <point x="52" y="527"/>
      <point x="52" y="582" type="curve"/>
      <point x="72" y="590" type="line"/>
      <point x="70" y="563"/>
      <point x="75" y="499"/>
      <point x="69" y="446" type="curve" smooth="yes"/>
      <point x="66" y="422"/>
      <point x="69" y="407"/>
    </contour>
  </outline>
</glyph>
<glyph name="eight" format="2">
  <advance width="500.0"/>
  <unicode hex="0038"/>
  <anchor x="250.0" y="0.0" name="bottom"/>
  <anchor x="250.0" y="600.0" name="top"/>
  <outline>
    <contour>
      <point x="254" y="617" type="curve" smooth="yes"/>
      <point x="287" y="617"/>
      <point x="343" y="609"/>
      <point x="384.0" y="576.0" type="curve" smooth="yes"/>
      <point x="409" y="555"/>
      <point x="429" y="530"/>
      <point x="429" y="481" type="curve" smooth="yes"/>
      <point x="429" y="426"/>
      <point x="413" y="367"/>
      <point x="321" y="335" type="curve"/>
      <point x="261" y="350" type="line"/>
      <point x="337" y="350"/>
      <point x="410" y="371"/>
      <point x="410" y="483" type="curve" smooth="yes"/>
      <point x="410" y="573"/>
      <point x="316" y="598"/>
      <point x="257" y="598" type="curve" smooth="yes"/>
      <point x="185" y="598"/>
      <point x="103" y="548"/>
      <point x="103" y="457" type="curve" smooth="yes"/>
      <point x="103" y="362"/>
      <point x="181" y="350"/>
      <point x="261" y="350" type="curve" smooth="yes"/>
      <point x="337" y="350"/>
      <point x="370" y="347"/>
      <point x="408" y="320" type="curve" smooth="yes"/>
      <point x="445" y="294"/>
      <point x="460.0" y="241.0"/>
      <point x="460.0" y="189.0" type="curve" smooth="yes"/>
      <point x="460.0" y="129.0"/>
      <point x="445" y="80"/>
      <point x="415" y="47" type="curve" smooth="yes"/>
      <point x="381" y="9"/>
      <point x="322" y="-16"/>
      <point x="245" y="-16" type="curve" smooth="yes"/>
      <point x="162" y="-16"/>
      <point x="45.0" y="47.0"/>
      <point x="45.0" y="174.0" type="curve" smooth="yes"/>
      <point x="45.0" y="240.0"/>
      <point x="95.0" y="335.0"/>
      <point x="193.0" y="341.0" type="curve"/>
      <point x="276" y="333" type="line"/>
      <point x="116" y="347"/>
      <point x="66" y="240"/>
      <point x="66" y="172" type="curve" smooth="yes"/>
      <point x="66" y="105"/>
      <point x="100" y="60"/>
      <point x="135" y="37" type="curve" smooth="yes"/>
      <point x="186" y="4"/>
      <point x="246" y="3"/>
      <point x="246" y="3" type="curve" smooth="yes"/>
      <point x="311" y="3"/>
      <point x="368" y="16"/>
      <point x="409" y="71" type="curve" smooth="yes"/>
      <point x="437" y="109"/>
      <point x="440" y="153"/>
      <point x="440" y="187" type="curve" smooth="yes"/>
      <point x="440" y="305"/>
      <point x="383" y="333"/>
      <point x="276" y="333" type="curve" smooth="yes"/>
      <point x="117" y="333"/>
      <point x="84" y="370"/>
      <point x="84.0" y="454.0" type="curve" smooth="yes"/>
      <point x="84" y="563"/>
      <point x="167" y="617"/>
    </contour>
  </outline>
</glyph>
<glyph name="nine" format="2">
  <advance width="500.0"/>
  <unicode hex="0039"/>
  <anchor x="250.0" y="0.0" name="bottom"/>
  <anchor x="262.0" y="600.0" name="top"/>
  <outline>
    <contour>
      <point x="425" y="337" type="curve" smooth="yes"/>
      <point x="424" y="267"/>
      <point x="391" y="175"/>
      <point x="239" y="29" type="curve" smooth="yes"/>
      <point x="217" y="8"/>
      <point x="206" y="0"/>
      <point x="214" y="-8" type="curve" smooth="yes"/>
      <point x="221" y="-15"/>
      <point x="226.0" y="-11.0"/>
      <point x="257.0" y="20.0" type="curve" smooth="yes"/>
      <point x="357.0" y="123.0"/>
      <point x="441.0" y="219.0"/>
      <point x="441.0" y="329.0" type="curve" smooth="yes"/>
      <point x="441.0" y="432.0"/>
      <point x="408" y="497"/>
      <point x="382" y="541" type="curve" smooth="yes"/>
      <point x="360" y="577"/>
      <point x="325" y="607"/>
      <point x="290.0" y="609.0" type="curve" smooth="yes"/>
      <point x="147" y="616"/>
      <point x="76" y="478"/>
      <point x="72.0" y="426.0" type="curve" smooth="yes"/>
      <point x="66" y="353"/>
      <point x="65" y="221"/>
      <point x="206.0" y="215.0" type="curve" smooth="yes"/>
      <point x="245" y="213"/>
      <point x="405" y="237"/>
      <point x="432" y="370" type="curve"/>
      <point x="425" y="406" type="line"/>
      <point x="409" y="262"/>
      <point x="251" y="234"/>
      <point x="212" y="234" type="curve" smooth="yes"/>
      <point x="88" y="235"/>
      <point x="85" y="357"/>
      <point x="89" y="411" type="curve" smooth="yes"/>
      <point x="97" y="523"/>
      <point x="213" y="608"/>
      <point x="297" y="591" type="curve" smooth="yes"/>
      <point x="376" y="575"/>
      <point x="427" y="410"/>
    </contour>
  </outline>
</glyph>
<glyph name="less" format="2">
  <advance width="500.0"/>
  <unicode hex="003C"/>
  <outline>
    <contour>
      <point x="56" y="300" type="curve"/>
      <point x="64" y="300"/>
      <point x="93" y="282"/>
      <point x="108" y="270" type="curve" smooth="yes"/>
      <point x="146" y="244"/>
      <point x="217" y="194"/>
      <point x="230" y="184" type="curve" smooth="yes"/>
      <point x="257" y="162"/>
      <point x="360" y="89"/>
      <point x="398" y="60" type="curve" smooth="yes"/>
      <point x="424" y="39"/>
      <point x="452" y="27"/>
      <point x="438" y="9" type="curve" smooth="yes"/>
      <point x="428" y="-4"/>
      <point x="417" y="13"/>
      <point x="399" y="26" type="curve" smooth="yes"/>
      <point x="373" y="43"/>
      <point x="252" y="134"/>
      <point x="226" y="155" type="curve" smooth="yes"/>
      <point x="218" y="161"/>
      <point x="107" y="241"/>
      <point x="66" y="271" type="curve" smooth="yes"/>
      <point x="49" y="285"/>
      <point x="34" y="288"/>
      <point x="34" y="300" type="curve" smooth="yes"/>
      <point x="34" y="312"/>
      <point x="49" y="315"/>
      <point x="66" y="329" type="curve" smooth="yes"/>
      <point x="107" y="359"/>
      <point x="218" y="439"/>
      <point x="226" y="445" type="curve" smooth="yes"/>
      <point x="252" y="466"/>
      <point x="373" y="557"/>
      <point x="399" y="574" type="curve" smooth="yes"/>
      <point x="417" y="587"/>
      <point x="428" y="604"/>
      <point x="438" y="591" type="curve" smooth="yes"/>
      <point x="452" y="573"/>
      <point x="424" y="561"/>
      <point x="398" y="540" type="curve" smooth="yes"/>
      <point x="360" y="511"/>
      <point x="257" y="439"/>
      <point x="230" y="417" type="curve" smooth="yes"/>
      <point x="217" y="407"/>
      <point x="146" y="358"/>
      <point x="109" y="331" type="curve" smooth="yes"/>
      <point x="93" y="320"/>
      <point x="64" y="300"/>
    </contour>
  </outline>
</glyph>
<glyph name="equal" format="2">
  <advance width="500.0"/>
  <unicode hex="003D"/>
  <outline>
    <contour>
      <point x="32" y="400" type="curve" smooth="yes"/>
      <point x="32" y="410"/>
      <point x="45" y="412"/>
      <point x="74" y="412" type="curve" smooth="yes"/>
      <point x="126" y="412"/>
      <point x="234" y="411"/>
      <point x="246" y="411" type="curve" smooth="yes"/>
      <point x="279" y="411"/>
      <point x="399" y="413"/>
      <point x="431" y="411" type="curve" smooth="yes"/>
      <point x="454" y="411"/>
      <point x="468" y="412"/>
      <point x="468" y="400" type="curve" smooth="yes"/>
      <point x="468" y="386"/>
      <point x="451" y="388"/>
      <point x="416" y="388" type="curve" smooth="yes"/>
      <point x="369" y="387"/>
      <point x="275" y="388"/>
      <point x="238" y="387" type="curve" smooth="yes"/>
      <point x="207" y="387"/>
      <point x="88" y="386"/>
      <point x="70" y="388" type="curve" smooth="yes"/>
      <point x="42" y="391"/>
      <point x="32" y="390"/>
    </contour>
    <contour>
      <point x="32" y="200" type="curve" smooth="yes"/>
      <point x="32" y="210"/>
      <point x="45" y="213"/>
      <point x="74" y="213" type="curve" smooth="yes"/>
      <point x="126" y="213"/>
      <point x="234" y="212"/>
      <point x="246" y="212" type="curve" smooth="yes"/>
      <point x="279" y="212"/>
      <point x="399" y="214"/>
      <point x="431" y="212" type="curve" smooth="yes"/>
      <point x="454" y="212"/>
      <point x="468" y="212"/>
      <point x="468" y="200" type="curve" smooth="yes"/>
      <point x="468" y="187"/>
      <point x="451" y="189"/>
      <point x="416" y="189" type="curve" smooth="yes"/>
      <point x="369" y="188"/>
      <point x="275" y="189"/>
      <point x="238" y="188" type="curve" smooth="yes"/>
      <point x="207" y="188"/>
      <point x="88" y="187"/>
      <point x="70" y="189" type="curve" smooth="yes"/>
      <point x="42" y="192"/>
      <point x="32" y="190"/>
    </contour>
  </outline>
</glyph>
<glyph name="question" format="2">
  <advance width="500.0"/>
  <unicode hex="003F"/>
  <outline>
    <contour>
      <point x="232" y="310" type="curve" smooth="yes"/>
      <point x="253" y="314"/>
      <point x="266" y="316"/>
      <point x="282" y="319" type="curve" smooth="yes"/>
      <point x="349" y="333"/>
      <point x="419" y="377"/>
      <point x="416" y="442" type="curve" smooth="yes"/>
      <point x="412" y="547"/>
      <point x="332" y="592"/>
      <point x="272" y="595" type="curve" smooth="yes"/>
      <point x="202" y="599"/>
      <point x="148" y="572"/>
      <point x="134" y="564" type="curve" smooth="yes"/>
      <point x="120" y="556"/>
      <point x="130" y="526"/>
      <point x="115" y="520" type="curve" smooth="yes"/>
      <point x="104" y="516"/>
      <point x="99" y="518"/>
      <point x="96" y="520" type="curve" smooth="yes"/>
      <point x="83" y="528"/>
      <point x="80" y="553"/>
      <point x="113" y="577" type="curve" smooth="yes"/>
      <point x="136" y="595"/>
      <point x="190" y="618"/>
      <point x="275" y="612" type="curve" smooth="yes"/>
      <point x="390" y="605"/>
      <point x="442" y="512"/>
      <point x="438" y="438" type="curve" smooth="yes"/>
      <point x="431" y="360"/>
      <point x="382" y="339"/>
      <point x="348" y="322" type="curve" smooth="yes"/>
      <point x="316" y="306"/>
      <point x="273" y="295"/>
      <point x="241" y="293" type="curve"/>
      <point x="241" y="271"/>
      <point x="245" y="251"/>
      <point x="246" y="236" type="curve" smooth="yes"/>
      <point x="249" y="195"/>
      <point x="276" y="154"/>
      <point x="251" y="153" type="curve" smooth="yes"/>
      <point x="237" y="152"/>
      <point x="232" y="199"/>
      <point x="228" y="223" type="curve" smooth="yes"/>
      <point x="225" y="240"/>
      <point x="223" y="263"/>
      <point x="220" y="281" type="curve" smooth="yes"/>
      <point x="216" y="304"/>
      <point x="221" y="308"/>
    </contour>
    <component base="period"/>
  </outline>
</glyph>
<glyph name="at" format="2">
  <advance width="500.0"/>
  <unicode hex="0040"/>
  <outline>
    <contour>
      <point x="350" y="180" type="curve" smooth="yes"/>
      <point x="317" y="208"/>
      <point x="304" y="320"/>
      <point x="311" y="429" type="curve"/>
      <point x="171" y="470"/>
      <point x="169" y="332"/>
      <point x="170" y="266" type="curve" smooth="yes"/>
      <point x="172" y="214"/>
      <point x="188" y="152"/>
      <point x="244" y="152" type="curve" smooth="yes"/>
      <point x="283" y="152"/>
      <point x="316" y="239"/>
      <point x="316" y="315" type="curve"/>
      <point x="324" y="255" type="line"/>
      <point x="308" y="170"/>
      <point x="279" y="133"/>
      <point x="247" y="133" type="curve" smooth="yes"/>
      <point x="213" y="133"/>
      <point x="152" y="136"/>
      <point x="153" y="280" type="curve" smooth="yes"/>
      <point x="153" y="366"/>
      <point x="166" y="421"/>
      <point x="229" y="444" type="curve" smooth="yes"/>
      <point x="274" y="460"/>
      <point x="297" y="448"/>
      <point x="317" y="445" type="curve" smooth="yes"/>
      <point x="332" y="443"/>
      <point x="331" y="432"/>
      <point x="329" y="415" type="curve" smooth="yes"/>
      <point x="325" y="372"/>
      <point x="328" y="353"/>
      <point x="331" y="306" type="curve" smooth="yes"/>
      <point x="336" y="231"/>
      <point x="353" y="183"/>
      <point x="387" y="183" type="curve" smooth="yes"/>
      <point x="406" y="183"/>
      <point x="422" y="198"/>
      <point x="431" y="254" type="curve" smooth="yes"/>
      <point x="451" y="389"/>
      <point x="435" y="598"/>
      <point x="278" y="597" type="curve" smooth="yes"/>
      <point x="119" y="596"/>
      <point x="57" y="478"/>
      <point x="60" y="285" type="curve" smooth="yes"/>
      <point x="61" y="199"/>
      <point x="65" y="118"/>
      <point x="89" y="80" type="curve" smooth="yes"/>
      <point x="137" y="4"/>
      <point x="248" y="2"/>
      <point x="285" y="6" type="curve" smooth="yes"/>
      <point x="302" y="8"/>
      <point x="343" y="21"/>
      <point x="345.0" y="11.0" type="curve" smooth="yes"/>
      <point x="348" y="-5"/>
      <point x="327.0" y="-9.0"/>
      <point x="316.0" y="-11.0" type="curve" smooth="yes"/>
      <point x="259.0" y="-19.0"/>
      <point x="135.0" y="-23.0"/>
      <point x="77.0" y="64.0" type="curve" smooth="yes"/>
      <point x="42.0" y="117.0"/>
      <point x="40.0" y="180.0"/>
      <point x="40.0" y="291.0" type="curve" smooth="yes"/>
      <point x="39.0" y="453.0"/>
      <point x="77" y="514"/>
      <point x="121" y="560" type="curve" smooth="yes"/>
      <point x="161" y="602"/>
      <point x="220" y="616"/>
      <point x="279.0" y="616.0" type="curve" smooth="yes"/>
      <point x="369" y="616"/>
      <point x="406.0" y="569.0"/>
      <point x="434.0" y="496.0" type="curve" smooth="yes"/>
      <point x="452.0" y="447.0"/>
      <point x="466.0" y="369.0"/>
      <point x="453.0" y="271.0" type="curve" smooth="yes"/>
      <point x="443.0" y="211.0"/>
      <point x="429" y="186"/>
      <point x="419" y="176" type="curve" smooth="yes"/>
      <point x="401" y="164"/>
      <point x="377" y="156"/>
    </contour>
  </outline>
</glyph>
<glyph name="A" format="2">
  <advance width="500.0"/>
  <unicode hex="0041"/>
  <anchor x="257.0" y="600.0" name="top"/>
  <anchor x="55" y="-8" name="cedilla"/>
  <anchor x="441" y="-8" name="ogonek"/>
  <anchor x="250.0" y="0.0" name="bottom"/>
  <outline>
    <contour>
      <point x="55" y="-8" type="curve" smooth="yes"/>
      <point x="44" y="-8"/>
      <point x="43" y="6"/>
      <point x="43" y="49" type="curve" smooth="yes"/>
      <point x="45" y="302"/>
      <point x="103" y="436"/>
      <point x="151" y="515" type="curve" smooth="yes"/>
      <point x="190" y="582"/>
      <point x="217" y="610"/>
      <point x="263" y="609" type="curve" smooth="yes"/>
      <point x="295" y="609"/>
      <point x="335" y="588"/>
      <point x="360" y="542" type="curve" smooth="yes"/>
      <point x="394" y="480"/>
      <point x="427" y="386"/>
      <point x="443" y="204" type="curve" smooth="yes"/>
      <point x="451" y="132"/>
      <point x="453" y="60"/>
      <point x="453" y="32" type="curve" smooth="yes"/>
      <point x="453" y="5"/>
      <point x="456" y="-9"/>
      <point x="441" y="-8" type="curve" smooth="yes"/>
      <point x="428" y="-8"/>
      <point x="428" y="-6"/>
      <point x="429" y="33" type="curve" smooth="yes"/>
      <point x="430" y="86"/>
      <point x="424" y="198"/>
      <point x="405" y="331" type="curve" smooth="yes"/>
      <point x="387" y="456"/>
      <point x="342" y="591"/>
      <point x="258" y="590" type="curve" smooth="yes"/>
      <point x="204" y="590"/>
      <point x="126" y="449"/>
      <point x="96" y="331" type="curve" smooth="yes"/>
      <point x="75" y="248"/>
      <point x="63" y="165"/>
      <point x="66" y="33" type="curve" smooth="yes"/>
      <point x="67" y="-3"/>
      <point x="67" y="-8"/>
    </contour>
    <contour>
      <point x="417" y="303" type="curve"/>
      <point x="422" y="284" type="line"/>
      <point x="329" y="284"/>
      <point x="135" y="281"/>
      <point x="74" y="284" type="curve"/>
      <point x="83" y="304" type="line"/>
      <point x="169" y="302"/>
      <point x="335" y="303"/>
    </contour>
  </outline>
</glyph>
<glyph name="B" format="2">
  <advance width="500.0"/>
  <unicode hex="0042"/>
  <anchor x="211.0" y="600.0" name="top"/>
  <anchor x="185" y="-12" name="cedilla"/>
  <anchor x="185" y="-12" name="ogonek"/>
  <anchor x="229.0" y="0.0" name="bottom"/>
  <outline>
    <contour>
      <point x="66" y="54" type="curve" smooth="yes"/>
      <point x="31" y="138"/>
      <point x="59" y="454"/>
      <point x="60" y="519" type="curve" smooth="yes"/>
      <point x="60" y="609.5992430901017"/>
      <point x="122.48034273045371" y="608"/>
      <point x="206" y="608" type="curve" smooth="yes"/>
      <point x="355" y="608"/>
      <point x="423" y="532"/>
      <point x="423" y="468" type="curve" smooth="yes"/>
      <point x="423" y="419"/>
      <point x="391" y="385"/>
      <point x="338" y="364" type="curve" smooth="yes"/>
      <point x="297" y="347"/>
      <point x="240" y="339"/>
      <point x="131" y="339" type="curve" smooth="yes"/>
      <point x="99" y="339"/>
      <point x="68" y="340"/>
      <point x="61" y="340" type="curve"/>
      <point x="61" y="361" type="line"/>
      <point x="291" y="343"/>
      <point x="401" y="390"/>
      <point x="403" y="460" type="curve" smooth="yes"/>
      <point x="405" y="542"/>
      <point x="320" y="587"/>
      <point x="200" y="590" type="curve" smooth="yes"/>
      <point x="153" y="591"/>
      <point x="84" y="593"/>
      <point x="81" y="525" type="curve" smooth="yes"/>
      <point x="75" y="394"/>
      <point x="58" y="143"/>
      <point x="83" y="72" type="curve" smooth="yes"/>
      <point x="103" y="16"/>
      <point x="150" y="7"/>
      <point x="206" y="7" type="curve" smooth="yes"/>
      <point x="304" y="7"/>
      <point x="425" y="53"/>
      <point x="430" y="179" type="curve" smooth="yes"/>
      <point x="433" y="266"/>
      <point x="322" y="361"/>
      <point x="268" y="356" type="curve"/>
      <point x="308" y="364" type="line"/>
      <point x="385" y="342"/>
      <point x="450" y="248"/>
      <point x="450" y="181" type="curve" smooth="yes"/>
      <point x="450" y="22"/>
      <point x="292" y="-14"/>
      <point x="185" y="-12" type="curve" smooth="yes"/>
      <point x="98" y="-10"/>
      <point x="75" y="32"/>
    </contour>
  </outline>
</glyph>
<glyph name="C" format="2">
  <advance width="500.0"/>
  <unicode hex="0043"/>
  <anchor x="266.0" y="600.0" name="top"/>
  <anchor x="266" y="-11" name="cedilla"/>
  <anchor x="266" y="-11" name="ogonek"/>
  <anchor x="250" y="0" name="bottom"/>
  <outline>
    <contour>
      <point x="458" y="439" type="curve" smooth="yes"/>
      <point x="446" y="438"/>
      <point x="447" y="447"/>
      <point x="442" y="477" type="curve" smooth="yes"/>
      <point x="430" y="541"/>
      <point x="376" y="587"/>
      <point x="260" y="590" type="curve" smooth="yes"/>
      <point x="178" y="592"/>
      <point x="66" y="548"/>
      <point x="67" y="284" type="curve" smooth="yes"/>
      <point x="68" y="53"/>
      <point x="184" y="14"/>
      <point x="244" y="11" type="curve" smooth="yes"/>
      <point x="363" y="5"/>
      <point x="408" y="66"/>
      <point x="424" y="95" type="curve" smooth="yes"/>
      <point x="445" y="132"/>
      <point x="442" y="148"/>
      <point x="452" y="150" type="curve" smooth="yes"/>
      <point x="462" y="152"/>
      <point x="463" y="144"/>
      <point x="459" y="125" type="curve" smooth="yes"/>
      <point x="449" y="76"/>
      <point x="385" y="-11"/>
      <point x="266" y="-11" type="curve" smooth="yes"/>
      <point x="129" y="-11"/>
      <point x="47" y="78"/>
      <point x="47" y="282" type="curve" smooth="yes"/>
      <point x="47" y="436"/>
      <point x="82" y="611"/>
      <point x="265" y="611" type="curve" smooth="yes"/>
      <point x="448" y="611"/>
      <point x="464" y="478"/>
      <point x="464" y="459" type="curve" smooth="yes"/>
      <point x="464" y="450"/>
      <point x="468" y="440"/>
    </contour>
  </outline>
</glyph>
<glyph name="D" format="2">
  <advance width="500.0"/>
  <unicode hex="0044"/>
  <anchor x="176.0" y="600.0" name="top"/>
  <anchor x="162" y="-8" name="cedilla"/>
  <anchor x="162" y="-8" name="ogonek"/>
  <anchor x="180" y="0" name="bottom"/>
  <outline>
    <contour>
      <point x="82" y="4" type="curve" smooth="yes"/>
      <point x="61" y="11"/>
      <point x="47" y="31"/>
      <point x="50" y="71" type="curve" smooth="yes"/>
      <point x="54" y="111"/>
      <point x="55" y="216"/>
      <point x="52" y="319" type="curve" smooth="yes"/>
      <point x="50" y="393"/>
      <point x="49" y="484"/>
      <point x="47" y="530" type="curve" smooth="yes"/>
      <point x="43" y="575"/>
      <point x="53" y="587"/>
      <point x="68" y="593" type="curve" smooth="yes"/>
      <point x="87" y="600"/>
      <point x="124" y="609"/>
      <point x="184" y="609" type="curve" smooth="yes"/>
      <point x="377" y="609"/>
      <point x="456" y="447"/>
      <point x="456" y="313" type="curve" smooth="yes"/>
      <point x="457" y="133"/>
      <point x="343" y="-9"/>
      <point x="162" y="-8" type="curve" smooth="yes"/>
      <point x="135" y="-8"/>
      <point x="109" y="-5"/>
    </contour>
    <contour>
      <point x="90" y="22" type="curve" smooth="yes"/>
      <point x="100" y="17"/>
      <point x="119" y="13"/>
      <point x="136" y="12" type="curve" smooth="yes"/>
      <point x="352" y="-5"/>
      <point x="435" y="169"/>
      <point x="435" y="317" type="curve" smooth="yes"/>
      <point x="435" y="463"/>
      <point x="338" y="590"/>
      <point x="176" y="590" type="curve" smooth="yes"/>
      <point x="146.53014318254395" y="590"/>
      <point x="110" y="586"/>
      <point x="73" y="575" type="curve" smooth="yes"/>
      <point x="69" y="574"/>
      <point x="64" y="568"/>
      <point x="64" y="552" type="curve" smooth="yes"/>
      <point x="66" y="481"/>
      <point x="70" y="368"/>
      <point x="73" y="269" type="curve" smooth="yes"/>
      <point x="78" y="53"/>
      <point x="52" y="42"/>
    </contour>
  </outline>
</glyph>
<glyph name="E" format="2">
  <advance width="500.0"/>
  <unicode hex="0045"/>
  <anchor x="250.0" y="600.0" name="top"/>
  <anchor x="250" y="3" name="cedilla"/>
  <anchor x="398" y="2" name="ogonek"/>
  <anchor x="250.0" y="0.0" name="bottom"/>
  <outline>
    <contour>
      <point x="77" y="600" type="curve" smooth="yes"/>
      <point x="111" y="610"/>
      <point x="199" y="599"/>
      <point x="281" y="598" type="curve" smooth="yes"/>
      <point x="407" y="597"/>
      <point x="413" y="596"/>
      <point x="435" y="597" type="curve" smooth="yes"/>
      <point x="461" y="598"/>
      <point x="463" y="599"/>
      <point x="465" y="592" type="curve" smooth="yes"/>
      <point x="470" y="572"/>
      <point x="454" y="577"/>
      <point x="405" y="576" type="curve" smooth="yes"/>
      <point x="296" y="574"/>
      <point x="107" y="596"/>
      <point x="76" y="578" type="curve"/>
      <point x="63" y="570"/>
      <point x="68" y="36"/>
      <point x="77" y="24" type="curve"/>
      <point x="90" y="16"/>
      <point x="305.5133685207233" y="29.019791637893405"/>
      <point x="419" y="22" type="curve" smooth="yes"/>
      <point x="462" y="20"/>
      <point x="483" y="33"/>
      <point x="478" y="8" type="curve" smooth="yes"/>
      <point x="476" y="1"/>
      <point x="462" y="1"/>
      <point x="438" y="0" type="curve" smooth="yes"/>
      <point x="415" y="-1"/>
      <point x="414" y="3"/>
      <point x="288" y="3" type="curve" smooth="yes"/>
      <point x="220" y="3"/>
      <point x="151" y="-2"/>
      <point x="83" y="-2" type="curve" smooth="yes"/>
      <point x="57" y="-2"/>
      <point x="50" y="33"/>
      <point x="50" y="71" type="curve" smooth="yes"/>
      <point x="50" y="113"/>
      <point x="51" y="228"/>
      <point x="51" y="345" type="curve" smooth="yes"/>
      <point x="51" y="524"/>
      <point x="49" y="527"/>
      <point x="52" y="558" type="curve" smooth="yes"/>
      <point x="54.16167973003596" y="574.2125979752697"/>
      <point x="59" y="595"/>
    </contour>
    <contour>
      <point x="335" y="340" type="curve" smooth="yes"/>
      <point x="338" y="324"/>
      <point x="322" y="327"/>
      <point x="297" y="327" type="curve" smooth="yes"/>
      <point x="187" y="328"/>
      <point x="131" y="332"/>
      <point x="61" y="331" type="curve"/>
      <point x="61" y="349" type="line"/>
      <point x="70" y="352"/>
      <point x="133" y="349"/>
      <point x="182" y="348" type="curve" smooth="yes"/>
      <point x="260" y="346"/>
      <point x="275" y="347"/>
      <point x="298" y="347" type="curve" smooth="yes"/>
      <point x="326" y="347"/>
      <point x="333" y="354"/>
    </contour>
  </outline>
</glyph>
<glyph name="F" format="2">
  <advance width="500.0"/>
  <unicode hex="0046"/>
  <anchor x="250.0" y="600.0" name="top"/>
  <anchor x="65" y="-6" name="cedilla"/>
  <anchor x="65" y="-6" name="ogonek"/>
  <anchor x="250.0" y="0.0" name="bottom"/>
  <outline>
    <contour>
      <point x="79" y="599" type="curve" smooth="yes"/>
      <point x="100" y="604"/>
      <point x="201" y="598"/>
      <point x="284" y="599" type="curve" smooth="yes"/>
      <point x="410" y="601"/>
      <point x="408" y="600"/>
      <point x="430" y="600" type="curve" smooth="yes"/>
      <point x="457" y="600"/>
      <point x="464" y="599"/>
      <point x="464" y="592" type="curve" smooth="yes"/>
      <point x="465" y="579"/>
      <point x="454" y="582"/>
      <point x="426" y="581" type="curve" smooth="yes"/>
      <point x="317" y="575"/>
      <point x="93" y="591"/>
      <point x="74" y="576" type="curve"/>
      <point x="66" y="565"/>
      <point x="71" y="189.35405968778167"/>
      <point x="71" y="66" type="curve" smooth="yes"/>
      <point x="71" y="22"/>
      <point x="87" y="-6"/>
      <point x="65" y="-6" type="curve" smooth="yes"/>
      <point x="50" y="-6"/>
      <point x="51" y="27"/>
      <point x="51" y="65" type="curve" smooth="yes"/>
      <point x="51" y="107"/>
      <point x="52" y="228"/>
      <point x="52" y="346" type="curve" smooth="yes"/>
      <point x="52" y="524"/>
      <point x="50" y="526"/>
      <point x="53" y="557" type="curve" smooth="yes"/>
      <point x="55.22611275712389" y="575.921958435553"/>
      <point x="58" y="594"/>
    </contour>
    <contour>
      <point x="388" y="303" type="curve" smooth="yes"/>
      <point x="388" y="288"/>
      <point x="370" y="292"/>
      <point x="341" y="291" type="curve" smooth="yes"/>
      <point x="276" y="285"/>
      <point x="134" y="291"/>
      <point x="64" y="290" type="curve"/>
      <point x="64" y="309" type="line"/>
      <point x="74" y="312"/>
      <point x="153" y="310"/>
      <point x="201" y="309" type="curve" smooth="yes"/>
      <point x="300" y="307"/>
      <point x="341" y="309"/>
      <point x="353" y="310" type="curve" smooth="yes"/>
      <point x="381" y="312"/>
      <point x="388" y="310"/>
    </contour>
  </outline>
</glyph>
<glyph name="G" format="2">
  <advance width="500.0"/>
  <unicode hex="0047"/>
  <anchor x="284.0" y="600.0" name="top"/>
  <anchor x="273" y="-6" name="cedilla"/>
  <anchor x="273" y="-6" name="ogonek"/>
  <anchor x="273.0" y="0.0" name="bottom"/>
  <outline>
    <contour>
      <point x="441" y="472" type="curve" smooth="yes"/>
      <point x="428" y="472"/>
      <point x="438" y="499"/>
      <point x="414" y="534" type="curve" smooth="yes"/>
      <point x="387" y="573"/>
      <point x="351" y="591"/>
      <point x="289" y="591" type="curve" smooth="yes"/>
      <point x="168" y="592"/>
      <point x="60" y="481"/>
      <point x="60" y="325" type="curve" smooth="yes"/>
      <point x="60" y="124"/>
      <point x="111" y="10"/>
      <point x="269" y="10" type="curve" smooth="yes"/>
      <point x="430" y="10"/>
      <point x="433" y="180"/>
      <point x="433" y="298" type="curve"/>
      <point x="368" y="297"/>
      <point x="293" y="299"/>
      <point x="265" y="299" type="curve" smooth="yes"/>
      <point x="255" y="299"/>
      <point x="242" y="301"/>
      <point x="243" y="310" type="curve" smooth="yes"/>
      <point x="244" y="318"/>
      <point x="250" y="318"/>
      <point x="279" y="316" type="curve" smooth="yes"/>
      <point x="305" y="314"/>
      <point x="362" y="315"/>
      <point x="424" y="314" type="curve" smooth="yes"/>
      <point x="452" y="314"/>
      <point x="452" y="316"/>
      <point x="452" y="274" type="curve" smooth="yes"/>
      <point x="452" y="90"/>
      <point x="394" y="-6"/>
      <point x="273" y="-6" type="curve" smooth="yes"/>
      <point x="119" y="-6"/>
      <point x="43" y="73"/>
      <point x="43" y="316" type="curve" smooth="yes"/>
      <point x="43" y="504"/>
      <point x="173" y="608"/>
      <point x="286" y="608" type="curve" smooth="yes"/>
      <point x="416" y="608"/>
      <point x="442" y="523"/>
      <point x="446" y="506" type="curve" smooth="yes"/>
      <point x="451" y="488"/>
      <point x="448" y="472"/>
    </contour>
  </outline>
</glyph>
<glyph name="H" format="2">
  <advance width="500.0"/>
  <unicode hex="0048"/>
  <anchor x="250.0" y="600.0" name="top"/>
  <anchor x="60" y="-9" name="cedilla"/>
  <anchor x="443" y="-7" name="ogonek"/>
  <anchor x="250.0" y="0.0" name="bottom"/>
  <outline>
    <contour>
      <point x="66" y="296" type="curve"/>
      <point x="65" y="314" type="line"/>
      <point x="160" y="313"/>
      <point x="348" y="316"/>
      <point x="437" y="314" type="curve"/>
      <point x="437" y="296" type="line"/>
      <point x="344" y="299"/>
      <point x="162" y="296"/>
    </contour>
    <contour>
      <point x="58" y="605" type="curve" smooth="yes"/>
      <point x="72" y="609"/>
      <point x="69" y="580"/>
      <point x="68" y="558" type="curve" smooth="yes"/>
      <point x="68" y="541"/>
      <point x="68" y="364"/>
      <point x="69" y="276" type="curve" smooth="yes"/>
      <point x="69" y="222"/>
      <point x="69" y="97"/>
      <point x="69" y="55" type="curve" smooth="yes"/>
      <point x="69" y="14"/>
      <point x="72" y="-8"/>
      <point x="60" y="-9" type="curve" smooth="yes"/>
      <point x="51" y="-9"/>
      <point x="48" y="7"/>
      <point x="50" y="48" type="curve" smooth="yes"/>
      <point x="52" y="89"/>
      <point x="54" y="193"/>
      <point x="52" y="312" type="curve" smooth="yes"/>
      <point x="50" y="477"/>
      <point x="50" y="523"/>
      <point x="50" y="563" type="curve" smooth="yes"/>
      <point x="50" y="595"/>
      <point x="49" y="603"/>
    </contour>
    <contour>
      <point x="443" y="607" type="curve" smooth="yes"/>
      <point x="454" y="607"/>
      <point x="451" y="596"/>
      <point x="450" y="563" type="curve" smooth="yes"/>
      <point x="449" y="532"/>
      <point x="449" y="498"/>
      <point x="449" y="346" type="curve" smooth="yes"/>
      <point x="449" y="237"/>
      <point x="450" y="91"/>
      <point x="450" y="50" type="curve" smooth="yes"/>
      <point x="450" y="9"/>
      <point x="450" y="-6"/>
      <point x="443" y="-7" type="curve" smooth="yes"/>
      <point x="427" y="-8"/>
      <point x="432" y="10"/>
      <point x="433" y="56" type="curve" smooth="yes"/>
      <point x="433" y="62"/>
      <point x="434" y="222"/>
      <point x="433" y="276" type="curve" smooth="yes"/>
      <point x="430" y="377"/>
      <point x="434" y="541"/>
      <point x="434" y="558" type="curve" smooth="yes"/>
      <point x="433" y="580"/>
      <point x="434" y="607"/>
    </contour>
  </outline>
</glyph>
<glyph name="I" format="2">
  <advance width="500.0"/>
  <unicode hex="0049"/>
  <anchor x="250.0" y="600.0" name="top"/>
  <anchor x="250.0" y="0.0" name="cedilla"/>
  <anchor x="250.0" y="0.0" name="ogonek"/>
  <anchor x="250.0" y="0.0" name="bottom"/>
  <outline>
    <contour>
      <point x="258" y="587" type="line"/>
      <point x="258" y="466"/>
      <point x="258" y="483"/>
      <point x="258" y="312" type="curve" smooth="yes"/>
      <point x="258" y="232"/>
      <point x="259" y="103"/>
      <point x="259" y="13" type="curve"/>
      <point x="240" y="13" type="line"/>
      <point x="240" y="29"/>
      <point x="240" y="252"/>
      <point x="241" y="291" type="curve" smooth="yes"/>
      <point x="241" y="268"/>
      <point x="241" y="527"/>
      <point x="240" y="587" type="curve"/>
    </contour>
    <contour>
      <point x="76" y="590" type="curve" smooth="yes"/>
      <point x="76" y="600"/>
      <point x="86" y="600"/>
      <point x="96" y="600" type="curve" smooth="yes"/>
      <point x="168" y="601"/>
      <point x="212" y="600"/>
      <point x="235" y="600" type="curve" smooth="yes"/>
      <point x="289" y="600"/>
      <point x="331" y="601"/>
      <point x="405" y="600" type="curve" smooth="yes"/>
      <point x="409" y="600"/>
      <point x="424" y="599"/>
      <point x="424" y="593" type="curve" smooth="yes"/>
      <point x="424" y="579"/>
      <point x="407" y="581"/>
      <point x="395" y="581" type="curve" smooth="yes"/>
      <point x="327" y="581"/>
      <point x="275" y="582"/>
      <point x="238" y="581" type="curve" smooth="yes"/>
      <point x="198" y="581"/>
      <point x="134" y="581"/>
      <point x="96" y="582" type="curve" smooth="yes"/>
      <point x="83" y="583"/>
      <point x="76" y="581"/>
    </contour>
    <contour>
      <point x="76" y="10" type="curve" smooth="yes"/>
      <point x="76" y="18"/>
      <point x="84" y="18"/>
      <point x="90" y="18" type="curve" smooth="yes"/>
      <point x="146" y="19"/>
      <point x="198" y="19"/>
      <point x="238" y="20" type="curve" smooth="yes"/>
      <point x="275" y="20"/>
      <point x="327" y="19"/>
      <point x="405" y="19" type="curve" smooth="yes"/>
      <point x="411" y="19"/>
      <point x="424" y="18"/>
      <point x="424" y="11" type="curve" smooth="yes"/>
      <point x="424" y="4"/>
      <point x="421" y="0"/>
      <point x="414" y="0" type="curve" smooth="yes"/>
      <point x="330" y="0"/>
      <point x="289" y="0"/>
      <point x="235" y="-1" type="curve" smooth="yes"/>
      <point x="212" y="-1"/>
      <point x="168" y="0"/>
      <point x="86" y="0" type="curve" smooth="yes"/>
      <point x="80" y="0"/>
      <point x="76" y="2"/>
    </contour>
  </outline>
</glyph>
<glyph name="J" format="2">
  <advance width="500.0"/>
  <unicode hex="004A"/>
  <anchor x="317.0" y="600.0" name="top"/>
  <anchor x="243" y="-11" name="cedilla"/>
  <anchor x="243" y="-11" name="ogonek"/>
  <anchor x="245.0" y="0.0" name="bottom"/>
  <outline>
    <contour>
      <point x="195" y="593" type="curve" smooth="yes"/>
      <point x="196" y="598"/>
      <point x="206" y="601"/>
      <point x="236" y="601" type="curve" smooth="yes"/>
      <point x="245" y="601"/>
      <point x="289" y="599"/>
      <point x="301" y="600" type="curve" smooth="yes"/>
      <point x="361" y="601"/>
      <point x="396" y="604"/>
      <point x="435" y="601" type="curve" smooth="yes"/>
      <point x="435" y="601"/>
      <point x="450" y="595"/>
      <point x="449" y="587" type="curve" smooth="yes"/>
      <point x="442" y="490"/>
      <point x="446" y="443"/>
      <point x="449" y="254" type="curve" smooth="yes"/>
      <point x="451" y="86"/>
      <point x="359" y="-11"/>
      <point x="243" y="-11" type="curve" smooth="yes"/>
      <point x="135" y="-11"/>
      <point x="79" y="29"/>
      <point x="45" y="93" type="curve" smooth="yes"/>
      <point x="36" y="111"/>
      <point x="36" y="124"/>
      <point x="44" y="126" type="curve" smooth="yes"/>
      <point x="55" y="129"/>
      <point x="54" y="109"/>
      <point x="75" y="79" type="curve" smooth="yes"/>
      <point x="98" y="47"/>
      <point x="140" y="8"/>
      <point x="243" y="8" type="curve" smooth="yes"/>
      <point x="349" y="8"/>
      <point x="424" y="112"/>
      <point x="429" y="210" type="curve" smooth="yes"/>
      <point x="433" y="284"/>
      <point x="430" y="329"/>
      <point x="429" y="365" type="curve" smooth="yes"/>
      <point x="427" y="464"/>
      <point x="428" y="455"/>
      <point x="431" y="584" type="curve"/>
      <point x="413" y="587"/>
      <point x="287" y="585"/>
      <point x="235" y="584" type="curve" smooth="yes"/>
      <point x="202" y="584"/>
      <point x="195" y="585"/>
    </contour>
  </outline>
</glyph>
<glyph name="K" format="2">
  <advance width="500.0"/>
  <unicode hex="004B"/>
  <anchor x="250.0" y="600.0" name="top"/>
  <anchor x="64" y="-7" name="cedilla"/>
  <anchor x="453" y="-4" name="ogonek"/>
  <anchor x="233.0" y="0.0" name="bottom"/>
  <outline>
    <contour>
      <point x="67" y="607" type="curve" smooth="yes"/>
      <point x="81" y="611"/>
      <point x="76" y="604"/>
      <point x="75" y="564" type="curve" smooth="yes"/>
      <point x="71" y="401"/>
      <point x="76" y="233"/>
      <point x="73" y="57" type="curve" smooth="yes"/>
      <point x="72" y="-4"/>
      <point x="76" y="-9"/>
      <point x="64" y="-7" type="curve" smooth="yes"/>
      <point x="54" y="-5"/>
      <point x="52" y="20"/>
      <point x="54" y="58" type="curve" smooth="yes"/>
      <point x="55" y="121"/>
      <point x="55" y="238"/>
      <point x="55" y="345" type="curve" smooth="yes"/>
      <point x="55" y="430"/>
      <point x="55" y="516"/>
      <point x="58" y="578" type="curve" smooth="yes"/>
      <point x="59" y="596"/>
      <point x="61" y="605"/>
    </contour>
    <contour>
      <point x="444" y="603" type="curve" smooth="yes"/>
      <point x="449" y="595"/>
      <point x="443" y="595"/>
      <point x="419" y="568" type="curve" smooth="yes"/>
      <point x="316" y="456"/>
      <point x="265" y="408"/>
      <point x="220" y="367" type="curve" smooth="yes"/>
      <point x="197" y="347"/>
      <point x="177" y="334"/>
      <point x="68" y="238" type="curve"/>
      <point x="67" y="259" type="line"/>
      <point x="105" y="295"/>
      <point x="181" y="357"/>
      <point x="238" y="409" type="curve" smooth="yes"/>
      <point x="348" y="509"/>
      <point x="404" y="579"/>
      <point x="422" y="595" type="curve" smooth="yes"/>
      <point x="435" y="608"/>
      <point x="440" y="609"/>
    </contour>
    <contour>
      <point x="468" y="3" type="curve" smooth="yes"/>
      <point x="465" y="-3"/>
      <point x="458" y="-4"/>
      <point x="453" y="-4" type="curve" smooth="yes"/>
      <point x="446" y="-4"/>
      <point x="438" y="-1"/>
      <point x="415" y="23" type="curve" smooth="yes"/>
      <point x="400" y="39"/>
      <point x="366" y="87"/>
      <point x="327" y="149" type="curve" smooth="yes"/>
      <point x="312" y="173"/>
      <point x="277" y="232"/>
      <point x="199" y="359" type="curve"/>
      <point x="212" y="371" type="line"/>
      <point x="267" y="280"/>
      <point x="321" y="193"/>
      <point x="373" y="111" type="curve" smooth="yes"/>
      <point x="394" y="80"/>
      <point x="435" y="18"/>
      <point x="454" y="14" type="curve" smooth="yes"/>
      <point x="468" y="11"/>
      <point x="470" y="7"/>
    </contour>
  </outline>
</glyph>
<glyph name="L" format="2">
  <advance width="500.0"/>
  <unicode hex="004C"/>
  <anchor x="200.0" y="600.0" name="top"/>
  <anchor x="250" y="-1" name="cedilla"/>
  <anchor x="314" y="-1" name="ogonek"/>
  <anchor x="250.0" y="0.0" name="bottom"/>
  <outline>
    <contour>
      <point x="52" y="599" type="curve" smooth="yes"/>
      <point x="68" y="606"/>
      <point x="67" y="578"/>
      <point x="67" y="558" type="curve" smooth="yes"/>
      <point x="69" y="507"/>
      <point x="68" y="443"/>
      <point x="68" y="375" type="curve" smooth="yes"/>
      <point x="68" y="264"/>
      <point x="70" y="173"/>
      <point x="67" y="16" type="curve"/>
      <point x="86" y="19"/>
      <point x="173" y="19"/>
      <point x="249" y="19" type="curve" smooth="yes"/>
      <point x="304" y="18"/>
      <point x="348" y="21"/>
      <point x="421" y="18" type="curve" smooth="yes"/>
      <point x="449" y="18"/>
      <point x="459" y="28"/>
      <point x="462" y="10" type="curve" smooth="yes"/>
      <point x="463" y="2"/>
      <point x="456" y="0"/>
      <point x="432" y="-2" type="curve" smooth="yes"/>
      <point x="421" y="-3"/>
      <point x="413" y="-3"/>
      <point x="391" y="-2" type="curve" smooth="yes"/>
      <point x="379" y="-2"/>
      <point x="373" y="-1"/>
      <point x="250" y="-1" type="curve" smooth="yes"/>
      <point x="168" y="-1"/>
      <point x="75" y="-4"/>
      <point x="62" y="-4" type="curve" smooth="yes"/>
      <point x="51" y="-4"/>
      <point x="48" y="13"/>
      <point x="48" y="31" type="curve" smooth="yes"/>
      <point x="48" y="51"/>
      <point x="50" y="220"/>
      <point x="50" y="337" type="curve" smooth="yes"/>
      <point x="50" y="405"/>
      <point x="51" y="472"/>
      <point x="49" y="557" type="curve" smooth="yes"/>
      <point x="49" y="587"/>
      <point x="48" y="597"/>
    </contour>
  </outline>
</glyph>
<glyph name="M" format="2">
  <advance width="500.0"/>
  <unicode hex="004D"/>
  <anchor x="250.0" y="600.0" name="top"/>
  <anchor x="64" y="-6" name="cedilla"/>
  <anchor x="439" y="-6" name="ogonek"/>
  <anchor x="250.0" y="0.0" name="bottom"/>
  <outline>
    <contour>
      <point x="433" y="604" type="curve" smooth="yes"/>
      <point x="453" y="604"/>
      <point x="452" y="590"/>
      <point x="452" y="560" type="curve" smooth="yes"/>
      <point x="452" y="540"/>
      <point x="452" y="532"/>
      <point x="451.9603271484375" y="485.9678955078125" type="curve" smooth="yes"/>
      <point x="451" y="457"/>
      <point x="451" y="413.5413818359375"/>
      <point x="451" y="346" type="curve" smooth="yes"/>
      <point x="451" y="310.25128173828125"/>
      <point x="450.63433837890625" y="275.31976318359375"/>
      <point x="450.28997802734375" y="241.5169677734375" type="curve" smooth="yes"/>
      <point x="450" y="171"/>
      <point x="451" y="91"/>
      <point x="450" y="50" type="curve" smooth="yes"/>
      <point x="449" y="2"/>
      <point x="454" y="-6"/>
      <point x="439" y="-6" type="curve" smooth="yes"/>
      <point x="429" y="-6"/>
      <point x="428" y="6"/>
      <point x="430" y="58" type="curve" smooth="yes"/>
      <point x="430" y="68"/>
      <point x="432" y="176"/>
      <point x="431" y="250" type="curve" smooth="yes"/>
      <point x="430" y="303"/>
      <point x="437" y="569"/>
      <point x="431" y="586" type="curve"/>
      <point x="423" y="567"/>
      <point x="386" y="501"/>
      <point x="370" y="470" type="curve" smooth="yes"/>
      <point x="338" y="410"/>
      <point x="318" y="374"/>
      <point x="308" y="355" type="curve" smooth="yes"/>
      <point x="288" y="316"/>
      <point x="268" y="294"/>
      <point x="250" y="294" type="curve" smooth="yes"/>
      <point x="232" y="294"/>
      <point x="212" y="312"/>
      <point x="191" y="353" type="curve" smooth="yes"/>
      <point x="177" y="379"/>
      <point x="152" y="431"/>
      <point x="141" y="450" type="curve" smooth="yes"/>
      <point x="110" y="507"/>
      <point x="85" y="558"/>
      <point x="67" y="587" type="curve"/>
      <point x="64" y="562"/>
      <point x="64" y="346"/>
      <point x="66" y="276" type="curve" smooth="yes"/>
      <point x="67" y="222"/>
      <point x="67" y="112"/>
      <point x="69" y="57" type="curve" smooth="yes"/>
      <point x="71" y="10"/>
      <point x="74" y="-6"/>
      <point x="64" y="-6" type="curve" smooth="yes"/>
      <point x="48" y="-6"/>
      <point x="50" y="5"/>
      <point x="50" y="50" type="curve" smooth="yes"/>
      <point x="50" y="78"/>
      <point x="50" y="164"/>
      <point x="49.71001434326172" y="241.5169677734375" type="curve" smooth="yes"/>
      <point x="49.36564636230469" y="275.31976318359375"/>
      <point x="49" y="311"/>
      <point x="49" y="346" type="curve" smooth="yes"/>
      <point x="49" y="414"/>
      <point x="48.42662811279297" y="456.77264404296875"/>
      <point x="48.0396728515625" y="485.96795654296875" type="curve" smooth="yes"/>
      <point x="48.404579162597656" y="533.4814453125"/>
      <point x="47" y="545"/>
      <point x="48" y="564" type="curve" smooth="yes"/>
      <point x="49" y="590"/>
      <point x="48" y="607"/>
      <point x="67" y="607" type="curve" smooth="yes"/>
      <point x="84" y="607"/>
      <point x="92" y="585"/>
      <point x="104" y="563" type="curve" smooth="yes"/>
      <point x="118" y="537"/>
      <point x="123" y="525"/>
      <point x="164" y="448" type="curve" smooth="yes"/>
      <point x="194" y="392"/>
      <point x="224" y="317"/>
      <point x="249" y="316" type="curve"/>
      <point x="272" y="316"/>
      <point x="302" y="388"/>
      <point x="340" y="458" type="curve" smooth="yes"/>
      <point x="380" y="532"/>
      <point x="386" y="540"/>
      <point x="399" y="563" type="curve" smooth="yes"/>
      <point x="410" y="583"/>
      <point x="415" y="604"/>
    </contour>
  </outline>
</glyph>
<glyph name="N" format="2">
  <advance width="500.0"/>
  <unicode hex="004E"/>
  <anchor x="250.0" y="600.0" name="top"/>
  <anchor x="58" y="-8" name="cedilla"/>
  <anchor x="444" y="-5" name="ogonek"/>
  <anchor x="250.0" y="0.0" name="bottom"/>
  <outline>
    <contour>
      <point x="438" y="607" type="curve" smooth="yes"/>
      <point x="441" y="607"/>
      <point x="450" y="610"/>
      <point x="450" y="579" type="curve" smooth="yes"/>
      <point x="448" y="463"/>
      <point x="449" y="445"/>
      <point x="448" y="304" type="curve" smooth="yes"/>
      <point x="448" y="263"/>
      <point x="450" y="176"/>
      <point x="453" y="23" type="curve" smooth="yes"/>
      <point x="453" y="9"/>
      <point x="455" y="-5"/>
      <point x="444" y="-5" type="curve" smooth="yes"/>
      <point x="433" y="-5"/>
      <point x="432" y="4"/>
      <point x="431" y="57" type="curve" smooth="yes"/>
      <point x="428" y="188"/>
      <point x="340" y="301"/>
      <point x="266" y="396" type="curve" smooth="yes"/>
      <point x="229" y="444"/>
      <point x="99" y="578"/>
      <point x="69" y="585" type="curve"/>
      <point x="62" y="366"/>
      <point x="72" y="175"/>
      <point x="70" y="41" type="curve" smooth="yes"/>
      <point x="70" y="-2"/>
      <point x="73" y="-8"/>
      <point x="58" y="-8" type="curve" smooth="yes"/>
      <point x="48" y="-8"/>
      <point x="48" y="-2"/>
      <point x="49" y="35" type="curve" smooth="yes"/>
      <point x="52" y="178"/>
      <point x="49" y="419"/>
      <point x="49" y="553" type="curve" smooth="yes"/>
      <point x="49" y="596"/>
      <point x="51" y="600"/>
      <point x="58" y="603" type="curve" smooth="yes"/>
      <point x="67" y="606"/>
      <point x="92" y="596"/>
      <point x="106" y="586" type="curve" smooth="yes"/>
      <point x="216" y="503"/>
      <point x="431" y="240"/>
      <point x="433" y="142" type="curve"/>
      <point x="428" y="213"/>
      <point x="429" y="285"/>
      <point x="429" y="308" type="curve" smooth="yes"/>
      <point x="428" y="491"/>
      <point x="429" y="471"/>
      <point x="429" y="576" type="curve" smooth="yes"/>
      <point x="429" y="606"/>
      <point x="430" y="607"/>
    </contour>
  </outline>
</glyph>
<glyph name="O" format="2">
  <advance width="500.0"/>
  <unicode hex="004F"/>
  <anchor x="250.0" y="600.0" name="top"/>
  <anchor x="250" y="-13" name="cedilla"/>
  <anchor x="250" y="-13" name="ogonek"/>
  <anchor x="250" y="0" name="bottom"/>
  <anchor x="400" y="535" name="horn"/>
  <outline>
    <contour>
      <point x="250" y="613" type="curve" smooth="yes"/>
      <point x="340" y="613"/>
      <point x="384" y="581"/>
      <point x="416" y="513" type="curve" smooth="yes"/>
      <point x="438" y="466"/>
      <point x="454" y="400"/>
      <point x="454.0" y="301.0" type="curve" smooth="yes"/>
      <point x="454" y="207"/>
      <point x="447" y="138"/>
      <point x="424" y="90" type="curve" smooth="yes"/>
      <point x="388" y="14"/>
      <point x="342" y="-13"/>
      <point x="250" y="-13" type="curve" smooth="yes"/>
      <point x="173" y="-13"/>
      <point x="139" y="9"/>
      <point x="99" y="58" type="curve" smooth="yes"/>
      <point x="59" y="107"/>
      <point x="46" y="190"/>
      <point x="46.0" y="301.0" type="curve" smooth="yes"/>
      <point x="46" y="418"/>
      <point x="73" y="492"/>
      <point x="107" y="546" type="curve" smooth="yes"/>
      <point x="135" y="591"/>
      <point x="177" y="613"/>
    </contour>
    <contour>
      <point x="250" y="596" type="curve" smooth="yes"/>
      <point x="178" y="596"/>
      <point x="140" y="571"/>
      <point x="115" y="523" type="curve" smooth="yes"/>
      <point x="90" y="474"/>
      <point x="66" y="406"/>
      <point x="66" y="300" type="curve" smooth="yes"/>
      <point x="66" y="182"/>
      <point x="80" y="121"/>
      <point x="113" y="77" type="curve" smooth="yes"/>
      <point x="140" y="42"/>
      <point x="171" y="10"/>
      <point x="250" y="10" type="curve" smooth="yes"/>
      <point x="337" y="10"/>
      <point x="372" y="34"/>
      <point x="402" y="101" type="curve" smooth="yes"/>
      <point x="427" y="153"/>
      <point x="434" y="203"/>
      <point x="434" y="301" type="curve" smooth="yes"/>
      <point x="434" y="404"/>
      <point x="416" y="475"/>
      <point x="393" y="518" type="curve" smooth="yes"/>
      <point x="365" y="572"/>
      <point x="328" y="596"/>
    </contour>
  </outline>
</glyph>
<glyph name="P" format="2">
  <advance width="500.0"/>
  <unicode hex="0050"/>
  <anchor x="200.0" y="600.0" name="top"/>
  <anchor x="62" y="-8" name="cedilla"/>
  <anchor x="62" y="-8" name="ogonek"/>
  <anchor x="210.0" y="0.0" name="bottom"/>
  <outline>
    <contour>
      <point x="54" y="561" type="curve" smooth="yes"/>
      <point x="56" y="579"/>
      <point x="73" y="608"/>
      <point x="198" y="614" type="curve" smooth="yes"/>
      <point x="240" y="616"/>
      <point x="275" y="611"/>
      <point x="314" y="601" type="curve" smooth="yes"/>
      <point x="416" y="576"/>
      <point x="455" y="514"/>
      <point x="456" y="429" type="curve" smooth="yes"/>
      <point x="457" y="339"/>
      <point x="418" y="278"/>
      <point x="353" y="252" type="curve" smooth="yes"/>
      <point x="320" y="236"/>
      <point x="258" y="223"/>
      <point x="160" y="230" type="curve" smooth="yes"/>
      <point x="124" y="232"/>
      <point x="68" y="238"/>
      <point x="65" y="238" type="curve"/>
      <point x="66" y="256" type="line"/>
      <point x="75" y="255"/>
      <point x="79" y="254"/>
      <point x="90" y="253" type="curve" smooth="yes"/>
      <point x="288" y="227"/>
      <point x="353" y="263"/>
      <point x="390" y="296" type="curve" smooth="yes"/>
      <point x="434" y="335"/>
      <point x="437" y="391"/>
      <point x="437" y="430" type="curve" smooth="yes"/>
      <point x="436" y="524"/>
      <point x="387" y="562"/>
      <point x="309" y="584" type="curve" smooth="yes"/>
      <point x="271" y="595"/>
      <point x="226" y="598"/>
      <point x="180" y="595" type="curve" smooth="yes"/>
      <point x="148" y="594"/>
      <point x="84" y="584"/>
      <point x="73" y="566" type="curve"/>
      <point x="65" y="551"/>
      <point x="76" y="246"/>
      <point x="71" y="23" type="curve" smooth="yes"/>
      <point x="70" y="-4"/>
      <point x="75" y="-8"/>
      <point x="62" y="-8" type="curve" smooth="yes"/>
      <point x="49" y="-9"/>
      <point x="51" y="1"/>
      <point x="52" y="36" type="curve" smooth="yes"/>
      <point x="53" y="91"/>
      <point x="52" y="316"/>
      <point x="53" y="440" type="curve" smooth="yes"/>
      <point x="53" y="479.6381040671186"/>
      <point x="49" y="522"/>
    </contour>
  </outline>
</glyph>
<glyph name="Q" format="2">
  <advance width="500.0"/>
  <unicode hex="0051"/>
  <anchor x="250.0" y="600.0" name="top"/>
  <anchor x="228" y="-1" name="cedilla"/>
  <anchor x="419" y="-22" name="ogonek"/>
  <anchor x="270.0" y="0.0" name="bottom"/>
  <outline>
    <contour>
      <point x="236" y="15" type="curve" smooth="yes"/>
      <point x="373" y="15"/>
      <point x="435" y="189"/>
      <point x="435" y="305" type="curve" smooth="yes"/>
      <point x="435" y="427"/>
      <point x="417" y="596"/>
      <point x="251" y="596" type="curve" smooth="yes"/>
      <point x="98" y="596"/>
      <point x="66" y="438"/>
      <point x="66" y="312" type="curve" smooth="yes"/>
      <point x="66" y="172"/>
      <point x="106" y="15"/>
    </contour>
    <contour>
      <point x="409" y="119" type="curve" smooth="yes"/>
      <point x="379" y="59"/>
      <point x="339" y="-1"/>
      <point x="228" y="-1" type="curve" smooth="yes"/>
      <point x="108" y="-1"/>
      <point x="52" y="143"/>
      <point x="53" y="308" type="curve" smooth="yes"/>
      <point x="53" y="443"/>
      <point x="84" y="612"/>
      <point x="249" y="612" type="curve" smooth="yes"/>
      <point x="327" y="612"/>
      <point x="360" y="584"/>
      <point x="391" y="547" type="curve" smooth="yes"/>
      <point x="430" y="499"/>
      <point x="446" y="420"/>
      <point x="446" y="301" type="curve" smooth="yes"/>
      <point x="446" y="234"/>
      <point x="430" y="166"/>
    </contour>
    <contour>
      <point x="219" y="301" type="curve" smooth="yes"/>
      <point x="226" y="307"/>
      <point x="226" y="297"/>
      <point x="247" y="269" type="curve" smooth="yes"/>
      <point x="260" y="251"/>
      <point x="304" y="183"/>
      <point x="327" y="149" type="curve" smooth="yes"/>
      <point x="348" y="119"/>
      <point x="397" y="42"/>
      <point x="435" y="-20" type="curve" smooth="yes"/>
      <point x="450" y="-45"/>
      <point x="448" y="-44"/>
      <point x="443" y="-45" type="curve" smooth="yes"/>
      <point x="435" y="-47"/>
      <point x="433" y="-42"/>
      <point x="419" y="-22" type="curve" smooth="yes"/>
      <point x="389" y="24"/>
      <point x="343" y="89"/>
      <point x="315" y="135" type="curve" smooth="yes"/>
      <point x="303" y="153"/>
      <point x="265" y="210"/>
      <point x="236" y="255" type="curve" smooth="yes"/>
      <point x="221" y="278"/>
      <point x="210" y="294"/>
    </contour>
  </outline>
</glyph>
<glyph name="R" format="2">
  <advance width="500.0"/>
  <unicode hex="0052"/>
  <anchor x="220.0" y="600.0" name="top"/>
  <anchor x="43" y="-9" name="cedilla"/>
  <anchor x="460" y="0" name="ogonek"/>
  <anchor x="240.0" y="0.0" name="bottom"/>
  <outline>
    <contour>
      <point x="60" y="555" type="curve" smooth="yes"/>
      <point x="66" y="608"/>
      <point x="104" y="607"/>
      <point x="240" y="607" type="curve" smooth="yes"/>
      <point x="371" y="607"/>
      <point x="412" y="533"/>
      <point x="412" y="451" type="curve" smooth="yes"/>
      <point x="412" y="401"/>
      <point x="393" y="363"/>
      <point x="357" y="332" type="curve" smooth="yes"/>
      <point x="324" y="304"/>
      <point x="281" y="295"/>
      <point x="191" y="295" type="curve" smooth="yes"/>
      <point x="159" y="295"/>
      <point x="72" y="295"/>
      <point x="66" y="295" type="curve"/>
      <point x="65" y="313" type="line"/>
      <point x="73" y="313"/>
      <point x="155" y="313"/>
      <point x="246" y="313" type="curve" smooth="yes"/>
      <point x="336" y="313"/>
      <point x="397" y="375"/>
      <point x="394" y="450" type="curve" smooth="yes"/>
      <point x="390" y="544"/>
      <point x="338" y="594"/>
      <point x="221" y="592" type="curve" smooth="yes"/>
      <point x="132" y="591"/>
      <point x="83" y="591"/>
      <point x="79" y="559" type="curve"/>
      <point x="71" y="504"/>
      <point x="90.89026624421113" y="203.15351030202788"/>
      <point x="60" y="19" type="curve" smooth="yes"/>
      <point x="55" y="-9"/>
      <point x="55" y="-9"/>
      <point x="43" y="-9" type="curve" smooth="yes"/>
      <point x="32" y="-9"/>
      <point x="42" y="21"/>
      <point x="48" y="56" type="curve" smooth="yes"/>
      <point x="55" y="111"/>
      <point x="58" y="313"/>
      <point x="58" y="437" type="curve" smooth="yes"/>
      <point x="58" y="483"/>
      <point x="56" y="513"/>
    </contour>
    <contour>
      <point x="256" y="302" type="line"/>
      <point x="335" y="303"/>
      <point x="378" y="236"/>
      <point x="391" y="182" type="curve" smooth="yes"/>
      <point x="397" y="158"/>
      <point x="414" y="54"/>
      <point x="454" y="26" type="curve" smooth="yes"/>
      <point x="480" y="8"/>
      <point x="488" y="13"/>
      <point x="477" y="-2" type="curve" smooth="yes"/>
      <point x="474" y="-6"/>
      <point x="467" y="-5"/>
      <point x="448" y="7" type="curve" smooth="yes"/>
      <point x="395" y="41"/>
      <point x="389" y="138"/>
      <point x="374" y="184" type="curve" smooth="yes"/>
      <point x="338" y="296"/>
      <point x="281" y="295"/>
      <point x="91" y="295" type="curve"/>
    </contour>
  </outline>
</glyph>
<glyph name="S" format="2">
  <advance width="500.0"/>
  <unicode hex="0053"/>
  <anchor x="263.0" y="600.0" name="top"/>
  <anchor x="235" y="-9" name="cedilla"/>
  <anchor x="235" y="-9" name="ogonek"/>
  <anchor x="270.0" y="0.0" name="bottom"/>
  <outline>
    <contour>
      <point x="244" y="612" type="curve" smooth="yes"/>
      <point x="322" y="612"/>
      <point x="366" y="595"/>
      <point x="408" y="554" type="curve" smooth="yes"/>
      <point x="431" y="531"/>
      <point x="429" y="521"/>
      <point x="424" y="518" type="curve" smooth="yes"/>
      <point x="417" y="514"/>
      <point x="417" y="520"/>
      <point x="399" y="537" type="curve" smooth="yes"/>
      <point x="370" y="564"/>
      <point x="340" y="595"/>
      <point x="247" y="595" type="curve" smooth="yes"/>
      <point x="161" y="595"/>
      <point x="92" y="509"/>
      <point x="92" y="440" type="curve" smooth="yes"/>
      <point x="92" y="353"/>
      <point x="156" y="307"/>
      <point x="256" y="305" type="curve" smooth="yes"/>
      <point x="327" y="304"/>
      <point x="352" y="307"/>
      <point x="395" y="280" type="curve" smooth="yes"/>
      <point x="421" y="264"/>
      <point x="450" y="232"/>
      <point x="450" y="189" type="curve" smooth="yes"/>
      <point x="450" y="129"/>
      <point x="435" y="84"/>
      <point x="405" y="51" type="curve" smooth="yes"/>
      <point x="371" y="13"/>
      <point x="312" y="-9"/>
      <point x="235" y="-9" type="curve" smooth="yes"/>
      <point x="168" y="-9"/>
      <point x="109" y="13"/>
      <point x="71" y="46" type="curve" smooth="yes"/>
      <point x="49" y="65"/>
      <point x="42" y="93"/>
      <point x="55" y="95" type="curve" smooth="yes"/>
      <point x="67" y="97"/>
      <point x="62" y="81"/>
      <point x="82" y="62" type="curve" smooth="yes"/>
      <point x="137" y="11"/>
      <point x="196" y="9"/>
      <point x="231" y="9" type="curve" smooth="yes"/>
      <point x="305" y="9"/>
      <point x="360" y="31"/>
      <point x="388" y="60" type="curve" smooth="yes"/>
      <point x="413" y="88"/>
      <point x="429" y="121"/>
      <point x="431" y="161" type="curve" smooth="yes"/>
      <point x="434" y="207"/>
      <point x="432" y="231"/>
      <point x="394" y="261" type="curve" smooth="yes"/>
      <point x="371" y="279"/>
      <point x="328" y="288"/>
      <point x="269" y="287" type="curve" smooth="yes"/>
      <point x="138" y="285"/>
      <point x="75" y="344"/>
      <point x="74" y="439" type="curve" smooth="yes"/>
      <point x="73" y="529"/>
      <point x="157" y="612"/>
    </contour>
  </outline>
</glyph>
<glyph name="T" format="2">
  <advance width="500.0"/>
  <unicode hex="0054"/>
  <anchor x="250.0" y="600.0" name="top"/>
  <anchor x="250" y="-8" name="cedilla"/>
  <anchor x="250" y="-8" name="ogonek"/>
  <anchor x="250" y="0" name="bottom"/>
  <outline>
    <contour>
      <point x="258" y="586" type="line"/>
      <point x="259" y="524"/>
      <point x="258" y="521"/>
      <point x="258" y="343" type="curve" smooth="yes"/>
      <point x="258" y="213"/>
      <point x="259" y="48"/>
      <point x="259" y="32" type="curve" smooth="yes"/>
      <point x="259" y="-3"/>
      <point x="262" y="-8"/>
      <point x="250" y="-8" type="curve" smooth="yes"/>
      <point x="238" y="-8"/>
      <point x="239" y="-3"/>
      <point x="239" y="33" type="curve" smooth="yes"/>
      <point x="239" y="39"/>
      <point x="239" y="262"/>
      <point x="240" y="301" type="curve" smooth="yes"/>
      <point x="240" y="278"/>
      <point x="241" y="517"/>
      <point x="240" y="586" type="curve"/>
    </contour>
    <contour>
      <point x="22" y="590" type="curve" smooth="yes"/>
      <point x="22" y="599"/>
      <point x="35" y="600"/>
      <point x="62" y="600" type="curve" smooth="yes"/>
      <point x="136" y="600"/>
      <point x="143" y="599"/>
      <point x="176" y="600" type="curve" smooth="yes"/>
      <point x="228" y="600"/>
      <point x="308" y="601"/>
      <point x="346" y="600" type="curve" smooth="yes"/>
      <point x="392" y="599"/>
      <point x="419" y="600"/>
      <point x="435" y="600" type="curve" smooth="yes"/>
      <point x="465" y="600"/>
      <point x="478" y="599"/>
      <point x="478" y="589" type="curve" smooth="yes"/>
      <point x="478" y="579"/>
      <point x="463" y="581"/>
      <point x="436" y="580" type="curve" smooth="yes"/>
      <point x="444" y="581"/>
      <point x="384" y="580"/>
      <point x="309" y="581" type="curve" smooth="yes"/>
      <point x="307" y="581"/>
      <point x="269" y="582"/>
      <point x="233" y="581" type="curve" smooth="yes"/>
      <point x="146" y="579"/>
      <point x="87" y="580"/>
      <point x="62" y="582" type="curve" smooth="yes"/>
      <point x="32" y="582"/>
      <point x="22" y="580"/>
    </contour>
  </outline>
</glyph>
<glyph name="U" format="2">
  <advance width="500.0"/>
  <unicode hex="0055"/>
  <anchor x="250.0" y="600.0" name="top"/>
  <anchor x="250" y="-16" name="cedilla"/>
  <anchor x="250" y="-16" name="ogonek"/>
  <anchor x="250" y="0" name="bottom"/>
  <anchor x="440" y="528" name="horn"/>
  <outline>
    <contour>
      <point x="68" y="547" type="curve" smooth="yes"/>
      <point x="66" y="464"/>
      <point x="70" y="410"/>
      <point x="69" y="290" type="curve" smooth="yes"/>
      <point x="68" y="207"/>
      <point x="82" y="117"/>
      <point x="112" y="81" type="curve" smooth="yes"/>
      <point x="147" y="39"/>
      <point x="174" y="2"/>
      <point x="250" y="2" type="curve" smooth="yes"/>
      <point x="342" y="2"/>
      <point x="380" y="56"/>
      <point x="403" y="99" type="curve" smooth="yes"/>
      <point x="430" y="150"/>
      <point x="429" y="219"/>
      <point x="431" y="293" type="curve" smooth="yes"/>
      <point x="431" y="418"/>
      <point x="432" y="489"/>
      <point x="430" y="562" type="curve" smooth="yes"/>
      <point x="429" y="597"/>
      <point x="429" y="608"/>
      <point x="442" y="607" type="curve" smooth="yes"/>
      <point x="453" y="606"/>
      <point x="448" y="587"/>
      <point x="449" y="561" type="curve" smooth="yes"/>
      <point x="450" y="512"/>
      <point x="450" y="404"/>
      <point x="450.0" y="301.0" type="curve" smooth="yes"/>
      <point x="450" y="213"/>
      <point x="447.0" y="144.0"/>
      <point x="424.0" y="96.0" type="curve" smooth="yes"/>
      <point x="387.0" y="21.0"/>
      <point x="342" y="-16"/>
      <point x="250" y="-16" type="curve" smooth="yes"/>
      <point x="173" y="-16"/>
      <point x="139.0" y="14.0"/>
      <point x="99.0" y="63.0" type="curve" smooth="yes"/>
      <point x="59.0" y="112.0"/>
      <point x="48.0" y="190.0"/>
      <point x="50.0" y="301.0" type="curve" smooth="yes"/>
      <point x="52.0" y="421.0"/>
      <point x="49" y="523"/>
      <point x="50" y="567" type="curve" smooth="yes"/>
      <point x="51" y="591"/>
      <point x="47" y="605"/>
      <point x="59" y="605" type="curve" smooth="yes"/>
      <point x="70" y="605"/>
      <point x="69" y="583"/>
    </contour>
  </outline>
</glyph>
<glyph name="V" format="2">
  <advance width="500.0"/>
  <unicode hex="0056"/>
  <anchor x="250.0" y="600.0" name="top"/>
  <anchor x="250.0" y="0.0" name="cedilla"/>
  <anchor x="250.0" y="0.0" name="ogonek"/>
  <anchor x="250.0" y="0.0" name="bottom"/>
  <outline>
    <contour>
      <point x="56" y="603" type="curve" smooth="yes"/>
      <point x="65" y="606"/>
      <point x="69" y="604"/>
      <point x="79" y="572" type="curve" smooth="yes"/>
      <point x="106" y="483"/>
      <point x="104" y="465"/>
      <point x="139" y="340" type="curve" smooth="yes"/>
      <point x="155" y="283"/>
      <point x="188" y="183"/>
      <point x="209" y="124" type="curve" smooth="yes"/>
      <point x="221" y="90"/>
      <point x="242" y="13"/>
      <point x="250" y="13" type="curve"/>
      <point x="265" y="13"/>
      <point x="330" y="290"/>
      <point x="353" y="361" type="curve" smooth="yes"/>
      <point x="386" y="463"/>
      <point x="387" y="480"/>
      <point x="427" y="572" type="curve" smooth="yes"/>
      <point x="440" y="602"/>
      <point x="442" y="607"/>
      <point x="451" y="603" type="curve" smooth="yes"/>
      <point x="461" y="599"/>
      <point x="449" y="573"/>
      <point x="438" y="547" type="curve" smooth="yes"/>
      <point x="424" y="512"/>
      <point x="416" y="496"/>
      <point x="408" y="473" type="curve" smooth="yes"/>
      <point x="388" y="416"/>
      <point x="361" y="324"/>
      <point x="356" y="306" type="curve" smooth="yes"/>
      <point x="329" y="209"/>
      <point x="307" y="115"/>
      <point x="287" y="43" type="curve" smooth="yes"/>
      <point x="279" y="14"/>
      <point x="270" y="-9"/>
      <point x="250" y="-9" type="curve" smooth="yes"/>
      <point x="231" y="-9"/>
      <point x="226" y="11"/>
      <point x="214" y="43" type="curve" smooth="yes"/>
      <point x="212" y="49"/>
      <point x="147" y="247"/>
      <point x="132" y="300" type="curve" smooth="yes"/>
      <point x="115" y="362"/>
      <point x="105" y="392"/>
      <point x="86" y="475" type="curve" smooth="yes"/>
      <point x="78" y="513"/>
      <point x="68" y="547"/>
      <point x="65" y="557" type="curve" smooth="yes"/>
      <point x="56" y="585"/>
      <point x="42" y="598"/>
    </contour>
  </outline>
</glyph>
<glyph name="W" format="2">
  <advance width="500.0"/>
  <unicode hex="0057"/>
  <anchor x="250.0" y="600.0" name="top"/>
  <anchor x="156" y="-9" name="cedilla"/>
  <anchor x="345" y="-9" name="ogonek"/>
  <anchor x="250.0" y="0.0" name="bottom"/>
  <outline>
    <contour>
      <point x="52" y="604" type="curve" smooth="yes"/>
      <point x="68" y="607"/>
      <point x="72" y="577"/>
      <point x="79" y="502" type="curve" smooth="yes"/>
      <point x="88" y="402"/>
      <point x="92" y="377"/>
      <point x="104" y="280" type="curve" smooth="yes"/>
      <point x="125" y="105"/>
      <point x="119" y="13"/>
      <point x="150" y="13" type="curve"/>
      <point x="187" y="13"/>
      <point x="210" y="256"/>
      <point x="226" y="313" type="curve" smooth="yes"/>
      <point x="233" y="340"/>
      <point x="240" y="351"/>
      <point x="250" y="351" type="curve" smooth="yes"/>
      <point x="258" y="351"/>
      <point x="264" y="342"/>
      <point x="272" y="314" type="curve" smooth="yes"/>
      <point x="292" y="244"/>
      <point x="319" y="13"/>
      <point x="348" y="13" type="curve"/>
      <point x="376" y="13"/>
      <point x="407" y="236"/>
      <point x="414" y="302" type="curve" smooth="yes"/>
      <point x="431" y="488"/>
      <point x="426" y="428"/>
      <point x="431" y="551" type="curve" smooth="yes"/>
      <point x="433" y="596"/>
      <point x="442" y="610"/>
      <point x="455" y="601" type="curve" smooth="yes"/>
      <point x="467" y="593"/>
      <point x="454" y="581"/>
      <point x="453" y="559" type="curve" smooth="yes"/>
      <point x="450" y="503"/>
      <point x="440" y="336"/>
      <point x="432" y="283" type="curve" smooth="yes"/>
      <point x="427" y="255"/>
      <point x="410" y="112"/>
      <point x="395" y="59" type="curve" smooth="yes"/>
      <point x="386" y="25"/>
      <point x="384" y="-8"/>
      <point x="345" y="-9" type="curve" smooth="yes"/>
      <point x="322" y="-11"/>
      <point x="311" y="21"/>
      <point x="301" y="56" type="curve" smooth="yes"/>
      <point x="280" y="129"/>
      <point x="261" y="321"/>
      <point x="250" y="321" type="curve"/>
      <point x="237" y="321"/>
      <point x="221" y="126"/>
      <point x="199" y="53" type="curve" smooth="yes"/>
      <point x="188" y="19"/>
      <point x="177" y="-9"/>
      <point x="156" y="-9" type="curve" smooth="yes"/>
      <point x="122" y="-9"/>
      <point x="111" y="27"/>
      <point x="107" y="62" type="curve" smooth="yes"/>
      <point x="96" y="156"/>
      <point x="94" y="190"/>
      <point x="89" y="229" type="curve" smooth="yes"/>
      <point x="79" y="311"/>
      <point x="64" y="445"/>
      <point x="52" y="557" type="curve" smooth="yes"/>
      <point x="49" y="583"/>
      <point x="33" y="601"/>
    </contour>
  </outline>
</glyph>
<glyph name="X" format="2">
  <advance width="500.0"/>
  <unicode hex="0058"/>
  <anchor x="250.0" y="600.0" name="top"/>
  <anchor x="69" y="0" name="cedilla"/>
  <anchor x="448" y="0" name="ogonek"/>
  <anchor x="250.0" y="0.0" name="bottom"/>
  <outline>
    <contour>
      <point x="452" y="603" type="curve" smooth="yes"/>
      <point x="462" y="595"/>
      <point x="447" y="585"/>
      <point x="424" y="549" type="curve" smooth="yes"/>
      <point x="407" y="522"/>
      <point x="243" y="270"/>
      <point x="254" y="289" type="curve" smooth="yes"/>
      <point x="234" y="257"/>
      <point x="150" y="115"/>
      <point x="102" y="43" type="curve" smooth="yes"/>
      <point x="78" y="8"/>
      <point x="67" y="-8"/>
      <point x="60" y="-2" type="curve" smooth="yes"/>
      <point x="36" y="13"/>
      <point x="70" y="40"/>
      <point x="96" y="79" type="curve" smooth="yes"/>
      <point x="109" y="97"/>
      <point x="219" y="272"/>
      <point x="276" y="358" type="curve" smooth="yes"/>
      <point x="371" y="503"/>
      <point x="401" y="554"/>
      <point x="420" y="579" type="curve" smooth="yes"/>
      <point x="441" y="607"/>
      <point x="441" y="612"/>
    </contour>
    <contour>
      <point x="50" y="596" type="curve" smooth="yes"/>
      <point x="62" y="608"/>
      <point x="66" y="596"/>
      <point x="78" y="583" type="curve" smooth="yes"/>
      <point x="100" y="559"/>
      <point x="126" y="502"/>
      <point x="223" y="358" type="curve" smooth="yes"/>
      <point x="281" y="273"/>
      <point x="408" y="99"/>
      <point x="420" y="80" type="curve" smooth="yes"/>
      <point x="445" y="41"/>
      <point x="471" y="17"/>
      <point x="453" y="2" type="curve" smooth="yes"/>
      <point x="442" y="-7"/>
      <point x="432" y="14"/>
      <point x="409" y="50" type="curve" smooth="yes"/>
      <point x="363" y="123"/>
      <point x="275" y="247"/>
      <point x="249" y="286" type="curve" smooth="yes"/>
      <point x="237" y="305"/>
      <point x="92" y="523"/>
      <point x="69" y="558" type="curve" smooth="yes"/>
      <point x="59" y="573"/>
      <point x="40" y="586"/>
    </contour>
  </outline>
</glyph>
<glyph name="Y" format="2">
  <advance width="500.0"/>
  <unicode hex="0059"/>
  <anchor x="250.0" y="600.0" name="top"/>
  <anchor x="250" y="-8" name="cedilla"/>
  <anchor x="250" y="-8" name="ogonek"/>
  <anchor x="250" y="0" name="bottom"/>
  <outline>
    <contour>
      <point x="241" y="317" type="curve"/>
      <point x="240" y="319"/>
      <point x="188" y="386"/>
      <point x="166" y="418" type="curve" smooth="yes"/>
      <point x="177" y="403"/>
      <point x="87" y="522"/>
      <point x="72" y="546" type="curve" smooth="yes"/>
      <point x="59" y="568"/>
      <point x="39" y="593"/>
      <point x="48" y="601" type="curve" smooth="yes"/>
      <point x="59" y="610"/>
      <point x="67" y="591"/>
      <point x="77" y="575" type="curve" smooth="yes"/>
      <point x="101" y="538"/>
      <point x="89" y="555"/>
      <point x="146" y="476" type="curve" smooth="yes"/>
      <point x="194" y="408"/>
      <point x="237" y="356"/>
      <point x="250" y="339" type="curve"/>
      <point x="281.8421245870339" y="383.5789744218474"/>
      <point x="315.6591506150364" y="426.77883859607016"/>
      <point x="348" y="471" type="curve" smooth="yes"/>
      <point x="388" y="524"/>
      <point x="415" y="566"/>
      <point x="425" y="580" type="curve" smooth="yes"/>
      <point x="437" y="596"/>
      <point x="443" y="609"/>
      <point x="453" y="602" type="curve" smooth="yes"/>
      <point x="463" y="595"/>
      <point x="443" y="571"/>
      <point x="426" y="547" type="curve" smooth="yes"/>
      <point x="409" y="523"/>
      <point x="385" y="487"/>
      <point x="333" y="418" type="curve" smooth="yes"/>
      <point x="312" y="390"/>
      <point x="272" y="335"/>
      <point x="259" y="317" type="curve"/>
      <point x="258" y="223" type="line" smooth="yes"/>
      <point x="257" y="123"/>
      <point x="259" y="58"/>
      <point x="259" y="42" type="curve" smooth="yes"/>
      <point x="259" y="-3"/>
      <point x="264" y="-8"/>
      <point x="249" y="-8" type="curve" smooth="yes"/>
      <point x="234" y="-8"/>
      <point x="241" y="-3"/>
      <point x="241" y="43" type="curve" smooth="yes"/>
      <point x="241" y="46"/>
      <point x="240" y="142"/>
      <point x="241" y="181" type="curve" smooth="yes"/>
      <point x="241" y="135.66666666666666"/>
      <point x="241" y="271.6666666666667"/>
    </contour>
  </outline>
</glyph>
<glyph name="Z" format="2">
  <advance width="500.0"/>
  <unicode hex="005A"/>
  <anchor x="250.0" y="600.0" name="top"/>
  <anchor x="250" y="2" name="cedilla"/>
  <anchor x="348" y="2" name="ogonek"/>
  <anchor x="258.0" y="0.0" name="bottom"/>
  <outline>
    <contour>
      <point x="433" y="602" type="curve" smooth="yes"/>
      <point x="472" y="604"/>
      <point x="456" y="569"/>
      <point x="431" y="548" type="curve" smooth="yes"/>
      <point x="420" y="540"/>
      <point x="345" y="430"/>
      <point x="303" y="366" type="curve" smooth="yes"/>
      <point x="269" y="314"/>
      <point x="259" y="298"/>
      <point x="245" y="277" type="curve" smooth="yes"/>
      <point x="194" y="200"/>
      <point x="133" y="87"/>
      <point x="69" y="16" type="curve"/>
      <point x="80" y="22"/>
      <point x="234" y="22"/>
      <point x="263" y="22" type="curve" smooth="yes"/>
      <point x="357" y="23"/>
      <point x="405" y="21"/>
      <point x="429" y="19" type="curve" smooth="yes"/>
      <point x="459" y="17"/>
      <point x="474" y="31"/>
      <point x="477" y="16" type="curve" smooth="yes"/>
      <point x="478" y="8"/>
      <point x="468" y="-1"/>
      <point x="440" y="0" type="curve" smooth="yes"/>
      <point x="405" y="2"/>
      <point x="369" y="1"/>
      <point x="348" y="2" type="curve" smooth="yes"/>
      <point x="285" y="3"/>
      <point x="251" y="1"/>
      <point x="157" y="-1" type="curve" smooth="yes"/>
      <point x="109" y="-1"/>
      <point x="84" y="-2"/>
      <point x="68" y="-2" type="curve" smooth="yes"/>
      <point x="51" y="-2"/>
      <point x="51" y="5"/>
      <point x="52" y="18" type="curve" smooth="yes"/>
      <point x="53" y="31"/>
      <point x="67" y="35"/>
      <point x="96" y="74" type="curve" smooth="yes"/>
      <point x="109" y="92"/>
      <point x="224" y="275"/>
      <point x="280" y="361" type="curve" smooth="yes"/>
      <point x="396" y="539"/>
      <point x="431" y="573"/>
      <point x="439" y="584" type="curve"/>
      <point x="417" y="581"/>
      <point x="355" y="581"/>
      <point x="332" y="581" type="curve" smooth="yes"/>
      <point x="239" y="581" type="line" smooth="yes"/>
      <point x="223" y="581"/>
      <point x="205" y="581"/>
      <point x="191" y="581" type="curve" smooth="yes"/>
      <point x="140" y="581"/>
      <point x="93" y="581"/>
      <point x="65" y="583" type="curve" smooth="yes"/>
      <point x="45" y="584"/>
      <point x="44" y="582"/>
      <point x="44" y="594" type="curve" smooth="yes"/>
      <point x="44" y="600"/>
      <point x="48" y="600"/>
      <point x="65" y="600" type="curve" smooth="yes"/>
      <point x="149" y="600"/>
      <point x="153" y="600"/>
      <point x="179" y="600" type="curve" smooth="yes"/>
      <point x="200" y="600"/>
      <point x="225" y="600"/>
      <point x="250" y="600" type="curve" smooth="yes"/>
      <point x="288" y="600"/>
      <point x="326" y="601"/>
      <point x="356" y="600" type="curve" smooth="yes"/>
      <point x="391" y="600"/>
      <point x="417" y="601"/>
    </contour>
  </outline>
</glyph>
<glyph name="bracketleft" format="2">
  <advance width="500.0"/>
  <unicode hex="005B"/>
  <outline>
    <contour>
      <point x="112" y="646" type="curve"/>
      <point x="135" y="658" type="line"/>
      <point x="135" y="574"/>
      <point x="136" y="521"/>
      <point x="135" y="311" type="curve" smooth="yes"/>
      <point x="133" y="106"/>
      <point x="135" y="33"/>
      <point x="135" y="-82" type="curve"/>
      <point x="112" y="-71" type="line"/>
      <point x="112" y="-67"/>
      <point x="112" y="-49"/>
      <point x="112" y="-44" type="curve" smooth="yes"/>
      <point x="112" y="-38"/>
      <point x="110" y="80"/>
      <point x="113" y="291" type="curve" smooth="yes"/>
      <point x="115" y="530"/>
      <point x="111" y="596"/>
    </contour>
    <contour>
      <point x="112" y="-71" type="curve" smooth="yes"/>
      <point x="111" y="-61"/>
      <point x="117" y="-78"/>
      <point x="137" y="-76" type="curve" smooth="yes"/>
      <point x="171" y="-74"/>
      <point x="228" y="-75"/>
      <point x="251" y="-75" type="curve" smooth="yes"/>
      <point x="305" y="-75"/>
      <point x="308" y="-75"/>
      <point x="353" y="-76" type="curve" smooth="yes"/>
      <point x="380" y="-76"/>
      <point x="392" y="-74"/>
      <point x="392" y="-87" type="curve" smooth="yes"/>
      <point x="393" y="-105"/>
      <point x="374" y="-99"/>
      <point x="342" y="-100" type="curve" smooth="yes"/>
      <point x="293" y="-100"/>
      <point x="255" y="-100"/>
      <point x="255" y="-100" type="curve" smooth="yes"/>
      <point x="214" y="-99"/>
      <point x="156" y="-102"/>
      <point x="142" y="-100" type="curve" smooth="yes"/>
      <point x="124" y="-99"/>
      <point x="113" y="-89"/>
    </contour>
    <contour>
      <point x="112" y="646" type="curve" smooth="yes"/>
      <point x="113" y="665"/>
      <point x="124" y="674"/>
      <point x="142" y="675" type="curve" smooth="yes"/>
      <point x="156" y="677"/>
      <point x="215" y="673"/>
      <point x="255" y="675" type="curve" smooth="yes"/>
      <point x="255" y="675"/>
      <point x="292" y="676"/>
      <point x="340" y="676" type="curve" smooth="yes"/>
      <point x="372" y="675"/>
      <point x="389" y="680"/>
      <point x="389" y="665" type="curve" smooth="yes"/>
      <point x="389" y="649"/>
      <point x="378" y="653"/>
      <point x="351" y="652" type="curve" smooth="yes"/>
      <point x="297" y="651"/>
      <point x="305" y="650"/>
      <point x="251" y="650" type="curve" smooth="yes"/>
      <point x="228" y="650"/>
      <point x="172" y="650"/>
      <point x="137" y="652" type="curve" smooth="yes"/>
      <point x="117" y="653"/>
      <point x="111" y="636"/>
    </contour>
  </outline>
</glyph>
<glyph name="asciicircum" format="2">
  <advance width="500.0"/>
  <unicode hex="005E"/>
  <outline>
    <contour>
      <point x="55" y="357" type="curve" smooth="yes"/>
      <point x="42" y="367"/>
      <point x="48" y="375"/>
      <point x="67" y="398" type="curve" smooth="yes"/>
      <point x="100" y="437"/>
      <point x="123" y="463"/>
      <point x="129" y="473" type="curve" smooth="yes"/>
      <point x="149" y="500"/>
      <point x="201" y="572"/>
      <point x="225" y="593" type="curve" smooth="yes"/>
      <point x="236" y="604"/>
      <point x="248" y="608"/>
      <point x="258" y="605" type="curve" smooth="yes"/>
      <point x="265" y="604"/>
      <point x="271" y="600"/>
      <point x="278" y="594" type="curve" smooth="yes"/>
      <point x="302" y="573"/>
      <point x="345" y="500"/>
      <point x="368" y="471" type="curve" smooth="yes"/>
      <point x="379" y="456"/>
      <point x="391" y="440"/>
      <point x="427" y="397" type="curve" smooth="yes"/>
      <point x="446" y="374"/>
      <point x="452" y="364"/>
      <point x="442" y="356" type="curve" smooth="yes"/>
      <point x="431" y="348"/>
      <point x="417" y="371"/>
      <point x="399" y="393" type="curve" smooth="yes"/>
      <point x="386" y="409"/>
      <point x="352" y="460"/>
      <point x="335" y="484" type="curve" smooth="yes"/>
      <point x="314" y="514"/>
      <point x="273" y="583"/>
      <point x="250" y="583" type="curve"/>
      <point x="230" y="583"/>
      <point x="186" y="514"/>
      <point x="164" y="486" type="curve" smooth="yes"/>
      <point x="144" y="460"/>
      <point x="109" y="414"/>
      <point x="97" y="400" type="curve" smooth="yes"/>
      <point x="78" y="377"/>
      <point x="66" y="347"/>
    </contour>
  </outline>
</glyph>
<glyph name="underscore" format="2">
  <advance width="500.0"/>
  <unicode hex="005F"/>
  <outline>
    <contour>
      <point x="56.0" y="-47.0" type="curve" smooth="yes"/>
      <point x="56" y="-33"/>
      <point x="64" y="-40"/>
      <point x="96" y="-39" type="curve" smooth="yes"/>
      <point x="148" y="-37"/>
      <point x="212" y="-39"/>
      <point x="235" y="-39" type="curve" smooth="yes"/>
      <point x="289" y="-40"/>
      <point x="351" y="-37"/>
      <point x="405" y="-39" type="curve" smooth="yes"/>
      <point x="432" y="-40"/>
      <point x="444" y="-36"/>
      <point x="444.0" y="-50.0" type="curve" smooth="yes"/>
      <point x="444" y="-61"/>
      <point x="427" y="-57"/>
      <point x="395" y="-58" type="curve" smooth="yes"/>
      <point x="347" y="-59"/>
      <point x="277" y="-59"/>
      <point x="238" y="-59" type="curve" smooth="yes"/>
      <point x="198" y="-59"/>
      <point x="124" y="-58"/>
      <point x="102" y="-58" type="curve" smooth="yes"/>
      <point x="74" y="-58"/>
      <point x="56" y="-62"/>
    </contour>
  </outline>
</glyph>
<glyph name="grave" format="2">
  <advance width="500"/>
  <unicode hex="0060"/>
  <anchor x="250" y="600" name="top"/>
  <outline>
    <contour>
      <point x="343" y="433" type="curve" smooth="yes"/>
      <point x="337" y="427"/>
      <point x="331" y="428"/>
      <point x="309" y="448" type="curve" smooth="yes"/>
      <point x="277" y="478"/>
      <point x="244" y="510"/>
      <point x="198" y="556" type="curve" smooth="yes"/>
      <point x="189" y="565"/>
      <point x="165" y="582"/>
      <point x="178" y="595" type="curve" smooth="yes"/>
      <point x="187" y="604"/>
      <point x="186" y="599"/>
      <point x="204" y="582" type="curve" smooth="yes"/>
      <point x="250" y="538"/>
      <point x="281" y="504"/>
      <point x="316" y="465" type="curve" smooth="yes"/>
      <point x="332" y="446"/>
      <point x="350" y="440"/>
    </contour>
  </outline>
</glyph>
<glyph name="a" format="2">
  <advance width="500.0"/>
  <unicode hex="0061"/>
  <anchor x="233.0" y="400.0" name="top"/>
  <anchor x="189" y="-8" name="cedilla"/>
  <anchor x="424" y="4" name="ogonek"/>
  <anchor x="251.0" y="0.0" name="bottom"/>
  <outline>
    <contour>
      <point x="327" y="220" type="curve" smooth="yes"/>
      <point x="339" y="218"/>
      <point x="361" y="226"/>
      <point x="371" y="237" type="curve"/>
      <point x="371" y="221" type="line"/>
      <point x="361" y="206"/>
      <point x="336" y="198"/>
      <point x="310" y="202" type="curve" smooth="yes"/>
      <point x="188" y="220"/>
      <point x="81" y="209"/>
      <point x="81" y="101" type="curve" smooth="yes"/>
      <point x="81" y="10"/>
      <point x="179" y="9"/>
      <point x="213" y="11" type="curve" smooth="yes"/>
      <point x="262" y="14"/>
      <point x="316" y="43"/>
      <point x="367" y="122" type="curve"/>
      <point x="370" y="101" type="line"/>
      <point x="347" y="63"/>
      <point x="322" y="35"/>
      <point x="279" y="10" type="curve" smooth="yes"/>
      <point x="222" y="-23"/>
      <point x="60" y="-24"/>
      <point x="60" y="101" type="curve" smooth="yes"/>
      <point x="60" y="229"/>
      <point x="201" y="243"/>
    </contour>
    <contour>
      <point x="384" y="241" type="curve" smooth="yes"/>
      <point x="384" y="193"/>
      <point x="360" y="21"/>
      <point x="446" y="21" type="curve" smooth="yes"/>
      <point x="454" y="21"/>
      <point x="461" y="15"/>
      <point x="461" y="6" type="curve" smooth="yes"/>
      <point x="460" y="-6"/>
      <point x="416" y="-1"/>
      <point x="398" y="20" type="curve" smooth="yes"/>
      <point x="348" y="79"/>
      <point x="365" y="166"/>
      <point x="365" y="226" type="curve" smooth="yes"/>
      <point x="365" y="393"/>
      <point x="258" y="392"/>
      <point x="221" y="392" type="curve" smooth="yes"/>
      <point x="186" y="392"/>
      <point x="159" y="386"/>
      <point x="127" y="367" type="curve" smooth="yes"/>
      <point x="117" y="362"/>
      <point x="101" y="354"/>
      <point x="97" y="362" type="curve" smooth="yes"/>
      <point x="92" y="372"/>
      <point x="98" y="377"/>
      <point x="127" y="390" type="curve" smooth="yes"/>
      <point x="144" y="397"/>
      <point x="176" y="410"/>
      <point x="228" y="410" type="curve" smooth="yes"/>
      <point x="258" y="410"/>
      <point x="384" y="407"/>
    </contour>
  </outline>
</glyph>
<glyph name="b" format="2">
  <advance width="500.0"/>
  <unicode hex="0062"/>
  <anchor x="260.0" y="600.0" name="top"/>
  <anchor x="178" y="-8" name="cedilla"/>
  <anchor x="178" y="-8" name="ogonek"/>
  <anchor x="250.0" y="0.0" name="bottom"/>
  <outline>
    <contour>
      <point x="127" y="15" type="curve" smooth="yes"/>
      <point x="124" y="18"/>
      <point x="98" y="46"/>
      <point x="94" y="81" type="curve" smooth="yes"/>
      <point x="92" y="99"/>
      <point x="89" y="169"/>
      <point x="100" y="301" type="curve" smooth="yes"/>
      <point x="111" y="433"/>
      <point x="101" y="527"/>
      <point x="101" y="561" type="curve" smooth="yes"/>
      <point x="100" y="582"/>
      <point x="102" y="606"/>
      <point x="114" y="602" type="curve" smooth="yes"/>
      <point x="128" y="598"/>
      <point x="119" y="594"/>
      <point x="119" y="561" type="curve" smooth="yes"/>
      <point x="119" y="530"/>
      <point x="129" y="445"/>
      <point x="122" y="343" type="curve" smooth="yes"/>
      <point x="112" y="208"/>
      <point x="108" y="95"/>
      <point x="115" y="75" type="curve" smooth="yes"/>
      <point x="129" y="38"/>
      <point x="147.80444098126094" y="13"/>
      <point x="179" y="13" type="curve" smooth="yes"/>
      <point x="254" y="13"/>
      <point x="397" y="76"/>
      <point x="397" y="224" type="curve" smooth="yes"/>
      <point x="397" y="370"/>
      <point x="307" y="388"/>
      <point x="245" y="388" type="curve" smooth="yes"/>
      <point x="144" y="388"/>
      <point x="128" y="340"/>
      <point x="112" y="289" type="curve"/>
      <point x="116" y="339" type="line"/>
      <point x="121" y="373"/>
      <point x="161" y="411"/>
      <point x="234" y="411" type="curve" smooth="yes"/>
      <point x="261" y="411"/>
      <point x="419" y="419"/>
      <point x="419" y="232" type="curve" smooth="yes"/>
      <point x="419" y="20"/>
      <point x="212" y="-8"/>
      <point x="178" y="-8" type="curve" smooth="yes"/>
      <point x="159" y="-8"/>
      <point x="140" y="2"/>
    </contour>
  </outline>
</glyph>
<glyph name="c" format="2">
  <advance width="500.0"/>
  <unicode hex="0063"/>
  <anchor x="250.0" y="400.0" name="top"/>
  <anchor x="261" y="-10" name="cedilla"/>
  <anchor x="261" y="-10" name="ogonek"/>
  <anchor x="250" y="0" name="bottom"/>
  <outline>
    <contour>
      <point x="399" y="90" type="curve" smooth="yes"/>
      <point x="416" y="115"/>
      <point x="411" y="142"/>
      <point x="428" y="135" type="curve" smooth="yes"/>
      <point x="440" y="130"/>
      <point x="439" y="121"/>
      <point x="426" y="96" type="curve" smooth="yes"/>
      <point x="385" y="16"/>
      <point x="321" y="-10"/>
      <point x="261" y="-10" type="curve" smooth="yes"/>
      <point x="171" y="-10"/>
      <point x="61" y="53"/>
      <point x="61" y="200" type="curve" smooth="yes"/>
      <point x="61" y="353"/>
      <point x="171" y="410"/>
      <point x="261" y="410" type="curve" smooth="yes"/>
      <point x="333" y="410"/>
      <point x="376" y="389"/>
      <point x="426" y="324" type="curve" smooth="yes"/>
      <point x="437" y="309"/>
      <point x="435" y="301"/>
      <point x="427" y="296" type="curve" smooth="yes"/>
      <point x="417" y="290"/>
      <point x="412" y="313"/>
      <point x="386" y="339" type="curve" smooth="yes"/>
      <point x="355" y="369"/>
      <point x="328" y="392"/>
      <point x="262" y="392" type="curve" smooth="yes"/>
      <point x="181" y="392"/>
      <point x="81" y="347"/>
      <point x="81" y="200" type="curve" smooth="yes"/>
      <point x="81" y="64"/>
      <point x="186" y="8"/>
      <point x="262" y="8" type="curve" smooth="yes"/>
      <point x="323" y="8"/>
      <point x="358" y="30"/>
    </contour>
  </outline>
</glyph>
<glyph name="d" format="2">
  <advance width="500.0"/>
  <unicode hex="0064"/>
  <anchor x="240.0" y="600.0" name="top"/>
  <anchor x="240" y="-7" name="cedilla"/>
  <anchor x="433" y="-3" name="ogonek"/>
  <anchor x="227.0" y="0.0" name="bottom"/>
  <outline>
    <contour>
      <point x="386" y="606" type="curve" smooth="yes"/>
      <point x="395" y="606"/>
      <point x="397" y="597"/>
      <point x="397" y="566" type="curve" smooth="yes"/>
      <point x="397" y="534"/>
      <point x="396" y="471"/>
      <point x="398" y="343" type="curve" smooth="yes"/>
      <point x="400" y="237"/>
      <point x="395" y="141"/>
      <point x="398" y="57" type="curve" smooth="yes"/>
      <point x="399" y="23"/>
      <point x="411" y="24"/>
      <point x="417" y="21" type="curve" smooth="yes"/>
      <point x="429" y="15"/>
      <point x="468" y="27"/>
      <point x="468" y="5" type="curve" smooth="yes"/>
      <point x="468" y="-4"/>
      <point x="449" y="-3"/>
      <point x="433" y="-3" type="curve" smooth="yes"/>
      <point x="383" y="-2"/>
      <point x="375" y="38"/>
      <point x="377" y="94" type="curve" smooth="yes"/>
      <point x="379" y="149"/>
      <point x="379" y="260"/>
      <point x="379" y="321" type="curve" smooth="yes"/>
      <point x="380" y="441"/>
      <point x="379" y="527"/>
      <point x="378" y="561" type="curve" smooth="yes"/>
      <point x="377" y="589"/>
      <point x="374" y="606"/>
    </contour>
    <contour>
      <point x="380" y="109" type="curve"/>
      <point x="381" y="83" type="line"/>
      <point x="344" y="34"/>
      <point x="284" y="-7"/>
      <point x="240" y="-7" type="curve" smooth="yes"/>
      <point x="141" y="-7"/>
      <point x="60" y="53"/>
      <point x="60" y="200" type="curve" smooth="yes"/>
      <point x="60" y="363"/>
      <point x="150" y="410"/>
      <point x="260" y="410" type="curve" smooth="yes"/>
      <point x="342" y="410"/>
      <point x="362" y="372"/>
      <point x="382" y="303" type="curve"/>
      <point x="381" y="283" type="line"/>
      <point x="348" y="354"/>
      <point x="339" y="392"/>
      <point x="243" y="391" type="curve" smooth="yes"/>
      <point x="172" y="390"/>
      <point x="80" y="352"/>
      <point x="80" y="200" type="curve" smooth="yes"/>
      <point x="80" y="55"/>
      <point x="163" y="8"/>
      <point x="237" y="8" type="curve" smooth="yes"/>
      <point x="283" y="8"/>
      <point x="344" y="68"/>
    </contour>
  </outline>
</glyph>
<glyph name="e" format="2">
  <advance width="500.0"/>
  <unicode hex="0065"/>
  <anchor x="260.0" y="400.0" name="top"/>
  <anchor x="221" y="-15" name="cedilla"/>
  <anchor x="353" y="0" name="ogonek"/>
  <anchor x="250" y="0" name="bottom"/>
  <outline>
    <contour>
      <point x="402" y="194" type="curve" smooth="yes"/>
      <point x="351" y="192"/>
      <point x="268" y="194"/>
      <point x="229" y="192" type="curve" smooth="yes"/>
      <point x="187" y="190"/>
      <point x="92" y="189"/>
      <point x="75" y="189" type="curve"/>
      <point x="75" y="209" type="line"/>
      <point x="123" y="208"/>
      <point x="228" y="211"/>
      <point x="250" y="211" type="curve" smooth="yes"/>
      <point x="298.450235726137" y="211"/>
      <point x="369" y="210"/>
      <point x="418" y="215" type="curve"/>
      <point x="418" y="345"/>
      <point x="345" y="391"/>
      <point x="256" y="391" type="curve" smooth="yes"/>
      <point x="198" y="391"/>
      <point x="80" y="323"/>
      <point x="80" y="200" type="curve" smooth="yes"/>
      <point x="80" y="45"/>
      <point x="148" y="3"/>
      <point x="236" y="3" type="curve" smooth="yes"/>
      <point x="293" y="3"/>
      <point x="355" y="19"/>
      <point x="374" y="28" type="curve" smooth="yes"/>
      <point x="397" y="39"/>
      <point x="405" y="47"/>
      <point x="419" y="55" type="curve" smooth="yes"/>
      <point x="428" y="60"/>
      <point x="443" y="44"/>
      <point x="428" y="34" type="curve" smooth="yes"/>
      <point x="395" y="11"/>
      <point x="339" y="-15"/>
      <point x="221" y="-15" type="curve" smooth="yes"/>
      <point x="133" y="-15"/>
      <point x="61" y="37"/>
      <point x="61" y="200" type="curve" smooth="yes"/>
      <point x="61" y="337"/>
      <point x="181" y="410"/>
      <point x="261" y="410" type="curve" smooth="yes"/>
      <point x="358" y="410"/>
      <point x="437" y="349"/>
      <point x="437" y="225" type="curve" smooth="yes"/>
      <point x="437" y="193.21849101043406"/>
      <point x="431" y="195"/>
    </contour>
  </outline>
</glyph>
<glyph name="f" format="2">
  <advance width="500.0"/>
  <unicode hex="0066"/>
  <anchor x="300.0" y="600.0" name="top"/>
  <anchor x="159" y="-9" name="cedilla"/>
  <anchor x="159" y="-9" name="ogonek"/>
  <anchor x="250.0" y="0.0" name="bottom"/>
  <outline>
    <contour>
      <point x="445" y="515" type="curve" smooth="yes"/>
      <point x="435" y="508"/>
      <point x="425" y="526"/>
      <point x="405" y="546" type="curve" smooth="yes"/>
      <point x="360" y="590"/>
      <point x="299" y="593"/>
      <point x="264" y="586" type="curve" smooth="yes"/>
      <point x="199" y="573"/>
      <point x="167" y="528"/>
      <point x="168" y="329" type="curve" smooth="yes"/>
      <point x="169" y="198"/>
      <point x="169" y="81"/>
      <point x="169" y="56" type="curve" smooth="yes"/>
      <point x="169" y="9"/>
      <point x="173" y="-9"/>
      <point x="159" y="-9" type="curve" smooth="yes"/>
      <point x="149" y="-9"/>
      <point x="149" y="17"/>
      <point x="149" y="57" type="curve" smooth="yes"/>
      <point x="149" y="201"/>
      <point x="151" y="365"/>
      <point x="153" y="407" type="curve" smooth="yes"/>
      <point x="155" y="445"/>
      <point x="151" y="611"/>
      <point x="288" y="608" type="curve" smooth="yes"/>
      <point x="333" y="607"/>
      <point x="378" y="607"/>
      <point x="436" y="541" type="curve" smooth="yes"/>
      <point x="448" y="528"/>
      <point x="453" y="520"/>
    </contour>
    <contour>
      <point x="414" y="305" type="curve" smooth="yes"/>
      <point x="412" y="295"/>
      <point x="403" y="297"/>
      <point x="373" y="297" type="curve" smooth="yes"/>
      <point x="321" y="299"/>
      <point x="256" y="298"/>
      <point x="244" y="298" type="curve" smooth="yes"/>
      <point x="210" y="298"/>
      <point x="133" y="294"/>
      <point x="105" y="293" type="curve" smooth="yes"/>
      <point x="81" y="292"/>
      <point x="67" y="287"/>
      <point x="66" y="303" type="curve" smooth="yes"/>
      <point x="65" y="314"/>
      <point x="82" y="311"/>
      <point x="114" y="312" type="curve" smooth="yes"/>
      <point x="162" y="312"/>
      <point x="226" y="316"/>
      <point x="263" y="316" type="curve" smooth="yes"/>
      <point x="295" y="316"/>
      <point x="361" y="316"/>
      <point x="376" y="315" type="curve" smooth="yes"/>
      <point x="409" y="314"/>
      <point x="415" y="314"/>
    </contour>
  </outline>
</glyph>
<glyph name="g" format="2">
  <advance width="500.0"/>
  <unicode hex="0067"/>
  <anchor x="250.0" y="400.0" name="top"/>
  <anchor x="244" y="-107" name="cedilla"/>
  <anchor x="244" y="-107" name="ogonek"/>
  <anchor x="250.0" y="0.0" name="bottom"/>
  <outline>
    <contour>
      <point x="66" y="-52" type="curve" smooth="yes"/>
      <point x="76" y="-39"/>
      <point x="82" y="-55"/>
      <point x="106" y="-67" type="curve" smooth="yes"/>
      <point x="128" y="-78"/>
      <point x="178" y="-89"/>
      <point x="233" y="-88" type="curve" smooth="yes"/>
      <point x="344" y="-86"/>
      <point x="409" y="-60"/>
      <point x="426" y="45" type="curve" smooth="yes"/>
      <point x="433" y="91"/>
      <point x="420" y="131"/>
      <point x="414" y="195" type="curve" smooth="yes"/>
      <point x="406" y="282"/>
      <point x="410" y="341"/>
      <point x="427" y="367" type="curve" smooth="yes"/>
      <point x="439" y="386"/>
      <point x="439" y="396"/>
      <point x="451" y="387" type="curve" smooth="yes"/>
      <point x="462" y="379"/>
      <point x="438" y="359"/>
      <point x="431" y="314" type="curve" smooth="yes"/>
      <point x="424" y="268"/>
      <point x="430" y="224"/>
      <point x="433" y="197" type="curve" smooth="yes"/>
      <point x="439" y="149"/>
      <point x="447" y="107"/>
      <point x="447" y="84" type="curve" smooth="yes"/>
      <point x="446" y="22"/>
      <point x="440" y="-104"/>
      <point x="244" y="-107" type="curve" smooth="yes"/>
      <point x="178" y="-108"/>
      <point x="123" y="-100"/>
      <point x="86" y="-79" type="curve" smooth="yes"/>
      <point x="72" y="-71"/>
      <point x="59" y="-62"/>
    </contour>
    <contour>
      <point x="432" y="362" type="curve"/>
      <point x="422" y="342" type="line"/>
      <point x="384" y="376"/>
      <point x="329" y="399"/>
      <point x="299" y="399" type="curve" smooth="yes"/>
      <point x="189" y="399"/>
      <point x="86" y="283"/>
      <point x="86" y="221" type="curve" smooth="yes"/>
      <point x="86" y="86"/>
      <point x="194" y="76"/>
      <point x="227" y="78" type="curve" smooth="yes"/>
      <point x="270" y="80"/>
      <point x="339" y="118"/>
      <point x="417" y="243" type="curve"/>
      <point x="419" y="215" type="line"/>
      <point x="349" y="100"/>
      <point x="278" y="59"/>
      <point x="231" y="59" type="curve" smooth="yes"/>
      <point x="197" y="59"/>
      <point x="69" y="58"/>
      <point x="69" y="217" type="curve" smooth="yes"/>
      <point x="69" y="320"/>
      <point x="205" y="416"/>
      <point x="295" y="417" type="curve" smooth="yes"/>
      <point x="328" y="417"/>
      <point x="408" y="386"/>
    </contour>
  </outline>
</glyph>
<glyph name="h" format="2">
  <advance width="500.0"/>
  <unicode hex="0068"/>
  <anchor x="270.0" y="600.0" name="top"/>
  <anchor x="114" y="-8" name="cedilla"/>
  <anchor x="393" y="-9" name="ogonek"/>
  <anchor x="250.0" y="0.0" name="bottom"/>
  <outline>
    <contour>
      <point x="124" y="601" type="curve" smooth="yes"/>
      <point x="136" y="604"/>
      <point x="138" y="586"/>
      <point x="136" y="558" type="curve" smooth="yes"/>
      <point x="131" y="487"/>
      <point x="133" y="389"/>
      <point x="133" y="278" type="curve" smooth="yes"/>
      <point x="133" y="224"/>
      <point x="125" y="70"/>
      <point x="124" y="51" type="curve" smooth="yes"/>
      <point x="123" y="21"/>
      <point x="129" y="-8"/>
      <point x="114" y="-8" type="curve" smooth="yes"/>
      <point x="102" y="-8"/>
      <point x="102" y="16"/>
      <point x="104" y="48" type="curve" smooth="yes"/>
      <point x="107" y="89"/>
      <point x="117" y="229"/>
      <point x="115" y="346" type="curve" smooth="yes"/>
      <point x="113" y="499"/>
      <point x="122" y="547"/>
      <point x="119" y="578" type="curve" smooth="yes"/>
      <point x="118" y="594"/>
      <point x="114" y="598"/>
    </contour>
    <contour>
      <point x="394" y="46" type="curve" smooth="yes"/>
      <point x="398" y="18"/>
      <point x="403" y="-9"/>
      <point x="393" y="-9" type="curve" smooth="yes"/>
      <point x="376" y="-9"/>
      <point x="377" y="6"/>
      <point x="374" y="34" type="curve" smooth="yes"/>
      <point x="367" y="98"/>
      <point x="363" y="142"/>
      <point x="369" y="218" type="curve" smooth="yes"/>
      <point x="384" y="389"/>
      <point x="288" y="391"/>
      <point x="254" y="392" type="curve" smooth="yes"/>
      <point x="241" y="393"/>
      <point x="141" y="388"/>
      <point x="129" y="249" type="curve"/>
      <point x="128" y="306" type="line"/>
      <point x="143" y="404"/>
      <point x="234" y="410"/>
      <point x="262" y="410" type="curve" smooth="yes"/>
      <point x="310" y="410"/>
      <point x="400" y="393"/>
      <point x="388" y="234" type="curve" smooth="yes"/>
      <point x="382" y="160"/>
      <point x="386" y="108"/>
    </contour>
  </outline>
</glyph>
<glyph name="i" format="2">
  <advance width="500.0"/>
  <unicode hex="0069"/>
  <anchor x="250.0" y="600.0" name="top"/>
  <anchor x="250.0" y="0.0" name="cedilla"/>
  <anchor x="250.0" y="0.0" name="ogonek"/>
  <anchor x="250.0" y="0.0" name="bottom"/>
  <outline>
    <contour>
      <point x="270" y="526" type="curve" smooth="yes"/>
      <point x="270" y="507"/>
      <point x="253" y="497"/>
      <point x="239" y="497" type="curve" smooth="yes"/>
      <point x="224" y="497"/>
      <point x="209" y="508"/>
      <point x="209" y="526" type="curve" smooth="yes"/>
      <point x="209" y="547"/>
      <point x="225" y="556"/>
      <point x="239" y="556" type="curve" smooth="yes"/>
      <point x="254" y="556"/>
      <point x="270" y="546"/>
    </contour>
    <component base="idotless"/>
  </outline>
</glyph>
<glyph name="j" format="2">
  <advance width="500.0"/>
  <unicode hex="006A"/>
  <anchor x="280.0" y="600.0" name="top"/>
  <anchor x="250" y="-46" name="cedilla"/>
  <anchor x="250" y="-46" name="ogonek"/>
  <anchor x="250" y="-46" name="bottom"/>
  <outline>
    <contour>
      <point x="357" y="526" type="curve" smooth="yes"/>
      <point x="357" y="507"/>
      <point x="340" y="497"/>
      <point x="326" y="497" type="curve" smooth="yes"/>
      <point x="311" y="497"/>
      <point x="296" y="508"/>
      <point x="296" y="526" type="curve" smooth="yes"/>
      <point x="296" y="547"/>
      <point x="312" y="556"/>
      <point x="326" y="556" type="curve" smooth="yes"/>
      <point x="341" y="556"/>
      <point x="357" y="546"/>
    </contour>
    <component base="jdotless"/>
  </outline>
</glyph>
<glyph name="k" format="2">
  <advance width="500.0"/>
  <unicode hex="006B"/>
  <anchor x="237.0" y="600.0" name="top"/>
  <anchor x="105" y="-8" name="cedilla"/>
  <anchor x="414" y="4" name="ogonek"/>
  <anchor x="249.0" y="0.0" name="bottom"/>
  <outline>
    <contour>
      <point x="109" y="606" type="curve" smooth="yes"/>
      <point x="120" y="608"/>
      <point x="121" y="595"/>
      <point x="121" y="578" type="curve" smooth="yes"/>
      <point x="122" y="423"/>
      <point x="121" y="324"/>
      <point x="120" y="252" type="curve" smooth="yes"/>
      <point x="120" y="197"/>
      <point x="118" y="46"/>
      <point x="118" y="35" type="curve" smooth="yes"/>
      <point x="118" y="8"/>
      <point x="122" y="-8"/>
      <point x="105" y="-8" type="curve" smooth="yes"/>
      <point x="97" y="-8"/>
      <point x="97" y="8"/>
      <point x="99" y="29" type="curve" smooth="yes"/>
      <point x="101" y="62"/>
      <point x="99" y="229"/>
      <point x="101" y="345" type="curve" smooth="yes"/>
      <point x="103" y="473"/>
      <point x="103" y="529"/>
      <point x="102" y="583" type="curve" smooth="yes"/>
      <point x="102" y="598"/>
      <point x="101" y="605"/>
    </contour>
    <contour>
      <point x="366" y="408" type="curve" smooth="yes"/>
      <point x="372" y="401"/>
      <point x="367" y="394"/>
      <point x="343" y="374" type="curve" smooth="yes"/>
      <point x="317" y="352"/>
      <point x="302" y="337"/>
      <point x="267" y="307" type="curve" smooth="yes"/>
      <point x="200" y="249"/>
      <point x="137" y="191"/>
      <point x="115" y="175" type="curve"/>
      <point x="116" y="201" type="line"/>
      <point x="160" y="240"/>
      <point x="201" y="277"/>
      <point x="243" y="313" type="curve" smooth="yes"/>
      <point x="277" y="343"/>
      <point x="305" y="367"/>
      <point x="329" y="388" type="curve" smooth="yes"/>
      <point x="357" y="414"/>
      <point x="360" y="415"/>
    </contour>
    <contour>
      <point x="233" y="286" type="line"/>
      <point x="284" y="202"/>
      <point x="300" y="177"/>
      <point x="311" y="158" type="curve" smooth="yes"/>
      <point x="338" y="109"/>
      <point x="366" y="73"/>
      <point x="384" y="54" type="curve" smooth="yes"/>
      <point x="398" y="40"/>
      <point x="426" y="20"/>
      <point x="438" y="20" type="curve" smooth="yes"/>
      <point x="451" y="18"/>
      <point x="459" y="23"/>
      <point x="459" y="8" type="curve" smooth="yes"/>
      <point x="460" y="-3"/>
      <point x="429" y="-5"/>
      <point x="414" y="4" type="curve" smooth="yes"/>
      <point x="407" y="8"/>
      <point x="394" y="16"/>
      <point x="375" y="35" type="curve" smooth="yes"/>
      <point x="352" y="57"/>
      <point x="341" y="71"/>
      <point x="325" y="95" type="curve" smooth="yes"/>
      <point x="288" y="151"/>
      <point x="275" y="181"/>
      <point x="215" y="270" type="curve"/>
    </contour>
  </outline>
</glyph>
<glyph name="l" format="2">
  <advance width="500.0"/>
  <unicode hex="006C"/>
  <anchor x="214" y="600" name="top"/>
  <anchor x="319" y="-14" name="cedilla"/>
  <anchor x="319" y="-14" name="ogonek"/>
  <anchor x="283" y="0" name="bottom"/>
  <outline>
    <contour>
      <point x="64" y="591" type="curve" smooth="yes"/>
      <point x="65" y="602"/>
      <point x="75" y="603"/>
      <point x="107" y="602" type="curve" smooth="yes"/>
      <point x="110" y="602"/>
      <point x="130" y="600"/>
      <point x="155" y="600" type="curve" smooth="yes"/>
      <point x="185" y="600"/>
      <point x="197" y="601"/>
      <point x="211" y="602" type="curve" smooth="yes"/>
      <point x="224" y="602"/>
      <point x="229" y="602"/>
      <point x="229" y="599" type="curve" smooth="yes"/>
      <point x="221" y="433"/>
      <point x="214" y="264"/>
      <point x="213" y="139" type="curve" smooth="yes"/>
      <point x="212" y="42"/>
      <point x="244" y="5"/>
      <point x="305" y="5" type="curve" smooth="yes"/>
      <point x="353" y="5"/>
      <point x="385" y="18"/>
      <point x="399" y="27" type="curve" smooth="yes"/>
      <point x="426" y="44"/>
      <point x="431" y="48"/>
      <point x="436" y="41" type="curve" smooth="yes"/>
      <point x="443" y="31"/>
      <point x="439" y="25"/>
      <point x="409" y="10" type="curve" smooth="yes"/>
      <point x="381" y="-5"/>
      <point x="347" y="-13"/>
      <point x="319" y="-14" type="curve" smooth="yes"/>
      <point x="288" y="-15"/>
      <point x="254" y="-15"/>
      <point x="225" y="13" type="curve" smooth="yes"/>
      <point x="200" y="38"/>
      <point x="192" y="102"/>
      <point x="194" y="164" type="curve" smooth="yes"/>
      <point x="198" y="308"/>
      <point x="204" y="446"/>
      <point x="208" y="583" type="curve"/>
      <point x="188" y="578"/>
      <point x="111" y="580"/>
      <point x="105" y="581" type="curve" smooth="yes"/>
      <point x="84" y="583"/>
      <point x="63" y="574"/>
    </contour>
  </outline>
</glyph>
<glyph name="m" format="2">
  <advance width="500.0"/>
  <unicode hex="006D"/>
  <anchor x="250.0" y="400.0" name="top"/>
  <anchor x="250" y="-8" name="cedilla"/>
  <anchor x="438" y="-8" name="ogonek"/>
  <anchor x="250" y="0" name="bottom"/>
  <outline>
    <contour>
      <point x="64" y="409" type="curve" smooth="yes"/>
      <point x="85" y="411"/>
      <point x="75" y="396"/>
      <point x="75" y="366" type="curve" smooth="yes"/>
      <point x="75" y="239"/>
      <point x="75" y="174"/>
      <point x="71" y="55" type="curve" smooth="yes"/>
      <point x="69" y="7"/>
      <point x="76" y="-8"/>
      <point x="61" y="-8" type="curve" smooth="yes"/>
      <point x="48" y="-8"/>
      <point x="50" y="9"/>
      <point x="51" y="50" type="curve" smooth="yes"/>
      <point x="54" y="186"/>
      <point x="55" y="229"/>
      <point x="52" y="363" type="curve" smooth="yes"/>
      <point x="53" y="397"/>
      <point x="53" y="408"/>
    </contour>
    <contour>
      <point x="259" y="41" type="curve" smooth="yes"/>
      <point x="260" y="-2"/>
      <point x="261" y="-8"/>
      <point x="250" y="-8" type="curve" smooth="yes"/>
      <point x="237" y="-8"/>
      <point x="236" y="3"/>
      <point x="237" y="32" type="curve" smooth="yes"/>
      <point x="238" y="96"/>
      <point x="237" y="149"/>
      <point x="240" y="225" type="curve" smooth="yes"/>
      <point x="245" y="363"/>
      <point x="241" y="393"/>
      <point x="197" y="393" type="curve" smooth="yes"/>
      <point x="175" y="393"/>
      <point x="97" y="347"/>
      <point x="74" y="280" type="curve"/>
      <point x="68" y="302" type="line"/>
      <point x="86" y="377"/>
      <point x="174" y="410"/>
      <point x="200" y="410" type="curve" smooth="yes"/>
      <point x="248" y="410"/>
      <point x="266" y="393"/>
      <point x="261" y="234" type="curve" smooth="yes"/>
      <point x="257" y="127"/>
      <point x="258" y="120"/>
    </contour>
    <contour>
      <point x="447" y="52" type="curve" smooth="yes"/>
      <point x="450" y="-3"/>
      <point x="449" y="-7"/>
      <point x="438" y="-8" type="curve" smooth="yes"/>
      <point x="424" y="-9"/>
      <point x="424" y="13"/>
      <point x="424" y="42" type="curve" smooth="yes"/>
      <point x="425" y="106"/>
      <point x="425" y="149"/>
      <point x="428" y="225" type="curve" smooth="yes"/>
      <point x="434" y="374"/>
      <point x="423" y="394"/>
      <point x="384" y="394" type="curve" smooth="yes"/>
      <point x="353" y="394"/>
      <point x="278" y="356"/>
      <point x="256" y="268" type="curve"/>
      <point x="256" y="299" type="line"/>
      <point x="258" y="352"/>
      <point x="335" y="412"/>
      <point x="379" y="412" type="curve" smooth="yes"/>
      <point x="445" y="412"/>
      <point x="455" y="380"/>
      <point x="449" y="235" type="curve" smooth="yes"/>
      <point x="445" y="128"/>
      <point x="443" y="132"/>
    </contour>
  </outline>
</glyph>
<glyph name="n" format="2">
  <advance width="500.0"/>
  <unicode hex="006E"/>
  <anchor x="250" y="400" name="top"/>
  <anchor x="117" y="-8" name="cedilla"/>
  <anchor x="390" y="-8" name="ogonek"/>
  <anchor x="257.0" y="0.0" name="bottom"/>
  <outline>
    <contour>
      <point x="114" y="399" type="curve" smooth="yes"/>
      <point x="127" y="405"/>
      <point x="128" y="396"/>
      <point x="131" y="366" type="curve" smooth="yes"/>
      <point x="142" y="238"/>
      <point x="131" y="174"/>
      <point x="127" y="55" type="curve" smooth="yes"/>
      <point x="125" y="7"/>
      <point x="132" y="-8"/>
      <point x="117" y="-8" type="curve" smooth="yes"/>
      <point x="104" y="-8"/>
      <point x="106" y="9"/>
      <point x="107" y="50" type="curve" smooth="yes"/>
      <point x="110" y="186"/>
      <point x="121" y="229"/>
      <point x="111" y="363" type="curve" smooth="yes"/>
      <point x="109" y="397"/>
      <point x="103" y="394"/>
    </contour>
    <contour>
      <point x="399" y="41" type="curve" smooth="yes"/>
      <point x="401" y="-2"/>
      <point x="401" y="-8"/>
      <point x="390" y="-8" type="curve" smooth="yes"/>
      <point x="377" y="-8"/>
      <point x="379" y="3"/>
      <point x="377" y="32" type="curve" smooth="yes"/>
      <point x="372" y="98"/>
      <point x="374" y="148"/>
      <point x="380" y="225" type="curve" smooth="yes"/>
      <point x="393" y="379"/>
      <point x="329" y="393"/>
      <point x="287" y="393" type="curve" smooth="yes"/>
      <point x="265" y="393"/>
      <point x="151" y="357"/>
      <point x="130" y="240" type="curve"/>
      <point x="129" y="281" type="line"/>
      <point x="145" y="371"/>
      <point x="253" y="410"/>
      <point x="290" y="410" type="curve" smooth="yes"/>
      <point x="338" y="410"/>
      <point x="415" y="394"/>
      <point x="401" y="234" type="curve" smooth="yes"/>
      <point x="392" y="127"/>
      <point x="394" y="120"/>
    </contour>
  </outline>
</glyph>
<glyph name="o" format="2">
  <advance width="500.0"/>
  <unicode hex="006F"/>
  <anchor x="250.0" y="400.0" name="top"/>
  <anchor x="250" y="-10" name="cedilla"/>
  <anchor x="250" y="-10" name="ogonek"/>
  <anchor x="250" y="0" name="bottom"/>
  <anchor x="404" y="347" name="horn"/>
  <outline>
    <contour>
      <point x="250" y="415" type="curve" smooth="yes"/>
      <point x="362" y="415"/>
      <point x="438" y="374"/>
      <point x="438" y="204" type="curve" smooth="yes"/>
      <point x="438" y="42"/>
      <point x="364" y="-10"/>
      <point x="250" y="-10" type="curve" smooth="yes"/>
      <point x="140" y="-10"/>
      <point x="62" y="43"/>
      <point x="62" y="200" type="curve" smooth="yes"/>
      <point x="62" y="373"/>
      <point x="140" y="415"/>
    </contour>
    <contour>
      <point x="250" y="11" type="curve" smooth="yes"/>
      <point x="354" y="11"/>
      <point x="418" y="61"/>
      <point x="418" y="206" type="curve" smooth="yes"/>
      <point x="418" y="353"/>
      <point x="355" y="397"/>
      <point x="250" y="397" type="curve" smooth="yes"/>
      <point x="149" y="397"/>
      <point x="82" y="356"/>
      <point x="82" y="200" type="curve" smooth="yes"/>
      <point x="82" y="61"/>
      <point x="144" y="11"/>
    </contour>
  </outline>
</glyph>
<glyph name="p" format="2">
  <advance width="500.0"/>
  <unicode hex="0070"/>
  <anchor x="270.0" y="400.0" name="top"/>
  <anchor x="104" y="-111" name="cedilla"/>
  <anchor x="104" y="-111" name="ogonek"/>
  <anchor x="233.0" y="-100.0" name="bottom"/>
  <outline>
    <contour>
      <point x="109" y="287" type="curve"/>
      <point x="111" y="313" type="line"/>
      <point x="120" y="359"/>
      <point x="206" y="405"/>
      <point x="258" y="405" type="curve" smooth="yes"/>
      <point x="357" y="405"/>
      <point x="469" y="360"/>
      <point x="439" y="235" type="curve" smooth="yes"/>
      <point x="395" y="52"/>
      <point x="274" y="37"/>
      <point x="210" y="68" type="curve" smooth="yes"/>
      <point x="192" y="77"/>
      <point x="150" y="92"/>
      <point x="109" y="149" type="curve"/>
      <point x="109" y="172" type="line"/>
      <point x="111" y="182"/>
      <point x="158" y="102"/>
      <point x="228" y="79" type="curve" smooth="yes"/>
      <point x="322" y="49"/>
      <point x="390" y="124"/>
      <point x="418" y="223" type="curve" smooth="yes"/>
      <point x="457" y="363"/>
      <point x="322" y="388"/>
      <point x="258" y="388" type="curve" smooth="yes"/>
      <point x="222" y="388"/>
      <point x="128" y="350"/>
    </contour>
    <contour>
      <point x="88" y="399" type="curve" smooth="yes"/>
      <point x="95" y="411"/>
      <point x="112" y="394"/>
      <point x="115" y="383" type="curve" smooth="yes"/>
      <point x="119" y="365"/>
      <point x="118" y="344"/>
      <point x="118" y="334" type="curve" smooth="yes"/>
      <point x="114" y="216"/>
      <point x="121" y="32"/>
      <point x="115" y="-77" type="curve" smooth="yes"/>
      <point x="113" y="-111"/>
      <point x="112" y="-111"/>
      <point x="104" y="-111" type="curve" smooth="yes"/>
      <point x="98" y="-111"/>
      <point x="95" y="-111"/>
      <point x="96" y="-83" type="curve" smooth="yes"/>
      <point x="100" y="39"/>
      <point x="96" y="209"/>
      <point x="98" y="331" type="curve" smooth="yes"/>
      <point x="99" y="344"/>
      <point x="99" y="366"/>
      <point x="96" y="371" type="curve" smooth="yes"/>
      <point x="86" y="390"/>
      <point x="81" y="388"/>
    </contour>
  </outline>
</glyph>
<glyph name="q" format="2">
  <advance width="500.0"/>
  <unicode hex="0071"/>
  <anchor x="244" y="400" name="top"/>
  <anchor x="399" y="-106" name="cedilla"/>
  <anchor x="399" y="-106" name="ogonek"/>
  <anchor x="242" y="-100" name="bottom"/>
  <outline>
    <contour>
      <point x="370" y="358" type="curve"/>
      <point x="365" y="335" type="line"/>
      <point x="356" y="377"/>
      <point x="288" y="398"/>
      <point x="239" y="396" type="curve" smooth="yes"/>
      <point x="155" y="393"/>
      <point x="70" y="276"/>
      <point x="70" y="199" type="curve" smooth="yes"/>
      <point x="70" y="104"/>
      <point x="173" y="75"/>
      <point x="203" y="77" type="curve" smooth="yes"/>
      <point x="285" y="79"/>
      <point x="331" y="130"/>
      <point x="369" y="226" type="curve"/>
      <point x="368" y="191" type="line"/>
      <point x="325" y="60"/>
      <point x="236" y="56"/>
      <point x="192" y="58" type="curve" smooth="yes"/>
      <point x="177" y="59"/>
      <point x="53" y="74"/>
      <point x="53" y="198" type="curve" smooth="yes"/>
      <point x="53" y="301"/>
      <point x="152" y="408"/>
      <point x="244" y="412" type="curve" smooth="yes"/>
      <point x="302" y="415"/>
      <point x="362" y="387"/>
    </contour>
    <contour>
      <point x="406" y="396" type="curve" smooth="yes"/>
      <point x="421" y="386"/>
      <point x="383" y="367"/>
      <point x="381" y="346" type="curve" smooth="yes"/>
      <point x="380" y="332"/>
      <point x="384" y="248"/>
      <point x="381" y="163" type="curve" smooth="yes"/>
      <point x="379" y="103"/>
      <point x="350" y="-85"/>
      <point x="397" y="-85" type="curve"/>
      <point x="423" y="-85"/>
      <point x="406" y="-22"/>
      <point x="434" y="-9" type="curve" smooth="yes"/>
      <point x="457" y="2"/>
      <point x="486" y="-12"/>
      <point x="481" y="-27" type="curve" smooth="yes"/>
      <point x="479" y="-34"/>
      <point x="473" y="-35"/>
      <point x="452" y="-27" type="curve" smooth="yes"/>
      <point x="430" y="-18"/>
      <point x="440" y="-106"/>
      <point x="399" y="-106" type="curve" smooth="yes"/>
      <point x="347" y="-106"/>
      <point x="350" y="-5"/>
      <point x="353" y="30" type="curve" smooth="yes"/>
      <point x="364" y="156"/>
      <point x="368" y="238"/>
      <point x="361" y="350" type="curve" smooth="yes"/>
      <point x="361" y="360"/>
      <point x="361" y="356"/>
      <point x="374" y="375" type="curve" smooth="yes"/>
      <point x="387" y="395"/>
      <point x="392" y="406"/>
    </contour>
  </outline>
</glyph>
<glyph name="r" format="2">
  <advance width="500.0"/>
  <unicode hex="0072"/>
  <anchor x="240.0" y="400.0" name="top"/>
  <anchor x="133" y="-7" name="cedilla"/>
  <anchor x="133" y="-7" name="ogonek"/>
  <anchor x="260.0" y="0.0" name="bottom"/>
  <outline>
    <contour>
      <point x="83" y="396" type="curve" smooth="yes"/>
      <point x="91" y="401"/>
      <point x="88" y="397"/>
      <point x="107" y="376" type="curve" smooth="yes"/>
      <point x="146" y="330"/>
      <point x="141" y="245"/>
      <point x="141" y="17" type="curve" smooth="yes"/>
      <point x="141" y="-6"/>
      <point x="143" y="-7"/>
      <point x="133" y="-7" type="curve" smooth="yes"/>
      <point x="123" y="-7"/>
      <point x="123" y="-6"/>
      <point x="123" y="39" type="curve" smooth="yes"/>
      <point x="123" y="183"/>
      <point x="133" y="325"/>
      <point x="91" y="367" type="curve" smooth="yes"/>
      <point x="72" y="386"/>
      <point x="77" y="392"/>
    </contour>
    <contour>
      <point x="421" y="294" type="curve" smooth="yes"/>
      <point x="420" y="248"/>
      <point x="417" y="246"/>
      <point x="408" y="247" type="curve" smooth="yes"/>
      <point x="398" y="248"/>
      <point x="398" y="251"/>
      <point x="400" y="275" type="curve" smooth="yes"/>
      <point x="406" y="357"/>
      <point x="395" y="373"/>
      <point x="387" y="381" type="curve" smooth="yes"/>
      <point x="376" y="391"/>
      <point x="340" y="391"/>
      <point x="314" y="389" type="curve" smooth="yes"/>
      <point x="283" y="387"/>
      <point x="205" y="350"/>
      <point x="132" y="276" type="curve"/>
      <point x="129" y="295" type="line"/>
      <point x="190" y="359"/>
      <point x="263" y="402"/>
      <point x="294" y="407" type="curve" smooth="yes"/>
      <point x="334" y="413"/>
      <point x="384" y="413"/>
      <point x="403" y="395" type="curve" smooth="yes"/>
      <point x="426" y="372"/>
      <point x="423" y="358"/>
    </contour>
  </outline>
</glyph>
<glyph name="s" format="2">
  <advance width="500.0"/>
  <unicode hex="0073"/>
  <anchor x="250.0" y="400.0" name="top"/>
  <anchor x="232" y="-12" name="cedilla"/>
  <anchor x="232" y="-12" name="ogonek"/>
  <anchor x="250" y="0" name="bottom"/>
  <outline>
    <contour>
      <point x="241.0" y="405.0" type="curve" smooth="yes"/>
      <point x="304.0" y="405.0"/>
      <point x="358" y="398"/>
      <point x="389" y="349" type="curve" smooth="yes"/>
      <point x="400" y="333"/>
      <point x="401" y="317"/>
      <point x="386" y="317" type="curve" smooth="yes"/>
      <point x="373" y="317"/>
      <point x="379" y="330"/>
      <point x="367" y="346" type="curve" smooth="yes"/>
      <point x="343" y="377"/>
      <point x="312" y="386"/>
      <point x="250" y="386" type="curve" smooth="yes"/>
      <point x="174" y="386"/>
      <point x="126" y="349"/>
      <point x="126" y="294" type="curve" smooth="yes"/>
      <point x="126" y="251"/>
      <point x="193" y="208"/>
      <point x="261" y="209" type="curve" smooth="yes"/>
      <point x="303" y="210"/>
      <point x="339" y="206"/>
      <point x="368" y="188" type="curve" smooth="yes"/>
      <point x="391" y="174"/>
      <point x="406" y="160"/>
      <point x="406" y="125" type="curve" smooth="yes"/>
      <point x="406" y="84"/>
      <point x="395" y="51"/>
      <point x="375" y="31" type="curve" smooth="yes"/>
      <point x="350" y="6"/>
      <point x="311" y="-12"/>
      <point x="232" y="-12" type="curve" smooth="yes"/>
      <point x="165" y="-12"/>
      <point x="118" y="18"/>
      <point x="89" y="49" type="curve" smooth="yes"/>
      <point x="74" y="64"/>
      <point x="78" y="70"/>
      <point x="83" y="75" type="curve" smooth="yes"/>
      <point x="89" y="80"/>
      <point x="98" y="71"/>
      <point x="108" y="60" type="curve" smooth="yes"/>
      <point x="153" y="9"/>
      <point x="213" y="8"/>
      <point x="238" y="9" type="curve" smooth="yes"/>
      <point x="287" y="10"/>
      <point x="322" y="18"/>
      <point x="352" y="40" type="curve" smooth="yes"/>
      <point x="374" y="57"/>
      <point x="385" y="84"/>
      <point x="385" y="114" type="curve" smooth="yes"/>
      <point x="385" y="134"/>
      <point x="387" y="156"/>
      <point x="356" y="171" type="curve" smooth="yes"/>
      <point x="323" y="187"/>
      <point x="300" y="190"/>
      <point x="258" y="190" type="curve" smooth="yes"/>
      <point x="172" y="190"/>
      <point x="105" y="248"/>
      <point x="105" y="293" type="curve" smooth="yes"/>
      <point x="105" y="347"/>
      <point x="153.0" y="405.0"/>
    </contour>
  </outline>
</glyph>
<glyph name="t" format="2">
  <advance width="500.0"/>
  <unicode hex="0074"/>
  <anchor x="250.0" y="600.0" name="top"/>
  <anchor x="280" y="-14" name="cedilla"/>
  <anchor x="280" y="-14" name="ogonek"/>
  <anchor x="262.0" y="0.0" name="bottom"/>
  <outline>
    <contour>
      <point x="447" y="44" type="curve" smooth="yes"/>
      <point x="453" y="29"/>
      <point x="426" y="20"/>
      <point x="406" y="13" type="curve" smooth="yes"/>
      <point x="371" y="0"/>
      <point x="333" y="-14"/>
      <point x="280" y="-14" type="curve" smooth="yes"/>
      <point x="245" y="-14"/>
      <point x="225" y="-7"/>
      <point x="204" y="25" type="curve" smooth="yes"/>
      <point x="172" y="75"/>
      <point x="181" y="172"/>
      <point x="180" y="195" type="curve" smooth="yes"/>
      <point x="179" y="237"/>
      <point x="181" y="417"/>
      <point x="185" y="561" type="curve" smooth="yes"/>
      <point x="186" y="601"/>
      <point x="179" y="607"/>
      <point x="194" y="607" type="curve" smooth="yes"/>
      <point x="208" y="607"/>
      <point x="203" y="607"/>
      <point x="203" y="560" type="curve" smooth="yes"/>
      <point x="203" y="517"/>
      <point x="200" y="397"/>
      <point x="200" y="257" type="curve" smooth="yes"/>
      <point x="200" y="111"/>
      <point x="200" y="79"/>
      <point x="221" y="39" type="curve" smooth="yes"/>
      <point x="241" y="0"/>
      <point x="287" y="3"/>
      <point x="321" y="9" type="curve" smooth="yes"/>
      <point x="343" y="13"/>
      <point x="368" y="22"/>
      <point x="401" y="35" type="curve" smooth="yes"/>
      <point x="429" y="45"/>
      <point x="442" y="57"/>
    </contour>
    <contour>
      <point x="55" y="378" type="curve" smooth="yes"/>
      <point x="56" y="386"/>
      <point x="66" y="385"/>
      <point x="96" y="385" type="curve" smooth="yes"/>
      <point x="148" y="384"/>
      <point x="244" y="383"/>
      <point x="256" y="383" type="curve" smooth="yes"/>
      <point x="290" y="383"/>
      <point x="331" y="381"/>
      <point x="375" y="383" type="curve" smooth="yes"/>
      <point x="401" y="384"/>
      <point x="413" y="384"/>
      <point x="412" y="372" type="curve" smooth="yes"/>
      <point x="411" y="362"/>
      <point x="392" y="362"/>
      <point x="360" y="362" type="curve" smooth="yes"/>
      <point x="312" y="362"/>
      <point x="238" y="360"/>
      <point x="201" y="362" type="curve" smooth="yes"/>
      <point x="169" y="363"/>
      <point x="108" y="363"/>
      <point x="93" y="365" type="curve" smooth="yes"/>
      <point x="60" y="367"/>
      <point x="54" y="366"/>
    </contour>
  </outline>
</glyph>
<glyph name="u" format="2">
  <advance width="500.0"/>
  <unicode hex="0075"/>
  <anchor x="240" y="400" name="top"/>
  <anchor x="203" y="-8" name="cedilla"/>
  <anchor x="410" y="-2" name="ogonek"/>
  <anchor x="239" y="0" name="bottom"/>
  <anchor x="383" y="361" name="horn"/>
  <outline>
    <contour>
      <point x="456" y="13" type="curve" smooth="yes"/>
      <point x="456" y="-5"/>
      <point x="441" y="-2"/>
      <point x="410" y="-2" type="curve" smooth="yes"/>
      <point x="364" y="-2"/>
      <point x="363" y="57"/>
      <point x="363" y="68" type="curve" smooth="yes"/>
      <point x="365" y="165"/>
      <point x="362" y="244"/>
      <point x="368" y="352" type="curve" smooth="yes"/>
      <point x="370" y="399"/>
      <point x="371" y="409"/>
      <point x="384" y="409" type="curve" smooth="yes"/>
      <point x="395" y="409"/>
      <point x="392" y="404"/>
      <point x="389" y="357" type="curve" smooth="yes"/>
      <point x="381" y="235"/>
      <point x="384" y="173"/>
      <point x="384" y="67" type="curve" smooth="yes"/>
      <point x="384" y="56"/>
      <point x="389" y="19"/>
      <point x="413" y="20" type="curve" smooth="yes"/>
      <point x="445" y="21"/>
      <point x="456" y="25"/>
    </contour>
    <contour>
      <point x="94" y="361" type="curve" smooth="yes"/>
      <point x="95" y="404"/>
      <point x="92" y="410"/>
      <point x="103" y="410" type="curve" smooth="yes"/>
      <point x="116" y="410"/>
      <point x="112" y="399"/>
      <point x="112" y="370" type="curve" smooth="yes"/>
      <point x="113" y="300"/>
      <point x="112" y="258"/>
      <point x="112" y="177" type="curve" smooth="yes"/>
      <point x="112" y="16"/>
      <point x="165" y="11"/>
      <point x="206" y="11" type="curve" smooth="yes"/>
      <point x="259" y="11"/>
      <point x="356" y="11"/>
      <point x="367" y="167" type="curve"/>
      <point x="368" y="108" type="line"/>
      <point x="360" y="-14"/>
      <point x="229" y="-8"/>
      <point x="203" y="-8" type="curve" smooth="yes"/>
      <point x="155" y="-8"/>
      <point x="91" y="6"/>
      <point x="92" y="168" type="curve" smooth="yes"/>
      <point x="93" y="278"/>
      <point x="93" y="289"/>
    </contour>
  </outline>
</glyph>
<glyph name="v" format="2">
  <advance width="500.0"/>
  <unicode hex="0076"/>
  <anchor x="250.0" y="400.0" name="top"/>
  <anchor x="250" y="-9" name="cedilla"/>
  <anchor x="250" y="-9" name="ogonek"/>
  <anchor x="250" y="0" name="bottom"/>
  <outline>
    <contour>
      <point x="46" y="409" type="curve" smooth="yes"/>
      <point x="57" y="416"/>
      <point x="57" y="407"/>
      <point x="72" y="380" type="curve" smooth="yes"/>
      <point x="213" y="126"/>
      <point x="229" y="9"/>
      <point x="250" y="9" type="curve"/>
      <point x="267" y="9"/>
      <point x="287" y="123"/>
      <point x="428" y="383" type="curve" smooth="yes"/>
      <point x="443" y="411"/>
      <point x="439" y="415"/>
      <point x="451" y="407" type="curve" smooth="yes"/>
      <point x="461" y="401"/>
      <point x="458" y="399"/>
      <point x="444" y="375" type="curve" smooth="yes"/>
      <point x="386" y="272"/>
      <point x="347" y="176"/>
      <point x="289" y="42" type="curve" smooth="yes"/>
      <point x="277" y="14"/>
      <point x="270" y="-9"/>
      <point x="250" y="-9" type="curve" smooth="yes"/>
      <point x="231" y="-9"/>
      <point x="224" y="11"/>
      <point x="211" y="42" type="curve" smooth="yes"/>
      <point x="145" y="195"/>
      <point x="119" y="256"/>
      <point x="55" y="372" type="curve" smooth="yes"/>
      <point x="45" y="391"/>
      <point x="36" y="403"/>
    </contour>
  </outline>
</glyph>
<glyph name="w" format="2">
  <advance width="500.0"/>
  <unicode hex="0077"/>
  <anchor x="250.0" y="400.0" name="top"/>
  <anchor x="156" y="-9" name="cedilla"/>
  <anchor x="340" y="-9" name="ogonek"/>
  <anchor x="250.0" y="0.0" name="bottom"/>
  <outline>
    <contour>
      <point x="36" y="405" type="curve" smooth="yes"/>
      <point x="49" y="409"/>
      <point x="48" y="400"/>
      <point x="56" y="376" type="curve" smooth="yes"/>
      <point x="100" y="235"/>
      <point x="148" y="12"/>
      <point x="157" y="12" type="curve"/>
      <point x="164" y="12"/>
      <point x="206" y="135"/>
      <point x="219" y="163" type="curve" smooth="yes"/>
      <point x="232" y="193"/>
      <point x="234" y="202"/>
      <point x="249" y="202" type="curve" smooth="yes"/>
      <point x="265" y="202"/>
      <point x="271" y="193"/>
      <point x="282" y="165" type="curve" smooth="yes"/>
      <point x="302" y="115"/>
      <point x="332" y="12"/>
      <point x="339" y="12" type="curve"/>
      <point x="350" y="12"/>
      <point x="397" y="260"/>
      <point x="432" y="372" type="curve" smooth="yes"/>
      <point x="442" y="405"/>
      <point x="448" y="406"/>
      <point x="454" y="404" type="curve" smooth="yes"/>
      <point x="464" y="400"/>
      <point x="457" y="390"/>
      <point x="450" y="364" type="curve" smooth="yes"/>
      <point x="419" y="256"/>
      <point x="398" y="160"/>
      <point x="369" y="47" type="curve" smooth="yes"/>
      <point x="360" y="14"/>
      <point x="353" y="-9"/>
      <point x="340" y="-9" type="curve" smooth="yes"/>
      <point x="322" y="-9"/>
      <point x="316" y="14"/>
      <point x="303" y="52" type="curve" smooth="yes"/>
      <point x="276" y="131"/>
      <point x="259" y="183"/>
      <point x="250" y="183" type="curve"/>
      <point x="243" y="183"/>
      <point x="226" y="130"/>
      <point x="195" y="54" type="curve" smooth="yes"/>
      <point x="181" y="20"/>
      <point x="171" y="-9"/>
      <point x="156" y="-9" type="curve" smooth="yes"/>
      <point x="141" y="-9"/>
      <point x="139" y="13"/>
      <point x="129" y="47" type="curve" smooth="yes"/>
      <point x="102" y="136"/>
      <point x="70" y="271"/>
      <point x="39" y="364" type="curve" smooth="yes"/>
      <point x="32" y="385"/>
      <point x="23" y="401"/>
    </contour>
  </outline>
</glyph>
<glyph name="x" format="2">
  <advance width="500.0"/>
  <unicode hex="0078"/>
  <anchor x="250.0" y="400.0" name="top"/>
  <anchor x="96" y="1" name="cedilla"/>
  <anchor x="405" y="0" name="ogonek"/>
  <anchor x="250.0" y="0.0" name="bottom"/>
  <outline>
    <contour>
      <point x="88" y="408" type="curve" smooth="yes"/>
      <point x="103" y="424"/>
      <point x="115" y="394"/>
      <point x="140" y="366" type="curve" smooth="yes"/>
      <point x="177" y="326"/>
      <point x="316" y="129"/>
      <point x="366" y="76" type="curve" smooth="yes"/>
      <point x="399" y="41"/>
      <point x="437" y="11"/>
      <point x="421" y="-4" type="curve" smooth="yes"/>
      <point x="409" y="-15"/>
      <point x="404" y="5"/>
      <point x="380" y="29" type="curve" smooth="yes"/>
      <point x="302" y="107"/>
      <point x="209" y="255"/>
      <point x="135" y="343" type="curve" smooth="yes"/>
      <point x="100" y="385"/>
      <point x="78" y="398"/>
    </contour>
    <contour>
      <point x="410" y="407" type="curve" smooth="yes"/>
      <point x="421" y="395"/>
      <point x="389" y="370"/>
      <point x="359" y="332" type="curve" smooth="yes"/>
      <point x="292" y="246"/>
      <point x="197" y="117"/>
      <point x="125" y="32" type="curve" smooth="yes"/>
      <point x="97" y="-1"/>
      <point x="87" y="-13"/>
      <point x="77" y="-5" type="curve" smooth="yes"/>
      <point x="65" y="4"/>
      <point x="97" y="35"/>
      <point x="130" y="72" type="curve" smooth="yes"/>
      <point x="178" y="125"/>
      <point x="310" y="303"/>
      <point x="348" y="347" type="curve" smooth="yes"/>
      <point x="388" y="394"/>
      <point x="399" y="419"/>
    </contour>
  </outline>
</glyph>
<glyph name="y" format="2">
  <advance width="500.0"/>
  <unicode hex="0079"/>
  <anchor x="250.0" y="400.0" name="top"/>
  <anchor x="214" y="-113" name="cedilla"/>
  <anchor x="214" y="-113" name="ogonek"/>
  <anchor x="229" y="-100" name="bottom"/>
  <outline>
    <contour>
      <point x="50" y="-36" type="curve" smooth="yes"/>
      <point x="58" y="-26"/>
      <point x="65" y="-35"/>
      <point x="89" y="-56" type="curve" smooth="yes"/>
      <point x="119" y="-81"/>
      <point x="170" y="-96"/>
      <point x="219" y="-93" type="curve" smooth="yes"/>
      <point x="287" y="-89"/>
      <point x="294" y="-41"/>
      <point x="321" y="41" type="curve" smooth="yes"/>
      <point x="334" y="82"/>
      <point x="351" y="141"/>
      <point x="369" y="199" type="curve" smooth="yes"/>
      <point x="398" y="292"/>
      <point x="408" y="321"/>
      <point x="418" y="358" type="curve" smooth="yes"/>
      <point x="427" y="390"/>
      <point x="431" y="414"/>
      <point x="439" y="411" type="curve" smooth="yes"/>
      <point x="456" y="405"/>
      <point x="445" y="386"/>
      <point x="427" y="321" type="curve" smooth="yes"/>
      <point x="412" y="270"/>
      <point x="395" y="218"/>
      <point x="384" y="181" type="curve" smooth="yes"/>
      <point x="370" y="136"/>
      <point x="344" y="48"/>
      <point x="337" y="26" type="curve" smooth="yes"/>
      <point x="312" y="-43"/>
      <point x="313" y="-111"/>
      <point x="214" y="-113" type="curve" smooth="yes"/>
      <point x="147" y="-113"/>
      <point x="108" y="-94"/>
      <point x="73" y="-71" type="curve" smooth="yes"/>
      <point x="53" y="-56"/>
      <point x="43" y="-46"/>
    </contour>
    <contour>
      <point x="64" y="411" type="curve" smooth="yes"/>
      <point x="82" y="420"/>
      <point x="77" y="401"/>
      <point x="84" y="372" type="curve" smooth="yes"/>
      <point x="123" y="202"/>
      <point x="158" y="157"/>
      <point x="238" y="109" type="curve" smooth="yes"/>
      <point x="264" y="93"/>
      <point x="307" y="92"/>
      <point x="345" y="88" type="curve"/>
      <point x="338" y="69" type="line"/>
      <point x="304" y="70"/>
      <point x="272" y="75"/>
      <point x="250" y="84" type="curve" smooth="yes"/>
      <point x="147" y="125"/>
      <point x="99" y="210"/>
      <point x="68" y="360" type="curve" smooth="yes"/>
      <point x="61" y="392"/>
      <point x="58" y="408"/>
    </contour>
  </outline>
</glyph>
<glyph name="z" format="2">
  <advance width="500.0"/>
  <unicode hex="007A"/>
  <anchor x="250.0" y="400.0" name="top"/>
  <anchor x="234" y="2" name="cedilla"/>
  <anchor x="307" y="2" name="ogonek"/>
  <anchor x="250.0" y="0.0" name="bottom"/>
  <outline>
    <contour>
      <point x="396" y="400" type="curve" smooth="yes"/>
      <point x="435" y="402"/>
      <point x="424" y="375"/>
      <point x="394" y="342" type="curve" smooth="yes"/>
      <point x="382" y="329"/>
      <point x="330" y="265"/>
      <point x="277" y="202" type="curve" smooth="yes"/>
      <point x="225" y="141"/>
      <point x="189" y="107"/>
      <point x="99" y="19" type="curve"/>
      <point x="105" y="21"/>
      <point x="137" y="19"/>
      <point x="174" y="20" type="curve" smooth="yes"/>
      <point x="238" y="22"/>
      <point x="357" y="24"/>
      <point x="386" y="21" type="curve" smooth="yes"/>
      <point x="416" y="18"/>
      <point x="431" y="33"/>
      <point x="434" y="19" type="curve" smooth="yes"/>
      <point x="437" y="8"/>
      <point x="425" y="-1"/>
      <point x="397" y="1" type="curve" smooth="yes"/>
      <point x="362" y="3"/>
      <point x="332" y="2"/>
      <point x="307" y="2" type="curve" smooth="yes"/>
      <point x="274" y="2"/>
      <point x="294" y="3"/>
      <point x="200" y="1" type="curve" smooth="yes"/>
      <point x="152" y="0"/>
      <point x="127" y="-2"/>
      <point x="111" y="-2" type="curve" smooth="yes"/>
      <point x="94" y="-2"/>
      <point x="78" y="1"/>
      <point x="79" y="19" type="curve" smooth="yes"/>
      <point x="80" y="36"/>
      <point x="94" y="41"/>
      <point x="128" y="76" type="curve" smooth="yes"/>
      <point x="186" y="132"/>
      <point x="275" y="223"/>
      <point x="404" y="384" type="curve"/>
      <point x="372" y="378"/>
      <point x="347" y="381"/>
      <point x="324" y="380" type="curve" smooth="yes"/>
      <point x="259" y="380"/>
      <point x="217" y="383"/>
      <point x="128" y="382" type="curve" smooth="yes"/>
      <point x="98" y="382"/>
      <point x="89" y="371"/>
      <point x="88" y="389" type="curve" smooth="yes"/>
      <point x="88" y="402"/>
      <point x="101" y="400"/>
      <point x="128" y="400" type="curve" smooth="yes"/>
      <point x="199" y="400"/>
      <point x="246" y="399"/>
      <point x="323" y="398" type="curve" smooth="yes"/>
      <point x="358" y="398"/>
      <point x="380" y="399"/>
    </contour>
  </outline>
</glyph>
<glyph name="braceleft" format="2">
  <advance width="500.0"/>
  <unicode hex="007B"/>
  <outline>
    <contour>
      <point x="85.0" y="300.0" type="curve" smooth="yes"/>
      <point x="85" y="367"/>
      <point x="242" y="349"/>
      <point x="242" y="404" type="curve" smooth="yes"/>
      <point x="242" y="467"/>
      <point x="124" y="474"/>
      <point x="123.0" y="544.0" type="curve" smooth="yes"/>
      <point x="122" y="586"/>
      <point x="159.0" y="656.0"/>
      <point x="226.0" y="675.0" type="curve" smooth="yes"/>
      <point x="302.0" y="698.0"/>
      <point x="379.0" y="674.0"/>
      <point x="404.0" y="659.0" type="curve" smooth="yes"/>
      <point x="436.0" y="640.0"/>
      <point x="437" y="627"/>
      <point x="430" y="621" type="curve" smooth="yes"/>
      <point x="423" y="614"/>
      <point x="400" y="633"/>
      <point x="372" y="648" type="curve" smooth="yes"/>
      <point x="355" y="657"/>
      <point x="290" y="674"/>
      <point x="225" y="651" type="curve" smooth="yes"/>
      <point x="189" y="638"/>
      <point x="148" y="593"/>
      <point x="147" y="549" type="curve" smooth="yes"/>
      <point x="146" y="482"/>
      <point x="261.0" y="493.0"/>
      <point x="262" y="399" type="curve" smooth="yes"/>
      <point x="262.0" y="334.0"/>
      <point x="108" y="342"/>
      <point x="109" y="301" type="curve"/>
      <point x="110" y="258"/>
      <point x="262" y="257"/>
      <point x="263.0" y="196.0" type="curve" smooth="yes"/>
      <point x="264" y="146"/>
      <point x="156" y="108"/>
      <point x="156" y="36" type="curve" smooth="yes"/>
      <point x="156" y="3"/>
      <point x="180" y="-71"/>
      <point x="221" y="-80" type="curve" smooth="yes"/>
      <point x="275" y="-91"/>
      <point x="356" y="-72"/>
      <point x="384" y="-54" type="curve" smooth="yes"/>
      <point x="402" y="-43"/>
      <point x="424" y="-27"/>
      <point x="428.0" y="-44.0" type="curve" smooth="yes"/>
      <point x="431" y="-56"/>
      <point x="430.0" y="-64.0"/>
      <point x="384.0" y="-82.0" type="curve" smooth="yes"/>
      <point x="367.0" y="-89.0"/>
      <point x="290.0" y="-118.0"/>
      <point x="217.0" y="-103.0" type="curve" smooth="yes"/>
      <point x="162.0" y="-91.0"/>
      <point x="133.0" y="-11.0"/>
      <point x="133.0" y="35.0" type="curve" smooth="yes"/>
      <point x="133.0" y="118.0"/>
      <point x="239" y="161"/>
      <point x="239" y="194" type="curve" smooth="yes"/>
      <point x="239" y="241"/>
      <point x="85" y="234"/>
    </contour>
  </outline>
</glyph>
<glyph name="bar" format="2">
  <advance width="500.0"/>
  <unicode hex="007C"/>
  <outline>
    <contour>
      <point x="250" y="685" type="curve" smooth="yes"/>
      <point x="263" y="685"/>
      <point x="259" y="674"/>
      <point x="259" y="641" type="curve" smooth="yes"/>
      <point x="260" y="523"/>
      <point x="263" y="511"/>
      <point x="259" y="301" type="curve" smooth="yes"/>
      <point x="259" y="96"/>
      <point x="259" y="105"/>
      <point x="260" y="-55" type="curve" smooth="yes"/>
      <point x="260" y="-93"/>
      <point x="260" y="-108"/>
      <point x="250" y="-108" type="curve" smooth="yes"/>
      <point x="237" y="-108"/>
      <point x="237" y="-86"/>
      <point x="238" y="-54" type="curve" smooth="yes"/>
      <point x="238" y="-48"/>
      <point x="235" y="70"/>
      <point x="239" y="281" type="curve" smooth="yes"/>
      <point x="240" y="534"/>
      <point x="238" y="561"/>
      <point x="239" y="636" type="curve" smooth="yes"/>
      <point x="239" y="657"/>
      <point x="235" y="685"/>
    </contour>
  </outline>
</glyph>
<glyph name="asciitilde" format="2">
  <advance width="500.0"/>
  <unicode hex="007E"/>
  <outline>
    <contour>
      <point x="433" y="412" type="curve" smooth="yes"/>
      <point x="444" y="411"/>
      <point x="445" y="399"/>
      <point x="443" y="370" type="curve" smooth="yes"/>
      <point x="437" y="297"/>
      <point x="438" y="188"/>
      <point x="347" y="188" type="curve" smooth="yes"/>
      <point x="251" y="188"/>
      <point x="227" y="411"/>
      <point x="131" y="393" type="curve" smooth="yes"/>
      <point x="88" y="385"/>
      <point x="73" y="317"/>
      <point x="76" y="235" type="curve" smooth="yes"/>
      <point x="76" y="203"/>
      <point x="75" y="186"/>
      <point x="64" y="186" type="curve" smooth="yes"/>
      <point x="51" y="186"/>
      <point x="50" y="205"/>
      <point x="53" y="239" type="curve" smooth="yes"/>
      <point x="61" y="321"/>
      <point x="53" y="411"/>
      <point x="150" y="411" type="curve" smooth="yes"/>
      <point x="239" y="411"/>
      <point x="276" y="203"/>
      <point x="349" y="206" type="curve" smooth="yes"/>
      <point x="423" y="210"/>
      <point x="425" y="312"/>
      <point x="424" y="378" type="curve" smooth="yes"/>
      <point x="424" y="407"/>
      <point x="423" y="413"/>
    </contour>
  </outline>
</glyph>
<glyph name="cent" format="2">
  <advance width="500.0"/>
  <unicode hex="00A2"/>
  <outline>
    <contour>
      <point x="393" y="49" type="curve" smooth="yes"/>
      <point x="416" y="68"/>
      <point x="413" y="87"/>
      <point x="423" y="81" type="curve" smooth="yes"/>
      <point x="431" y="76"/>
      <point x="439" y="67"/>
      <point x="399" y="33" type="curve" smooth="yes"/>
      <point x="363" y="2"/>
      <point x="322" y="-7"/>
      <point x="261" y="-10" type="curve" smooth="yes"/>
      <point x="151" y="-16"/>
      <point x="61" y="53"/>
      <point x="61" y="200" type="curve" smooth="yes"/>
      <point x="61" y="363"/>
      <point x="147" y="413"/>
      <point x="255" y="413" type="curve" smooth="yes"/>
      <point x="327" y="413"/>
      <point x="360" y="406"/>
      <point x="422" y="353" type="curve" smooth="yes"/>
      <point x="436" y="340"/>
      <point x="433" y="338"/>
      <point x="424" y="330" type="curve" smooth="yes"/>
      <point x="415" y="322"/>
      <point x="398" y="351"/>
      <point x="376" y="365" type="curve" smooth="yes"/>
      <point x="328" y="396"/>
      <point x="282" y="396"/>
      <point x="248" y="395" type="curve" smooth="yes"/>
      <point x="135" y="393"/>
      <point x="81" y="327"/>
      <point x="80" y="205" type="curve" smooth="yes"/>
      <point x="79" y="84"/>
      <point x="135" y="7"/>
      <point x="262" y="7" type="curve" smooth="yes"/>
      <point x="293" y="7"/>
      <point x="353" y="15"/>
    </contour>
    <contour>
      <point x="250" y="499" type="curve" smooth="yes"/>
      <point x="257" y="499"/>
      <point x="261" y="491"/>
      <point x="261" y="458" type="curve" smooth="yes"/>
      <point x="261" y="340"/>
      <point x="261" y="408"/>
      <point x="261" y="298" type="curve" smooth="yes"/>
      <point x="261" y="93"/>
      <point x="261" y="142"/>
      <point x="261" y="-18" type="curve" smooth="yes"/>
      <point x="261" y="-56"/>
      <point x="263" y="-81"/>
      <point x="252" y="-81" type="curve" smooth="yes"/>
      <point x="238" y="-81"/>
      <point x="241" y="-49"/>
      <point x="241" y="-17" type="curve" smooth="yes"/>
      <point x="241" y="-11"/>
      <point x="241" y="67"/>
      <point x="241" y="278" type="curve" smooth="yes"/>
      <point x="241" y="381"/>
      <point x="241" y="378"/>
      <point x="241" y="453" type="curve" smooth="yes"/>
      <point x="241" y="474"/>
      <point x="241" y="500"/>
    </contour>
  </outline>
</glyph>
<glyph name="sterling" format="2">
  <advance width="500.0"/>
  <unicode hex="00A3"/>
  <outline>
    <contour>
      <point x="148" y="474" type="curve" smooth="yes"/>
      <point x="157" y="533"/>
      <point x="194" y="595"/>
      <point x="277" y="592" type="curve" smooth="yes"/>
      <point x="335" y="590"/>
      <point x="397" y="554"/>
      <point x="397" y="459" type="curve" smooth="yes"/>
      <point x="397" y="437"/>
      <point x="390" y="414"/>
      <point x="402" y="414" type="curve" smooth="yes"/>
      <point x="416" y="414"/>
      <point x="417.0" y="432.0"/>
      <point x="417.0" y="447.0" type="curve" smooth="yes"/>
      <point x="417.0" y="551.0"/>
      <point x="367.0" y="611.0"/>
      <point x="275.0" y="611.0" type="curve" smooth="yes"/>
      <point x="192.0" y="611.0"/>
      <point x="136.0" y="554.0"/>
      <point x="128.0" y="471.0" type="curve" smooth="yes"/>
      <point x="121.0" y="395.0"/>
      <point x="167" y="368"/>
      <point x="181" y="280" type="curve" smooth="yes"/>
      <point x="202" y="146"/>
      <point x="55" y="56"/>
      <point x="55" y="8" type="curve"/>
      <point x="72" y="6" type="line"/>
      <point x="78" y="44"/>
      <point x="200.0" y="153.0"/>
      <point x="202.0" y="243.0" type="curve" smooth="yes"/>
      <point x="204.0" y="355.0"/>
      <point x="138" y="406"/>
    </contour>
    <contour>
      <point x="55" y="8" type="curve" smooth="yes"/>
      <point x="55" y="-4"/>
      <point x="63" y="-9"/>
      <point x="95" y="-9" type="curve" smooth="yes"/>
      <point x="140" y="-9"/>
      <point x="165" y="15"/>
      <point x="232" y="15" type="curve" smooth="yes"/>
      <point x="300" y="15"/>
      <point x="338" y="-22"/>
      <point x="437" y="9" type="curve" smooth="yes"/>
      <point x="459" y="16"/>
      <point x="462" y="18"/>
      <point x="460" y="25" type="curve" smooth="yes"/>
      <point x="457" y="38"/>
      <point x="438" y="29"/>
      <point x="407" y="21" type="curve" smooth="yes"/>
      <point x="325" y="0"/>
      <point x="330" y="34"/>
      <point x="228" y="34" type="curve" smooth="yes"/>
      <point x="162" y="33"/>
      <point x="123" y="11"/>
      <point x="101" y="10" type="curve" smooth="yes"/>
      <point x="73" y="8"/>
      <point x="55" y="20"/>
    </contour>
    <contour>
      <point x="55" y="260" type="curve" smooth="yes"/>
      <point x="55" y="253"/>
      <point x="65" y="254"/>
      <point x="93" y="252" type="curve" smooth="yes"/>
      <point x="111" y="250"/>
      <point x="210" y="251"/>
      <point x="241" y="251" type="curve" smooth="yes"/>
      <point x="278" y="251"/>
      <point x="312" y="251"/>
      <point x="359" y="251" type="curve" smooth="yes"/>
      <point x="394" y="252"/>
      <point x="411" y="250"/>
      <point x="411" y="260" type="curve" smooth="yes"/>
      <point x="411" y="269"/>
      <point x="397" y="269"/>
      <point x="374" y="270" type="curve" smooth="yes"/>
      <point x="342" y="271"/>
      <point x="282" y="269"/>
      <point x="249" y="269" type="curve" smooth="yes"/>
      <point x="237" y="269"/>
      <point x="149" y="270"/>
      <point x="97" y="270" type="curve" smooth="yes"/>
      <point x="68" y="270"/>
      <point x="55" y="268"/>
    </contour>
  </outline>
</glyph>
